<?xml version="1.0" encoding="UTF-8"?>
<svg version="1.1" xmlns="http://www.w3.org/2000/svg" width="298" height="153">
<path d="M0 0 C7.00120149 5.59250903 9.69146744 13.62758006 12 22 C12 22.99 12 23.98 12 25 C13.03125 24.9175 14.0625 24.835 15.125 24.75 C19.7490178 25.04832373 21.54981884 25.94188488 25 29 C29.73663149 37.00327389 29.07337135 46.52546189 29.125 55.5625 C29.13213013 56.61715454 29.13213013 56.61715454 29.1394043 57.69311523 C29.12270794 62.75458411 29.12270794 62.75458411 28 65 C27.01 65 26.02 65 25 65 C25.13277344 65.54527344 25.26554687 66.09054688 25.40234375 66.65234375 C25.57894531 67.40644531 25.75554687 68.16054687 25.9375 68.9375 C26.11152344 69.66839844 26.28554688 70.39929688 26.46484375 71.15234375 C27.87835752 78.67388781 28.1650426 86.11053971 28.125 93.75 C28.11774902 95.19427368 28.11774902 95.19427368 28.11035156 96.66772461 C28.08701831 99.44554837 28.04888287 102.22251671 28 105 C27.98743164 105.72525879 27.97486328 106.45051758 27.96191406 107.19775391 C27.79562798 113.96288277 27.67289378 117.83177948 23 123 C23.79664063 123.18175781 24.59328125 123.36351562 25.4140625 123.55078125 C36.74202829 126.2380724 36.74202829 126.2380724 41 129 C41.33 129.99 41.66 130.98 42 132 C27.10273617 146.40068837 -7.51960813 143.18675712 -26.70727539 143.18530273 C-29.89939017 143.18747408 -33.09114984 143.20564278 -36.28320312 143.22460938 C-52.81141565 143.27075304 -69.31635457 142.71485583 -85.55566406 139.40625 C-90.45613976 138.5917882 -95.41802178 138.60899809 -100.375 138.5 C-145.73685163 137.06972952 -145.73685163 137.06972952 -156.82714844 131 C-159.78501924 129.63871474 -162.56237296 129.38499885 -165.79296875 129 C-166.78084633 128.87913528 -166.78084633 128.87913528 -167.78868103 128.75582886 C-169.92082845 128.49672128 -172.05405329 128.24816123 -174.1875 128 C-175.65941528 127.82368637 -177.13125777 127.64676406 -178.60302734 127.46923828 C-181.47332946 127.12418445 -184.34406842 126.78324665 -187.21533203 126.44628906 C-190.18526302 126.096074 -193.15361783 125.73741605 -196.12109375 125.3671875 C-201.82042015 124.6630391 -207.50914611 124.02675904 -213.234375 123.578125 C-222.41903999 122.85053158 -231.46050569 121.95418913 -240.5 120.125 C-241.27069824 119.97562988 -242.04139648 119.82625977 -242.83544922 119.67236328 C-247.69627672 118.61631959 -251.07839941 117.08644491 -255 114 C-255.33 113.34 -255.66 112.68 -256 112 C-252.39190497 107.24387473 -247.52563577 106.39195405 -242 105 C-244.90908228 103.06061181 -247.40862379 102.03225043 -250.6875 100.875 C-251.68136719 100.52179688 -252.67523438 100.16859375 -253.69921875 99.8046875 C-254.45847656 99.53914063 -255.21773437 99.27359375 -256 99 C-255.91506735 91.25367696 -255.8199872 83.50754776 -255.71247292 75.76150894 C-255.66284026 72.1634724 -255.61651185 68.56546064 -255.578125 64.96728516 C-255.54084917 61.48525904 -255.49438452 58.00345877 -255.44193649 54.52162933 C-255.41478777 52.56782014 -255.39679754 50.61389043 -255.37905884 48.65997314 C-255.0391779 27.78511656 -255.0391779 27.78511656 -249.49821341 21.35566604 C-247.00189727 19.09686166 -244.47256533 18.74855715 -241.20629883 18.18424988 C-240.53585195 18.06140588 -239.86540506 17.93856187 -239.17464161 17.81199533 C-236.9389191 17.40853321 -234.69882162 17.04072968 -232.45703125 16.67260742 C-230.84828674 16.38976796 -229.23992601 16.10473817 -227.63192749 15.81768799 C-223.27203427 15.04575893 -218.90741807 14.30450764 -214.54131699 13.56862426 C-209.97079507 12.79288063 -205.40525429 11.98886266 -200.83911133 11.18782043 C-192.1893884 9.67479102 -183.53552378 8.18700249 -174.87986851 6.70833236 C-165.0453403 5.02706921 -155.21561545 3.31853537 -145.38626289 1.60731351 C-133.40675704 -0.47806746 -121.42659504 -2.55949429 -109.44262695 -4.61909485 C-108.59542084 -4.76472126 -107.74821472 -4.91034768 -106.87533569 -5.06038702 C-102.90848854 -5.74201177 -98.94147439 -6.42264493 -94.97421265 -7.10185242 C-93.58070718 -7.34094809 -92.18720326 -7.58005277 -90.79370117 -7.81916809 C-89.59541183 -8.02430936 -88.3971225 -8.22945063 -87.16252136 -8.4408083 C-85.18661491 -8.79018475 -83.21428161 -9.16127421 -81.248703 -9.56472301 C-58.99137437 -13.87303002 -20.03540694 -11.91294467 0 0 Z M14 29 C14.66 31.31 15.32 33.62 16 36 C18.30671915 33.28450846 18.30671915 33.28450846 17.625 30.8125 C17.41875 30.214375 17.2125 29.61625 17 29 C16.01 29 15.02 29 14 29 Z " fill="#CAF1F8" transform="translate(256,10)"/>
<path d="M0 0 C7.00120149 5.59250903 9.69146744 13.62758006 12 22 C12 22.99 12 23.98 12 25 C13.03125 24.9175 14.0625 24.835 15.125 24.75 C19.7490178 25.04832373 21.54981884 25.94188488 25 29 C29.73663149 37.00327389 29.07337135 46.52546189 29.125 55.5625 C29.13213013 56.61715454 29.13213013 56.61715454 29.1394043 57.69311523 C29.12270794 62.75458411 29.12270794 62.75458411 28 65 C27.01 65 26.02 65 25 65 C25.13277344 65.54527344 25.26554687 66.09054688 25.40234375 66.65234375 C25.57894531 67.40644531 25.75554687 68.16054687 25.9375 68.9375 C26.11152344 69.66839844 26.28554688 70.39929688 26.46484375 71.15234375 C27.87835752 78.67388781 28.1650426 86.11053971 28.125 93.75 C28.11774902 95.19427368 28.11774902 95.19427368 28.11035156 96.66772461 C28.08701831 99.44554837 28.04888287 102.22251671 28 105 C27.98743164 105.72525879 27.97486328 106.45051758 27.96191406 107.19775391 C27.79562798 113.96288277 27.67289378 117.83177948 23 123 C23.79664063 123.18175781 24.59328125 123.36351562 25.4140625 123.55078125 C36.74202829 126.2380724 36.74202829 126.2380724 41 129 C41.33 129.99 41.66 130.98 42 132 C27.10273617 146.40068837 -7.51960813 143.18675712 -26.70727539 143.18530273 C-29.89939017 143.18747408 -33.09114984 143.20564278 -36.28320312 143.22460938 C-52.81141565 143.27075304 -69.31635457 142.71485583 -85.55566406 139.40625 C-90.45613976 138.5917882 -95.41802178 138.60899809 -100.375 138.5 C-145.73685163 137.06972952 -145.73685163 137.06972952 -156.82714844 131 C-159.78501924 129.63871474 -162.56237296 129.38499885 -165.79296875 129 C-166.78084633 128.87913528 -166.78084633 128.87913528 -167.78868103 128.75582886 C-169.92082845 128.49672128 -172.05405329 128.24816123 -174.1875 128 C-175.65941528 127.82368637 -177.13125777 127.64676406 -178.60302734 127.46923828 C-181.47332946 127.12418445 -184.34406842 126.78324665 -187.21533203 126.44628906 C-190.18526302 126.096074 -193.15361783 125.73741605 -196.12109375 125.3671875 C-201.82042015 124.6630391 -207.50914611 124.02675904 -213.234375 123.578125 C-222.41903999 122.85053158 -231.46050569 121.95418913 -240.5 120.125 C-241.27069824 119.97562988 -242.04139648 119.82625977 -242.83544922 119.67236328 C-247.69627672 118.61631959 -251.07839941 117.08644491 -255 114 C-255.33 113.34 -255.66 112.68 -256 112 C-252.39190497 107.24387473 -247.52563577 106.39195405 -242 105 C-244.90908228 103.06061181 -247.40862379 102.03225043 -250.6875 100.875 C-251.68136719 100.52179688 -252.67523438 100.16859375 -253.69921875 99.8046875 C-254.45847656 99.53914063 -255.21773437 99.27359375 -256 99 C-255.91506735 91.25367696 -255.8199872 83.50754776 -255.71247292 75.76150894 C-255.66284026 72.1634724 -255.61651185 68.56546064 -255.578125 64.96728516 C-255.54084917 61.48525904 -255.49438452 58.00345877 -255.44193649 54.52162933 C-255.41478777 52.56782014 -255.39679754 50.61389043 -255.37905884 48.65997314 C-255.0391779 27.78511656 -255.0391779 27.78511656 -249.49821341 21.35566604 C-247.00189727 19.09686166 -244.47256533 18.74855715 -241.20629883 18.18424988 C-240.53585195 18.06140588 -239.86540506 17.93856187 -239.17464161 17.81199533 C-236.9389191 17.40853321 -234.69882162 17.04072968 -232.45703125 16.67260742 C-230.84828674 16.38976796 -229.23992601 16.10473817 -227.63192749 15.81768799 C-223.27203427 15.04575893 -218.90741807 14.30450764 -214.54131699 13.56862426 C-209.97079507 12.79288063 -205.40525429 11.98886266 -200.83911133 11.18782043 C-192.1893884 9.67479102 -183.53552378 8.18700249 -174.87986851 6.70833236 C-165.0453403 5.02706921 -155.21561545 3.31853537 -145.38626289 1.60731351 C-133.40675704 -0.47806746 -121.42659504 -2.55949429 -109.44262695 -4.61909485 C-108.59542084 -4.76472126 -107.74821472 -4.91034768 -106.87533569 -5.06038702 C-102.90848854 -5.74201177 -98.94147439 -6.42264493 -94.97421265 -7.10185242 C-93.58070718 -7.34094809 -92.18720326 -7.58005277 -90.79370117 -7.81916809 C-89.59541183 -8.02430936 -88.3971225 -8.22945063 -87.16252136 -8.4408083 C-85.18661491 -8.79018475 -83.21428161 -9.16127421 -81.248703 -9.56472301 C-58.99137437 -13.87303002 -20.03540694 -11.91294467 0 0 Z M-85.72119141 -6.97363281 C-88.02472225 -6.62121777 -90.33027378 -6.28588357 -92.63671875 -5.953125 C-94.13295569 -5.7327408 -95.62905518 -5.51142092 -97.125 -5.2890625 C-97.79909912 -5.19001617 -98.47319824 -5.09096985 -99.16772461 -4.98892212 C-103.87238646 -4.26377352 -108.39551154 -3.18155566 -113 -2 C-114.61967 -1.77097961 -116.24490892 -1.57382434 -117.875 -1.4375 C-120.31086631 -1.22956019 -121.80228469 -1.09885766 -124 0 C-125.42746052 0.26582577 -126.86292677 0.48921482 -128.30078125 0.69140625 C-129.2338208 0.82708008 -130.16686035 0.96275391 -131.12817383 1.10253906 C-132.70441528 1.33021973 -132.70441528 1.33021973 -134.3125 1.5625 C-146.68548694 3.40992621 -158.99875343 5.54525701 -171.3125 7.75 C-172.25777557 7.91912903 -173.20305115 8.08825806 -174.17697144 8.26251221 C-179.08561321 9.14134227 -183.99384258 10.02245025 -188.90185547 10.90478516 C-198.23053162 12.58129469 -207.56150606 14.24489904 -216.89291382 15.90612793 C-219.81855248 16.42744173 -222.74388564 16.9504438 -225.66918945 17.47363281 C-227.4643437 17.79368584 -229.25950912 18.11367615 -231.0546875 18.43359375 C-231.85999405 18.57802414 -232.6653006 18.72245453 -233.49501038 18.8712616 C-234.25188644 19.00583267 -235.00876251 19.14040375 -235.78857422 19.27905273 C-236.85951324 19.4728804 -236.85951324 19.4728804 -237.9520874 19.67062378 C-239.89249159 19.98270887 -241.85188745 20.16914111 -243.80908203 20.34790039 C-247.62849778 21.12844052 -248.57422315 22.00512207 -251 25 C-254.20848221 34.13515098 -254.41468308 43.6967563 -254.29296875 53.2734375 C-254.28872391 54.56319489 -254.28447906 55.85295227 -254.28010559 57.18179321 C-254.26882329 60.55853764 -254.23950692 63.93487526 -254.20599365 67.3114624 C-254.17492707 70.77789817 -254.16152334 74.24440171 -254.14648438 77.7109375 C-254.11461504 84.47412212 -254.06362908 91.23704137 -254 98 C-253.18663681 98.30431442 -253.18663681 98.30431442 -252.35684204 98.61477661 C-251.64176483 98.88256927 -250.92668762 99.15036194 -250.18994141 99.42626953 C-249.12907822 99.82339645 -249.12907822 99.82339645 -248.04678345 100.22854614 C-246.34770611 100.86894597 -244.65364007 101.52262301 -242.9609375 102.1796875 C-239.40983906 103.16350105 -236.30363036 103.19440812 -232.625 103.125 C-231.37976563 103.10695313 -230.13453125 103.08890625 -228.8515625 103.0703125 C-227.44003906 103.03550781 -227.44003906 103.03550781 -226 103 C-225.97421875 102.29875 -225.9484375 101.5975 -225.921875 100.875 C-225.5602405 94.82584103 -225.05379352 88.81307549 -221 84 C-218.6227286 83.12416317 -217.36571693 82.92470534 -214.875 83.4375 C-211.81103363 85.99080531 -211.51741895 89.22556492 -211 93 C-210.56038037 97.99751513 -210.26226392 102.98981575 -210 108 C-209.09328804 108.06289467 -209.09328804 108.06289467 -208.16825867 108.12705994 C-190.63449867 109.37076852 -173.24433711 111.32393833 -155.8125 113.5625 C-153.27935923 113.88265521 -150.74615626 114.20231867 -148.21289062 114.52148438 C-128.49721373 117.01756742 -128.49721373 117.01756742 -123 118 C-121.89100472 115.78200945 -121.78037439 114.32132444 -121.60546875 111.859375 C-121.50202148 110.62380859 -121.50202148 110.62380859 -121.39648438 109.36328125 C-121.25847501 107.6375193 -121.1306665 105.9109076 -121.01367188 104.18359375 C-120.48994008 98.22324781 -119.33621174 94.33621174 -115 90 C-110.9161982 89.56124443 -107.14827132 89.60854387 -103.25 90.9375 C-96.32814149 97.28253696 -94.91967604 105.30207749 -94.4375 114.25 C-94.37272461 115.36761719 -94.37272461 115.36761719 -94.30664062 116.5078125 C-94.20103275 118.338349 -94.10005799 120.16915176 -94 122 C-68.53076385 128.29840767 -68.53076385 128.29840767 -43.15814209 127.03688049 C-39.88648536 125.9627309 -36.99215693 125.54672463 -33.56738281 125.23803711 C-32.31298401 125.12129135 -31.05858521 125.00454559 -29.76617432 124.88426208 C-28.41182738 124.76525708 -27.05747753 124.64628508 -25.703125 124.52734375 C-24.30394811 124.39881451 -22.90483992 124.26953538 -21.50579834 124.13954163 C-17.83778939 123.80021034 -14.16912053 123.46871135 -10.50018311 123.1395874 C-4.61392866 122.61094693 1.27150845 122.07356947 7.15641022 121.53009224 C9.21127834 121.34195837 11.26657264 121.15914787 13.32196045 120.97679138 C14.56375061 120.86319778 15.80554077 120.74960419 17.08496094 120.63256836 C18.18161072 120.53423203 19.2782605 120.43589569 20.40814209 120.33457947 C22.98003385 120.14707604 22.98003385 120.14707604 25 119 C26.17942085 115.46173745 26.11289189 112.65851274 26.09765625 108.92578125 C26.0962413 108.2419487 26.09482635 107.55811615 26.09336853 106.8535614 C26.08777876 104.67316278 26.07522822 102.49286749 26.0625 100.3125 C26.05748367 98.83268378 26.052921 97.35286594 26.04882812 95.87304688 C26.03781271 92.24866443 26.02055512 88.6243423 26 85 C24.515 85.495 24.515 85.495 23 86 C21.65126324 86.09039371 20.29853901 86.12788474 18.94677734 86.12939453 C17.7293837 86.13412277 17.7293837 86.13412277 16.48739624 86.13894653 C15.61241486 86.1369223 14.73743347 86.13489807 13.8359375 86.1328125 C12.92929352 86.13376923 12.02264954 86.13472595 11.08853149 86.13571167 C9.16693045 86.1363925 7.2453271 86.13454499 5.32373047 86.13037109 C2.40717268 86.1250586 -0.50922849 86.13030006 -3.42578125 86.13671875 C-5.29687534 86.13605722 -7.16796933 86.13477453 -9.0390625 86.1328125 C-9.9018985 86.13483673 -10.7647345 86.13686096 -11.65371704 86.13894653 C-26.88188896 86.08114865 -26.88188896 86.08114865 -33.375 82.6875 C-34.18710938 82.27886719 -34.99921875 81.87023437 -35.8359375 81.44921875 C-39.61760624 78.91672939 -41.27697358 75.8540459 -42.5 71.54296875 C-42.74556641 70.68606445 -42.99113281 69.82916016 -43.24414062 68.94628906 C-43.49357422 68.03588867 -43.74300781 67.12548828 -44 66.1875 C-44.26490234 65.2397168 -44.52980469 64.29193359 -44.80273438 63.31542969 C-46.53681483 56.99781064 -47.96290041 50.67963414 -49.14453125 44.234375 C-50.46689594 37.34079278 -52.28366835 30.5400073 -54.01953125 23.74121094 C-56.71026125 12.90015104 -56.71026125 12.90015104 -56 8 C-54.60546875 6.0859375 -54.60546875 6.0859375 -52 5 C-48.76237381 4.56301978 -45.57521816 4.57689674 -42.3125 4.625 C-41.35512939 4.63080078 -40.39775879 4.63660156 -39.41137695 4.64257812 C-30.72081327 4.79390112 -22.16952538 5.74116799 -13.56567383 6.93212891 C-7.6378206 7.74779532 -1.98533837 8.14885816 4 8 C2.47793991 5.37098712 1.15634036 3.15634036 -1 1 C-2.98821313 0.60235737 -4.98944339 0.26224651 -7 0 C-7 -0.66 -7 -1.32 -7 -2 C-8.30324219 -2.18175781 -8.30324219 -2.18175781 -9.6328125 -2.3671875 C-10.78523437 -2.53476563 -11.93765625 -2.70234375 -13.125 -2.875 C-14.83042969 -3.11863281 -14.83042969 -3.11863281 -16.5703125 -3.3671875 C-20 -4 -20 -4 -22.83007812 -4.98632812 C-28.21602285 -6.70863577 -33.76960762 -7.04122906 -39.375 -7.625 C-41.13650391 -7.82609375 -41.13650391 -7.82609375 -42.93359375 -8.03125 C-57.55120608 -9.59003782 -71.25150977 -9.18917604 -85.72119141 -6.97363281 Z M14 29 C14.66 31.31 15.32 33.62 16 36 C18.30671915 33.28450846 18.30671915 33.28450846 17.625 30.8125 C17.41875 30.214375 17.2125 29.61625 17 29 C16.01 29 15.02 29 14 29 Z " fill="#010203" transform="translate(256,10)"/>
<path d="M0 0 C5.16579916 5.12413949 6.5160865 12.96191628 7.9765625 19.80859375 C8.16971039 20.68975357 8.36285828 21.57091339 8.56185913 22.47877502 C8.96676139 24.33286541 9.36828759 26.18769598 9.76660156 28.04321289 C10.37276941 30.86461775 10.99017884 33.68338204 11.609375 36.50195312 C12.00327026 38.3123552 12.3965209 40.12289768 12.7890625 41.93359375 C12.97135406 42.76716904 13.15364563 43.60074432 13.34146118 44.45957947 C15.11997844 52.78355099 15.89900869 60.67531922 15.84765625 69.1875 C15.84553383 70.53557739 15.84553383 70.53557739 15.84336853 71.91088867 C15.83781583 74.75312775 15.82527237 77.59528513 15.8125 80.4375 C15.80747888 82.37630094 15.80291705 84.31510312 15.79882812 86.25390625 C15.78786194 90.98180183 15.77063044 95.70963711 15.75 100.4375 C14.15958965 100.16701691 12.57145366 99.88314164 10.984375 99.59375 C10.09975586 99.43712891 9.21513672 99.28050781 8.30371094 99.11914062 C1.20674775 97.22480781 -2.36116734 91.20332189 -5.890625 85.1953125 C-9.68299584 77.50159465 -10.66794609 71.7807726 -10.4296875 63.26171875 C-10.41036163 62.21474319 -10.39103577 61.16776764 -10.37112427 60.08906555 C-10.3264458 57.88952844 -10.27389301 55.69013859 -10.21386719 53.4909668 C-10.12482565 50.11839611 -10.06858196 46.74635635 -10.015625 43.37304688 C-9.96809991 41.23172657 -9.91868714 39.09044715 -9.8671875 36.94921875 C-9.85138641 35.93985764 -9.83558533 34.93049652 -9.81930542 33.89054871 C-9.77508957 32.48812675 -9.77508957 32.48812675 -9.72998047 31.05737305 C-9.69975296 29.82448799 -9.69975296 29.82448799 -9.66891479 28.56669617 C-9.15190442 25.93891477 -8.38182658 25.02383962 -6.25 23.4375 C-3.33203125 23.14453125 -3.33203125 23.14453125 -0.0625 23.25 C1.02417969 23.27707031 2.11085937 23.30414063 3.23046875 23.33203125 C4.47763672 23.38423828 4.47763672 23.38423828 5.75 23.4375 C5.75 22.7775 5.75 22.1175 5.75 21.4375 C4.574375 21.685 4.574375 21.685 3.375 21.9375 C-1.12709937 22.55847922 -5.70527626 22.4375 -10.25 22.4375 C-10.25 37.9475 -10.25 53.4575 -10.25 69.4375 C-12.51798664 67.16951336 -12.69906215 66.21900717 -13.3203125 63.1484375 C-13.49433594 62.28863281 -13.66835937 61.42882812 -13.84765625 60.54296875 C-14.02167969 59.64191406 -14.19570312 58.74085937 -14.375 57.8125 C-14.64763672 56.49572266 -14.64763672 56.49572266 -14.92578125 55.15234375 C-15.18294922 53.85103516 -15.18294922 53.85103516 -15.4453125 52.5234375 C-15.67758545 51.3485376 -15.67758545 51.3485376 -15.91455078 50.14990234 C-16.3592959 46.55374644 -16.29948794 43.06068976 -16.25 39.4375 C-17.33246506 39.50383133 -17.33246506 39.50383133 -18.4367981 39.57150269 C-46.04180638 41.25194111 -73.65841696 42.71170265 -101.27685547 44.15185547 C-106.53417689 44.42625313 -111.79132116 44.70374988 -117.04833984 44.98388672 C-123.50640508 45.32801923 -129.96472375 45.66696005 -136.42325211 46.002285 C-138.84622515 46.12889805 -141.26910917 46.25722899 -143.69189072 46.38745499 C-157.89369771 47.14914637 -172.02709952 47.61720925 -186.25 47.4375 C-188.05736291 38.80182087 -187.47889864 30.93517605 -185.25 22.4375 C-174.94386809 20.0681216 -164.65023732 18.35237996 -154.1875 16.875 C-151.9980942 16.56125565 -149.80888698 16.2461513 -147.61968994 15.93095398 C-146.18942024 15.72528561 -144.75904157 15.52037361 -143.32855225 15.3162384 C-139.04063432 14.70293298 -134.75959948 14.05531141 -130.48046875 13.3828125 C-123.1445849 12.24284207 -115.78167945 11.36743772 -108.41015625 10.49414062 C-106.88841797 10.30948242 -106.88841797 10.30948242 -105.3359375 10.12109375 C-103.9754126 9.95951782 -103.9754126 9.95951782 -102.58740234 9.79467773 C-100.1028673 9.48250831 -100.1028673 9.48250831 -97.25 8.4375 C-95.75817448 8.21414013 -94.26097413 8.02570691 -92.76171875 7.859375 C-91.84326172 7.75302734 -90.92480469 7.64667969 -89.97851562 7.53710938 C-88.97498047 7.42173828 -87.97144531 7.30636719 -86.9375 7.1875 C-77.32245065 6.040751 -67.79250233 4.57813431 -58.25 2.9375 C-7.42041992 -5.72213824 -7.42041992 -5.72213824 0 0 Z " fill="#020303" transform="translate(191.25,15.5625)"/>
<path d="M0 0 C1.81951172 0.18949219 1.81951172 0.18949219 3.67578125 0.3828125 C9.21353376 0.9920262 14.10142254 1.78707273 19.375 3.625 C21.65859965 4.04634754 23.95119294 4.42159899 26.25 4.75 C27.40242187 4.91757813 28.55484375 5.08515625 29.7421875 5.2578125 C31.04542969 5.43957031 31.04542969 5.43957031 32.375 5.625 C32.375 6.285 32.375 6.945 32.375 7.625 C33.4475 7.851875 34.52 8.07875 35.625 8.3125 C39.75467666 9.75788683 41.05337311 11.00326205 43.375 14.625 C43.375 14.955 43.375 15.285 43.375 15.625 C36.32430905 15.80035397 29.66365734 15.08948594 22.6875 14.125 C14.16700411 13.04246757 5.71624439 12.25865934 -2.875 12.125 C-3.78467529 12.09470703 -4.69435059 12.06441406 -5.6315918 12.03320312 C-10.13007727 12.02978645 -12.01702613 12.15679024 -15.68359375 14.98046875 C-17.65444593 17.66511045 -18.34323538 19.33774605 -18.625 22.625 C-19.615 22.295 -20.605 21.965 -21.625 21.625 C-22.07875 20.696875 -22.5325 19.76875 -23 18.8125 C-24.83063288 15.22164319 -26.27219387 13.81956401 -29.625 11.625 C-49.7707796 8.20909345 -73.80482885 15.26653854 -93.75 18.66796875 C-95.33651367 18.93685913 -95.33651367 18.93685913 -96.95507812 19.21118164 C-99.00137363 19.55900775 -101.04700508 19.91077426 -103.09179688 20.26733398 C-108.78798998 21.23845177 -114.44180023 21.93725065 -120.20019531 22.41455078 C-123.07177433 22.66377562 -125.90356561 23.04805916 -128.75 23.5 C-129.85859375 23.6753125 -130.9671875 23.850625 -132.109375 24.03125 C-134.45663334 24.42767585 -136.80054635 24.84443532 -139.140625 25.28125 C-150.04577216 27.31216809 -161.00225757 28.75151991 -172.00537109 30.13745117 C-181.91866942 31.38827926 -191.79937596 32.78788881 -201.671875 34.32568359 C-204.65297905 34.78253779 -207.63856346 35.20454117 -210.625 35.625 C-211.45646981 41.44528868 -211.69053041 47.10152641 -211.65625 52.96875 C-211.65399414 53.70706055 -211.65173828 54.44537109 -211.64941406 55.20605469 C-211.64356835 57.01237866 -211.63460235 58.81869209 -211.625 60.625 C-210.66537354 60.56441406 -209.70574707 60.50382812 -208.71704102 60.44140625 C-189.33178873 59.23054193 -170.05747995 58.26717813 -150.625 58.625 C-150.295 59.615 -149.965 60.605 -149.625 61.625 C-145.995 61.625 -142.365 61.625 -138.625 61.625 C-138.625 80.105 -138.625 98.585 -138.625 117.625 C-157.75 116.5 -157.75 116.5 -164.1875 116.0625 C-166.04568359 115.93681641 -166.04568359 115.93681641 -167.94140625 115.80859375 C-168.82699219 115.74800781 -169.71257812 115.68742187 -170.625 115.625 C-170.67398438 114.635 -170.72296875 113.645 -170.7734375 112.625 C-171.18772566 102.44314099 -171.18772566 102.44314099 -173.625 92.625 C-175.3793576 90.91304174 -175.3793576 90.91304174 -177.625 90.625 C-180.06248659 90.94459218 -181.24975654 91.17947285 -182.85546875 93.0859375 C-185.73669413 98.84838826 -186.38965435 104.22359838 -186.625 110.625 C-196.35416867 111.15011255 -204.52787135 110.2377353 -213.625 106.625 C-215.33934405 104.91065595 -214.77020389 102.65909563 -214.78613281 100.31762695 C-214.79574036 99.1816658 -214.8053479 98.04570465 -214.81524658 96.87532043 C-214.8216214 95.01311104 -214.8216214 95.01311104 -214.828125 93.11328125 C-214.83382507 91.83833298 -214.83952515 90.5633847 -214.84539795 89.24980164 C-214.85593059 86.5368917 -214.86175521 83.82401151 -214.86523438 81.11108398 C-214.87065723 77.67419808 -214.89453876 74.23772094 -214.92320633 70.80096149 C-214.94662688 67.48841166 -214.94830507 64.17590934 -214.953125 60.86328125 C-214.9654718 59.64812332 -214.9778186 58.43296539 -214.99053955 57.1809845 C-214.93844167 36.7497868 -214.93844167 36.7497868 -209.74856567 30.28909302 C-206.60770034 27.82781191 -203.22793408 27.49448687 -199.3828125 26.94921875 C-198.14825821 26.75329132 -198.14825821 26.75329132 -196.88876343 26.55340576 C-195.10947348 26.27262139 -193.32902031 25.99913162 -191.54760742 25.73214722 C-186.76882523 25.01531946 -181.99852588 24.2450365 -177.2265625 23.484375 C-176.25176941 23.33064926 -175.27697632 23.17692352 -174.27264404 23.01853943 C-164.8592367 21.52692197 -155.4917118 19.82051078 -146.125 18.0625 C-143.02753507 17.48464829 -139.929791 16.90830012 -136.83203125 16.33203125 C-136.07560837 16.19112564 -135.31918549 16.05022003 -134.5398407 15.90504456 C-126.71308269 14.44975324 -118.87896336 13.03671939 -111.04052734 11.64578247 C-109.57923137 11.38620068 -108.11812369 11.12555617 -106.65722656 10.86373901 C-94.17789311 8.62879521 -94.17789311 8.62879521 -88.30078125 8.0234375 C-84.80565511 7.86042011 -84.80565511 7.86042011 -82.625 6.625 C-79.43222358 6.15633557 -76.23885494 5.7582462 -73.03515625 5.375 C-69.20908238 4.93983701 -69.20908238 4.93983701 -65.625 3.625 C-63.19615663 3.18855267 -60.77622792 2.79426429 -58.3359375 2.43359375 C-57.5998526 2.32402847 -56.8637677 2.2144632 -56.1053772 2.10157776 C-54.5370199 1.87013962 -52.96835403 1.6407847 -51.39941406 1.41333008 C-49.05620486 1.07071799 -46.71575883 0.71242867 -44.375 0.35351562 C-29.36070967 -1.87724269 -15.11723482 -1.72578751 0 0 Z " fill="#FBFBFB" transform="translate(216.625,2.375)"/>
<path d="M0 0 C1.38469482 0.01160156 1.38469482 0.01160156 2.79736328 0.0234375 C17.5300341 0.36478981 32.22076028 2.56711498 46.8125 4.5 C47.1425 3.51 47.4725 2.52 47.8125 1.5 C54.8125 16.85025381 54.8125 16.85025381 54.8125 21.5 C56.359375 21.37625 56.359375 21.37625 57.9375 21.25 C62.5615178 21.54832373 64.36231884 22.44188488 67.8125 25.5 C72.54913149 33.50327389 71.88587135 43.02546189 71.9375 52.0625 C71.94225342 52.76560303 71.94700684 53.46870605 71.9519043 54.19311523 C71.93520794 59.25458411 71.93520794 59.25458411 70.8125 61.5 C69.8225 61.5 68.8325 61.5 67.8125 61.5 C67.94527344 62.04527344 68.07804687 62.59054688 68.21484375 63.15234375 C68.47974609 64.28349609 68.47974609 64.28349609 68.75 65.4375 C69.01103516 66.53384766 69.01103516 66.53384766 69.27734375 67.65234375 C70.74422727 75.45787723 70.94319702 83.13590787 70.875 91.0625 C70.87048828 92.07119141 70.86597656 93.07988281 70.86132812 94.11914062 C70.84966769 96.57949147 70.83330378 99.03971239 70.8125 101.5 C70.4825 101.5 70.1525 101.5 69.8125 101.5 C69.8125 94.57 69.8125 87.64 69.8125 80.5 C67.8325 81.985 67.8325 81.985 65.8125 83.5 C63.79756165 83.86749268 63.79756165 83.86749268 61.64575195 83.85644531 C60.4284716 83.86094696 60.4284716 83.86094696 59.18659973 83.86553955 C58.31677963 83.85319275 57.44695953 83.84084595 56.55078125 83.828125 C55.64555222 83.82625183 54.74032318 83.82437866 53.80766296 83.82244873 C51.89200154 83.81573084 49.97635377 83.80182153 48.06079102 83.78125 C45.15302524 83.75029831 42.24580433 83.74029492 39.33789062 83.734375 C37.47134767 83.72519526 35.60481016 83.71481643 33.73828125 83.703125 C32.87858231 83.69887512 32.01888336 83.69462524 31.13313293 83.69024658 C15.80773712 83.51226666 15.80773712 83.51226666 9.5 80.25 C8.69949219 79.85296875 7.89898437 79.4559375 7.07421875 79.046875 C0.99600395 74.889754 -0.43884556 69.40230118 -2.25 62.625 C-2.51039063 61.68172852 -2.77078125 60.73845703 -3.0390625 59.76660156 C-4.74660298 53.46629203 -6.15473409 47.1559959 -7.33203125 40.734375 C-8.65439594 33.84079278 -10.47116835 27.0400073 -12.20703125 20.24121094 C-14.9504796 9.18774668 -14.9504796 9.18774668 -14.1875 4.5 C-10.28386252 -0.37756732 -5.78485948 -0.11942936 0 0 Z M56.8125 25.5 C57.4725 27.81 58.1325 30.12 58.8125 32.5 C61.11921915 29.78450846 61.11921915 29.78450846 60.4375 27.3125 C60.23125 26.714375 60.025 26.11625 59.8125 25.5 C58.8225 25.5 57.8325 25.5 56.8125 25.5 Z " fill="#000202" transform="translate(213.1875,13.5)"/>
<path d="M0 0 C0.33 0 0.66 0 1 0 C2.22882073 5.15495885 3.45552602 10.31041526 4.68041992 15.46630859 C5.09587911 17.21383681 5.51187867 18.96123666 5.9284668 20.70849609 C7.91088861 29.02464824 9.88481317 37.33660822 11.64453125 45.703125 C12.709334 50.74056038 13.87786756 55.698625 15.375 60.625 C15.55804688 61.29144531 15.74109375 61.95789063 15.9296875 62.64453125 C17.31657202 67.21577562 19.00971553 69.41552344 23 72 C31.24981663 76.28355863 39.85885643 76.15416617 48.9609375 76.1328125 C50.32951401 76.13424759 50.32951401 76.13424759 51.72573853 76.13571167 C53.63665842 76.13638728 55.5475807 76.1345766 57.45849609 76.13037109 C60.38774704 76.12497652 63.31684727 76.13035614 66.24609375 76.13671875 C68.10937534 76.13605859 69.97265683 76.13477871 71.8359375 76.1328125 C72.71091888 76.13483673 73.58590027 76.13686096 74.48739624 76.13894653 C75.298992 76.13579437 76.11058777 76.13264221 76.94677734 76.12939453 C77.65909515 76.12859894 78.37141296 76.12780334 79.10531616 76.12698364 C81.22561867 76.06483852 81.22561867 76.06483852 84 75 C84.024727 79.35994067 84.04287281 83.71984414 84.05493164 88.07983398 C84.05995903 89.56291413 84.06678185 91.04598933 84.07543945 92.52905273 C84.08757482 94.66130801 84.09324425 96.79349773 84.09765625 98.92578125 C84.10289307 100.20880127 84.10812988 101.49182129 84.11352539 102.8137207 C84 106 84 106 83 109 C80.34779616 110.32610192 78.04439529 110.36719656 75.08496094 110.63256836 C73.84317078 110.74616196 72.60138062 110.85975555 71.32196045 110.97679138 C70.65622765 111.035856 69.99049484 111.09492062 69.30458832 111.15577507 C67.21886772 111.34122255 65.13372034 111.53218767 63.04864502 111.7247467 C57.11957736 112.27136845 51.18967485 112.80858677 45.25927734 113.34057617 C41.63189723 113.66636143 38.00521221 113.99914413 34.37885284 114.336092 C32.99968234 114.46278344 31.62026001 114.58676512 30.24059296 114.70792961 C28.30401546 114.87809458 26.36829122 115.05788568 24.43261719 115.23803711 C22.78286896 115.386735 22.78286896 115.386735 21.09979248 115.53843689 C17.98267943 115.8983781 17.98267943 115.8983781 15.09796143 117.04762268 C5.03077776 120.14248284 -8.87516817 116.24429525 -18 115 C-17.67 100.15 -17.34 85.3 -17 70 C-15.09510101 72.85734849 -13.71363108 75.64962019 -12.25 78.75 C-9.09170492 85.1128091 -5.835074 91.21534022 1 94 C2.37743588 94.36921466 3.75962875 94.72093789 5.14501953 95.05908203 C7.05323486 95.52483643 7.05323486 95.52483643 9 96 C8.79762724 71.7135243 8.0356717 48.75468695 2.33203125 25.0546875 C2.04996826 23.87060303 1.76790527 22.68651855 1.47729492 21.46655273 C0.9231654 19.17209778 0.35009892 16.88210516 -0.24487305 14.59790039 C-2.6144787 5.06226245 -2.6144787 5.06226245 0 0 Z " fill="#2FDCFA" transform="translate(198,20)"/>
<path d="M0 0 C1.81951172 0.18949219 1.81951172 0.18949219 3.67578125 0.3828125 C9.21353376 0.9920262 14.10142254 1.78707273 19.375 3.625 C21.65859965 4.04634754 23.95119294 4.42159899 26.25 4.75 C27.40242187 4.91757813 28.55484375 5.08515625 29.7421875 5.2578125 C31.04542969 5.43957031 31.04542969 5.43957031 32.375 5.625 C32.375 6.285 32.375 6.945 32.375 7.625 C33.4475 7.851875 34.52 8.07875 35.625 8.3125 C39.75467666 9.75788683 41.05337311 11.00326205 43.375 14.625 C43.375 14.955 43.375 15.285 43.375 15.625 C36.32430905 15.80035397 29.66365734 15.08948594 22.6875 14.125 C14.16700411 13.04246757 5.71624439 12.25865934 -2.875 12.125 C-3.78467529 12.09470703 -4.69435059 12.06441406 -5.6315918 12.03320312 C-10.13007727 12.02978645 -12.01702613 12.15679024 -15.68359375 14.98046875 C-17.65444593 17.66511045 -18.34323538 19.33774605 -18.625 22.625 C-19.615 22.295 -20.605 21.965 -21.625 21.625 C-22.07875 20.696875 -22.5325 19.76875 -23 18.8125 C-24.83063288 15.22164319 -26.27219387 13.81956401 -29.625 11.625 C-49.7707796 8.20909345 -73.80482885 15.26653854 -93.75 18.66796875 C-95.33651367 18.93685913 -95.33651367 18.93685913 -96.95507812 19.21118164 C-99.00137363 19.55900775 -101.04700508 19.91077426 -103.09179688 20.26733398 C-108.78798998 21.23845177 -114.44180023 21.93725065 -120.20019531 22.41455078 C-123.07177433 22.66377562 -125.90356561 23.04805916 -128.75 23.5 C-129.85859375 23.6753125 -130.9671875 23.850625 -132.109375 24.03125 C-134.45663334 24.42767585 -136.80054635 24.84443532 -139.140625 25.28125 C-150.04577216 27.31216809 -161.00225757 28.75151991 -172.00537109 30.13745117 C-181.91866942 31.38827926 -191.79937596 32.78788881 -201.671875 34.32568359 C-204.65297905 34.78253779 -207.63856346 35.20454117 -210.625 35.625 C-211.75013633 43.64159634 -211.72079384 51.54638585 -211.625 59.625 C-212.285 59.625 -212.945 59.625 -213.625 59.625 C-213.625 65.895 -213.625 72.165 -213.625 78.625 C-213.955 78.625 -214.285 78.625 -214.625 78.625 C-214.7004071 74.32408854 -214.75417959 70.02354974 -214.78979492 65.72216797 C-214.80467624 64.2657194 -214.82498796 62.80931392 -214.85131836 61.35302734 C-215.26512692 37.83896454 -215.26512692 37.83896454 -210.03149414 30.3425293 C-206.69948436 27.96445394 -203.34373502 27.51090834 -199.3828125 26.94921875 C-198.14825821 26.75329132 -198.14825821 26.75329132 -196.88876343 26.55340576 C-195.10947348 26.27262139 -193.32902031 25.99913162 -191.54760742 25.73214722 C-186.76882523 25.01531946 -181.99852588 24.2450365 -177.2265625 23.484375 C-176.25176941 23.33064926 -175.27697632 23.17692352 -174.27264404 23.01853943 C-164.8592367 21.52692197 -155.4917118 19.82051078 -146.125 18.0625 C-143.02753507 17.48464829 -139.929791 16.90830012 -136.83203125 16.33203125 C-136.07560837 16.19112564 -135.31918549 16.05022003 -134.5398407 15.90504456 C-126.71308269 14.44975324 -118.87896336 13.03671939 -111.04052734 11.64578247 C-109.57923137 11.38620068 -108.11812369 11.12555617 -106.65722656 10.86373901 C-94.17789311 8.62879521 -94.17789311 8.62879521 -88.30078125 8.0234375 C-84.80565511 7.86042011 -84.80565511 7.86042011 -82.625 6.625 C-79.43222358 6.15633557 -76.23885494 5.7582462 -73.03515625 5.375 C-69.20908238 4.93983701 -69.20908238 4.93983701 -65.625 3.625 C-63.19615663 3.18855267 -60.77622792 2.79426429 -58.3359375 2.43359375 C-57.5998526 2.32402847 -56.8637677 2.2144632 -56.1053772 2.10157776 C-54.5370199 1.87013962 -52.96835403 1.6407847 -51.39941406 1.41333008 C-49.05620486 1.07071799 -46.71575883 0.71242867 -44.375 0.35351562 C-29.36070967 -1.87724269 -15.11723482 -1.72578751 0 0 Z " fill="#A3E5F1" transform="translate(216.625,2.375)"/>
<path d="M0 0 C2.49433501 2.49433501 4.04232121 4.50026075 5.875 7.4375 C10.44092035 14.33661681 15.50789846 16.86897249 23 20 C23 25.94 23 31.88 23 38 C14 38 14 38 0 36 C0 24.12 0 12.24 0 0 Z " fill="#73E7FB" transform="translate(183,97)"/>
<path d="M0 0 C2.375 2.1875 2.375 2.1875 4 4 C3.67 4.99 3.34 5.98 3 7 C2.46375 6.21625 1.9275 5.4325 1.375 4.625 C-1.30242842 1.66573701 -3.18433025 0.95391744 -7 0 C-7 -0.66 -7 -1.32 -7 -2 C-8.30324219 -2.07347656 -8.30324219 -2.07347656 -9.6328125 -2.1484375 C-10.78523437 -2.22320313 -11.93765625 -2.29796875 -13.125 -2.375 C-14.26195312 -2.44460937 -15.39890625 -2.51421875 -16.5703125 -2.5859375 C-20 -3 -20 -3 -22.83007812 -3.97265625 C-28.21148783 -5.71672372 -33.76792462 -6.04105379 -39.375 -6.625 C-41.13650391 -6.82609375 -41.13650391 -6.82609375 -42.93359375 -7.03125 C-57.55120608 -8.59003782 -71.25150977 -8.18917604 -85.72119141 -5.97363281 C-88.02472225 -5.62121777 -90.33027378 -5.28588357 -92.63671875 -4.953125 C-94.13295569 -4.7327408 -95.62905518 -4.51142092 -97.125 -4.2890625 C-98.13614868 -4.14049301 -98.13614868 -4.14049301 -99.16772461 -3.98892212 C-103.87238646 -3.26377352 -108.39551154 -2.18155566 -113 -1 C-114.61967 -0.77097961 -116.24490892 -0.57382434 -117.875 -0.4375 C-120.31086631 -0.22956019 -121.80228469 -0.09885766 -124 1 C-125.42746052 1.26582577 -126.86292677 1.48921482 -128.30078125 1.69140625 C-129.2338208 1.82708008 -130.16686035 1.96275391 -131.12817383 2.10253906 C-132.70441528 2.33021973 -132.70441528 2.33021973 -134.3125 2.5625 C-146.68548694 4.40992621 -158.99875343 6.54525701 -171.3125 8.75 C-172.25777557 8.91912903 -173.20305115 9.08825806 -174.17697144 9.26251221 C-179.08561321 10.14134227 -183.99384258 11.02245025 -188.90185547 11.90478516 C-198.23053162 13.58129469 -207.56150606 15.24489904 -216.89291382 16.90612793 C-219.81855248 17.42744173 -222.74388564 17.9504438 -225.66918945 18.47363281 C-227.4643437 18.79368584 -229.25950912 19.11367615 -231.0546875 19.43359375 C-231.85999405 19.57802414 -232.6653006 19.72245453 -233.49501038 19.8712616 C-234.25188644 20.00583267 -235.00876251 20.14040375 -235.78857422 20.27905273 C-236.85757965 20.47094681 -236.85757965 20.47094681 -237.94818115 20.66671753 C-239.91240511 20.98577173 -241.89270134 21.20063255 -243.87158203 21.41040039 C-247.29544226 22.05568074 -247.95975421 22.31122091 -250 25 C-253.04154773 34.24421325 -253.41552043 43.6308722 -253.29296875 53.2734375 C-253.28872391 54.56319489 -253.28447906 55.85295227 -253.28010559 57.18179321 C-253.26882329 60.55853764 -253.23950692 63.93487526 -253.20599365 67.3114624 C-253.17492707 70.77789817 -253.16152334 74.24440171 -253.14648438 77.7109375 C-253.11461504 84.47412212 -253.06362908 91.23704137 -253 98 C-250.92489117 98.65810739 -248.84815801 99.31109451 -246.77075195 99.96191406 C-245.61444778 100.32609436 -244.45814362 100.69027466 -243.26679993 101.06549072 C-239.44685824 102.15823317 -236.14788665 102.58998438 -232.1875 102.75 C-230.41439453 102.83507812 -230.41439453 102.83507812 -228.60546875 102.921875 C-227.74566406 102.94765625 -226.88585937 102.9734375 -226 103 C-226 99.37 -226 95.74 -226 92 C-225.67 92 -225.34 92 -225 92 C-225 95.96 -225 99.92 -225 104 C-227.54361686 104.13857477 -230.07929928 104.23569006 -232.625 104.3125 C-233.31851563 104.35439453 -234.01203125 104.39628906 -234.7265625 104.43945312 C-240.00891704 104.55736282 -244.40437826 103.31177013 -249.31787109 101.46948242 C-249.96265915 101.23320885 -250.6074472 100.99693527 -251.27177429 100.75350189 C-252.84983204 100.17437508 -254.42519981 99.58792729 -256 99 C-255.91506735 91.25367696 -255.8199872 83.50754776 -255.71247292 75.76150894 C-255.66284026 72.1634724 -255.61651185 68.56546064 -255.578125 64.96728516 C-255.54084917 61.48525904 -255.49438452 58.00345877 -255.44193649 54.52162933 C-255.41478777 52.56782014 -255.39679754 50.61389043 -255.37905884 48.65997314 C-255.0391779 27.78511656 -255.0391779 27.78511656 -249.49821341 21.35566604 C-247.00189727 19.09686166 -244.47256533 18.74855715 -241.20629883 18.18424988 C-240.53585195 18.06140588 -239.86540506 17.93856187 -239.17464161 17.81199533 C-236.9389191 17.40853321 -234.69882162 17.04072968 -232.45703125 16.67260742 C-230.84828674 16.38976796 -229.23992601 16.10473817 -227.63192749 15.81768799 C-223.27203427 15.04575893 -218.90741807 14.30450764 -214.54131699 13.56862426 C-209.97079507 12.79288063 -205.40525429 11.98886266 -200.83911133 11.18782043 C-192.1893884 9.67479102 -183.53552378 8.18700249 -174.87986851 6.70833236 C-165.0453403 5.02706921 -155.21561545 3.31853537 -145.38626289 1.60731351 C-133.40675704 -0.47806746 -121.42659504 -2.55949429 -109.44262695 -4.61909485 C-108.59542084 -4.76472126 -107.74821472 -4.91034768 -106.87533569 -5.06038702 C-102.90848854 -5.74201177 -98.94147439 -6.42264493 -94.97421265 -7.10185242 C-93.58070718 -7.34094809 -92.18720326 -7.58005277 -90.79370117 -7.81916809 C-89.59541183 -8.02430936 -88.3971225 -8.22945063 -87.16252136 -8.4408083 C-85.18661491 -8.79018475 -83.21428161 -9.16127421 -81.248703 -9.56472301 C-58.83363546 -13.90356323 -20.22674141 -11.81716886 0 0 Z " fill="#262626" transform="translate(256,10)"/>
<path d="M0 0 C1.22589844 0.01353516 1.22589844 0.01353516 2.4765625 0.02734375 C3.41628906 0.04474609 3.41628906 0.04474609 4.375 0.0625 C4.66375 0.70574219 4.9525 1.34898438 5.25 2.01171875 C6.18686241 4.23121396 6.18686241 4.23121396 8.375 4.875 C10.375 6.0625 10.375 6.0625 11.5625 9 C13.64638657 17.94411491 14.16751547 27.94185582 13.375 37.0625 C11.375 39.0625 11.375 39.0625 7.9375 39.3125 C4.375 39.0625 4.375 39.0625 1.375 37.0625 C0.40771484 34.17675781 0.40771484 34.17675781 -0.4140625 30.515625 C-0.5628183 29.86680359 -0.7115741 29.21798218 -0.86483765 28.54949951 C-1.33786398 26.47286996 -1.79388947 24.39290289 -2.25 22.3125 C-2.56403941 20.92684159 -2.87913206 19.54142144 -3.1953125 18.15625 C-4.4805761 12.47796136 -5.71453905 6.81520745 -6.625 1.0625 C-4.21954362 -0.14022819 -2.67503047 -0.03821472 0 0 Z " fill="#080808" transform="translate(208.625,34.9375)"/>
<path d="M0 0 C3 0.25 3 0.25 5 2.25 C5.484375 5.078125 5.484375 5.078125 5.75 8.5 C5.84796875 9.61890625 5.9459375 10.7378125 6.046875 11.890625 C5.98293069 16.47330022 5.28896415 19.96103585 2 23.25 C-0.625 23.375 -0.625 23.375 -3 23.25 C-6.71424615 17.79470097 -7.84008598 13.8347916 -7 7.25 C-5.72117485 2.95680129 -4.77677483 0.39806457 0 0 Z " fill="#6899B8" transform="translate(149,110.75)"/>
<path d="M0 0 C1.52657227 0.07033447 1.52657227 0.07033447 3.08398438 0.14208984 C42.45091662 2.12584426 42.45091662 2.12584426 53.375 12.1875 C54.179375 13.0846875 54.179375 13.0846875 55 14 C54.67 14.99 54.34 15.98 54 17 C53.46375 16.21625 52.9275 15.4325 52.375 14.625 C49.69757158 11.66573701 47.81566975 10.95391744 44 10 C44 9.34 44 8.68 44 8 C42.69675781 7.92652344 42.69675781 7.92652344 41.3671875 7.8515625 C40.21476562 7.77679687 39.06234375 7.70203125 37.875 7.625 C36.73804688 7.55539063 35.60109375 7.48578125 34.4296875 7.4140625 C31 7 31 7 28.16992188 6.02734375 C22.78851217 4.28327628 17.23207538 3.95894621 11.625 3.375 C10.45066406 3.2409375 9.27632813 3.106875 8.06640625 2.96875 C-6.55120608 1.40996218 -20.25150977 1.81082396 -34.72119141 4.02636719 C-37.02472225 4.37878223 -39.33027378 4.71411643 -41.63671875 5.046875 C-43.13295569 5.2672592 -44.62905518 5.48857908 -46.125 5.7109375 C-47.13614868 5.85950699 -47.13614868 5.85950699 -48.16772461 6.01107788 C-52.87235381 6.73622145 -57.39616523 7.81578015 -62 9 C-63.5360176 9.22922109 -65.0779538 9.42633676 -66.625 9.5625 C-70.11531657 9.90124823 -73.54621249 10.38008942 -77 11 C-73.89734847 8.93156564 -71.88843898 8.3654716 -68.28515625 7.57421875 C-67.12000488 7.31817871 -65.95485352 7.06213867 -64.75439453 6.79833984 C-63.51544434 6.5348877 -62.27649414 6.27143555 -61 6 C-59.77780762 5.73525879 -58.55561523 5.47051758 -57.29638672 5.19775391 C-38.02953005 1.12554792 -19.77443327 -1.04408526 0 0 Z " fill="#1C3A40" transform="translate(205,0)"/>
<path d="M0 0 C3.35352186 5.03028279 3.08709118 9.36075757 2.87890625 15.265625 C2.85529526 16.05902283 2.83168427 16.85242065 2.80735779 17.66986084 C2.73096071 20.19676683 2.64683387 22.72334767 2.5625 25.25 C2.5092553 26.96613008 2.45651507 28.68227588 2.40429688 30.3984375 C2.27537813 34.59916311 2.13952774 38.79961392 2 43 C2.9482666 43.06566162 3.8965332 43.13132324 4.87353516 43.19897461 C6.74984619 43.33057983 6.74984619 43.33057983 8.6640625 43.46484375 C9.9010791 43.55113037 11.1380957 43.63741699 12.41259766 43.72631836 C16.62536053 44.04770853 20.80588087 44.49381321 25 45 C25 39.06 25 33.12 25 27 C23.35 26.67 21.7 26.34 20 26 C23.75 24.875 23.75 24.875 26 26 C26 19.73 26 13.46 26 7 C26.33 7 26.66 7 27 7 C27 20.2 27 33.4 27 47 C27.66 47.33 28.32 47.66 29 48 C18.95012438 48 8.95771995 46.3578709 -1 45 C-0.67 30.15 -0.34 15.3 0 0 Z " fill="#317582" transform="translate(181,90)"/>
<path d="M0 0 C1 1 1 1 1.09765625 3.28515625 C1.08605469 4.20167969 1.07445312 5.11820312 1.0625 6.0625 C1.05347656 6.98160156 1.04445313 7.90070313 1.03515625 8.84765625 C1.02355469 9.55792969 1.01195312 10.26820312 1 11 C-1.7705904 11.33546608 -4.54143964 11.66845842 -7.3125 12 C-8.09818359 12.09539062 -8.88386719 12.19078125 -9.69335938 12.2890625 C-10.8293457 12.42441406 -10.8293457 12.42441406 -11.98828125 12.5625 C-12.68477783 12.64628906 -13.38127441 12.73007813 -14.09887695 12.81640625 C-16 13 -16 13 -19 13 C-18.4023326 9.45384009 -17.04105426 7.49867649 -14.6875 4.8125 C-14.09324219 4.11769531 -13.49898438 3.42289062 -12.88671875 2.70703125 C-9.13026833 -0.69166199 -4.88132427 -0.18420092 0 0 Z " fill="#0BD6FA" transform="translate(272,110)"/>
<path d="M0 0 C1.22589844 0.01353516 1.22589844 0.01353516 2.4765625 0.02734375 C3.41628906 0.04474609 3.41628906 0.04474609 4.375 0.0625 C4.66117188 0.69671875 4.94734375 1.3309375 5.2421875 1.984375 C6.60155542 4.47811201 7.78580309 5.02682124 10.375 6.0625 C10.045 7.0525 9.715 8.0425 9.375 9.0625 C8.715 8.0725 8.055 7.0825 7.375 6.0625 C4.30943402 5.32906572 4.30943402 5.32906572 1.375 5.0625 C1.45616856 9.27160555 1.56899046 13.4792933 1.6875 17.6875 C1.71005859 18.87730469 1.73261719 20.06710938 1.75585938 21.29296875 C1.8543134 29.69994472 1.8543134 29.69994472 5.375 37.0625 C8.46461458 38.03724816 8.46461458 38.03724816 11.375 38.0625 C11.375 38.3925 11.375 38.7225 11.375 39.0625 C4.75 39.3125 4.75 39.3125 1.375 37.0625 C0.40771484 34.17675781 0.40771484 34.17675781 -0.4140625 30.515625 C-0.5628183 29.86680359 -0.7115741 29.21798218 -0.86483765 28.54949951 C-1.33786398 26.47286996 -1.79388947 24.39290289 -2.25 22.3125 C-2.56403941 20.92684159 -2.87913206 19.54142144 -3.1953125 18.15625 C-4.4805761 12.47796136 -5.71453905 6.81520745 -6.625 1.0625 C-4.21954362 -0.14022819 -2.67503047 -0.03821472 0 0 Z " fill="#131617" transform="translate(208.625,34.9375)"/>
<path d="M0 0 C1.27617187 0.00483398 1.27617187 0.00483398 2.578125 0.00976562 C3.46757812 0.01814453 4.35703125 0.02652344 5.2734375 0.03515625 C6.170625 0.03966797 7.0678125 0.04417969 7.9921875 0.04882812 C10.21100398 0.06063034 12.42968768 0.0770947 14.6484375 0.09765625 C14.6484375 2.73765625 14.6484375 5.37765625 14.6484375 8.09765625 C12.0858657 8.12475748 9.52358385 8.14454396 6.9609375 8.16015625 C5.8790918 8.17272461 5.8790918 8.17272461 4.77539062 8.18554688 C0.93288368 8.20309257 -2.61795776 8.03289846 -6.3515625 7.09765625 C-6.3515625 5.11765625 -6.3515625 3.13765625 -6.3515625 1.09765625 C-4.00303722 -0.07660639 -2.61382185 -0.01742548 0 0 Z " fill="#B4CF53" transform="translate(219.3515625,111.90234375)"/>
<path d="M0 0 C0 0.66 0 1.32 0 2 C-4.81904746 4.40952373 -11.38570398 4.0155227 -16.75 4.5 C-17.47798798 4.56692047 -18.20597595 4.63384094 -18.95602417 4.70278931 C-34.29157213 6.09738807 -49.60635193 6.69499176 -65 7 C-61.90684299 4.93789533 -60.72696525 4.66220865 -57.15234375 4.31396484 C-56.1670166 4.21401215 -55.18168945 4.11405945 -54.16650391 4.01107788 C-53.10093262 3.91203156 -52.03536133 3.81298523 -50.9375 3.7109375 C-49.83583496 3.60278717 -48.73416992 3.49463684 -47.59912109 3.38320923 C-45.26259696 3.15572838 -42.92566519 2.93240234 -40.58837891 2.71289062 C-37.04090581 2.37885179 -33.49508068 2.03037171 -29.94921875 1.6796875 C-27.67456291 1.46006846 -25.3998255 1.24129223 -23.125 1.0234375 C-22.07562256 0.92034271 -21.02624512 0.81724792 -19.94506836 0.71102905 C-13.27642658 0.09303794 -6.69606433 -0.12168095 0 0 Z " fill="#003A6F" transform="translate(278,130)"/>
<path d="M0 0 C0.33 0 0.66 0 1 0 C2.31187128 5.3357293 3.61158977 10.67421731 4.90014648 16.015625 C5.34017687 17.83218983 5.7835144 19.64795688 6.23022461 21.46289062 C6.87184359 24.07218871 7.5015044 26.68412704 8.12890625 29.296875 C8.33093155 30.10743347 8.53295685 30.91799194 8.74110413 31.75311279 C9.01149757 32.89384247 9.01149757 32.89384247 9.28735352 34.05761719 C9.44945816 34.72380066 9.61156281 35.38998413 9.77857971 36.07635498 C10.03299701 38.28666987 9.65557159 39.8888416 9 42 C9 41.01 9 40.02 9 39 C8.34 39 7.68 39 7 39 C6.67 39.99 6.34 40.98 6 42 C4.80350115 36.98751628 3.62826707 31.97068635 2.47216797 26.94873047 C2.07623593 25.24230547 1.67460228 23.53719268 1.26708984 21.83349609 C0.68110508 19.37923715 0.11602963 16.92093407 -0.4453125 14.4609375 C-0.63062531 13.70444916 -0.81593811 12.94796082 -1.00686646 12.16854858 C-2.05076552 7.47838007 -2.01558559 4.53977688 0 0 Z " fill="#64D7EB" transform="translate(198,20)"/>
<path d="M0 0 C6 1 6 1 9 3 C10.21774125 8.86187207 8.6461404 13.81797506 6 19 C4.68 19 3.36 19 2 19 C1.34 12.73 0.68 6.46 0 0 Z " fill="#62E4FC" transform="translate(220,93)"/>
<path d="M0 0 C1.41282737 0.0039948 2.82565554 0.01876687 4.23828125 0.04296875 C4.93373047 0.04361328 5.62917969 0.04425781 6.34570312 0.04492188 C10.83586083 0.08265429 15.12013059 0.50460855 19.55078125 1.23046875 C19.55078125 1.56046875 19.55078125 1.89046875 19.55078125 2.23046875 C14.09308314 2.34185034 8.93568766 2.14704856 3.55078125 1.23046875 C4.03289062 1.77316406 4.515 2.31585938 5.01171875 2.875 C5.64335937 3.59042969 6.275 4.30585937 6.92578125 5.04296875 C7.55226562 5.75066406 8.17875 6.45835938 8.82421875 7.1875 C10.55078125 9.23046875 10.55078125 9.23046875 12.55078125 12.23046875 C10.90078125 12.89046875 9.25078125 13.55046875 7.55078125 14.23046875 C7.19886719 13.699375 6.84695312 13.16828125 6.484375 12.62109375 C2.99628408 7.63030047 0.04314035 4.86680112 -5.44921875 2.23046875 C-3.44921875 0.23046875 -3.44921875 0.23046875 0 0 Z " fill="#7CDFF1" transform="translate(189.44921875,0.76953125)"/>
<path d="M0 0 C3.53571429 0.53571429 3.53571429 0.53571429 5 2 C5.12487758 3.80927281 5.17570846 5.62396107 5.1875 7.4375 C5.20167969 8.42621094 5.21585938 9.41492188 5.23046875 10.43359375 C5 13 5 13 3 15 C-0.53571429 14.46428571 -0.53571429 14.46428571 -2 13 C-2.12487758 11.19072719 -2.17570846 9.37603893 -2.1875 7.5625 C-2.20167969 6.57378906 -2.21585938 5.58507812 -2.23046875 4.56640625 C-2 2 -2 2 0 0 Z " fill="#699AB9" transform="translate(37,102)"/>
<path d="M0 0 C1.26895162 2.53790324 1.1588277 4.39558591 1.2109375 7.234375 C1.23929688 8.28367187 1.26765625 9.33296875 1.296875 10.4140625 C1.34858862 12.62223408 1.39296707 14.83059071 1.4296875 17.0390625 C1.5937931 24.96562438 1.5937931 24.96562438 5 32 C8.08961458 32.97474816 8.08961458 32.97474816 11 33 C11 33.33 11 33.66 11 34 C4.375 34.25 4.375 34.25 1 32 C0.08721444 29.15791769 -0.63426034 26.46950732 -1.25 23.5625 C-1.42547363 22.75224365 -1.60094727 21.9419873 -1.78173828 21.10717773 C-3.00889248 14.9902954 -3.64241277 9.11856589 -2 3 C-1.34 2.01 -0.68 1.02 0 0 Z " fill="#2B3436" transform="translate(209,40)"/>
<path d="M0 0 C0 0.66 0 1.32 0 2 C-4.62 2.33 -9.24 2.66 -14 3 C-14.01981934 4.37776611 -14.03963867 5.75553223 -14.06005859 7.17504883 C-14.13604788 12.27972908 -14.22477559 17.38412178 -14.31738281 22.48852539 C-14.35570017 24.69907968 -14.39054814 26.90969692 -14.421875 29.12036133 C-14.46746552 32.29531371 -14.52547003 35.46983172 -14.5859375 38.64453125 C-14.59748871 39.63524124 -14.60903992 40.62595123 -14.62094116 41.64668274 C-14.64081085 42.56741074 -14.66068054 43.48813873 -14.68115234 44.43676758 C-14.69447601 45.2472908 -14.70779968 46.05781403 -14.7215271 46.89289856 C-15 49 -15 49 -17 52 C-16.67 35.17 -16.34 18.34 -16 1 C-4.75 -0.125 -4.75 -0.125 0 0 Z " fill="#818383" transform="translate(197,37)"/>
<path d="M0 0 C2.98425468 4.47638202 3.12150669 7.6198184 2.9140625 12.9453125 C2.87023437 14.10546875 2.82640625 15.265625 2.78125 16.4609375 C2.7296875 17.67007813 2.678125 18.87921875 2.625 20.125 C2.58117187 21.3109375 2.53734375 22.496875 2.4921875 23.71875 C2.22229831 30.51096137 1.78180769 37.24696629 1 44 C0.67 44 0.34 44 0 44 C0 29.48 0 14.96 0 0 Z " fill="#3F7079" transform="translate(181,90)"/>
<path d="M0 0 C0 0.33 0 0.66 0 1 C-5.62298358 1.31082392 -11.24631582 1.61376429 -16.87011719 1.90942383 C-18.7829939 2.01110013 -20.69575766 2.11492541 -22.60839844 2.22094727 C-25.35845461 2.37301423 -28.1088251 2.51733477 -30.859375 2.66015625 C-31.71368103 2.70906509 -32.56798706 2.75797394 -33.44818115 2.80836487 C-34.64897308 2.86854042 -34.64897308 2.86854042 -35.87402344 2.92993164 C-36.92659332 2.98655724 -36.92659332 2.98655724 -38.00042725 3.04432678 C-40.13562088 2.99699354 -41.95390655 2.59238359 -44 2 C-29.7003994 -0.65379975 -14.42744046 -2.7091766 0 0 Z " fill="#09446F" transform="translate(257,134)"/>
<path d="M0 0 C2.98517617 2.98517617 3.09935776 6.01646062 3.31640625 10.109375 C3.37924805 11.24052734 3.37924805 11.24052734 3.44335938 12.39453125 C3.48267578 13.17183594 3.52199219 13.94914062 3.5625 14.75 C3.60568359 15.54277344 3.64886719 16.33554688 3.69335938 17.15234375 C3.79902991 19.10137815 3.89997966 21.05066748 4 23 C3.34 23 2.68 23 2 23 C1.731875 23.763125 1.46375 24.52625 1.1875 25.3125 C0.02271111 27.94860118 -0.65997402 29.35331505 -3 31 C-5.6875 31.1875 -5.6875 31.1875 -8 31 C-5.66666667 28.66666667 -3.33333333 26.33333333 -1 24 C-0.00051208 21.04924354 0.11752401 18.33374481 0.09765625 15.234375 C0.09443359 14.34492187 0.09121094 13.45546875 0.08789062 12.5390625 C0.07951172 11.61867188 0.07113281 10.69828125 0.0625 9.75 C0.05798828 8.81414062 0.05347656 7.87828125 0.04882812 6.9140625 C0.03706918 4.60930959 0.02063426 2.30468773 0 0 Z " fill="#334143" transform="translate(159,110)"/>
<path d="M0 0 C0.33 0.66 0.66 1.32 1 2 C-0.98 2.33 -2.96 2.66 -5 3 C-4.25492188 3.01417969 -3.50984375 3.02835938 -2.7421875 3.04296875 C0 4 0 4 2.0546875 7.23828125 C2.68087821 8.58750995 3.28705665 9.94617079 3.875 11.3125 C4.1946875 11.98990234 4.514375 12.66730469 4.84375 13.36523438 C6.49621675 17.04017674 7.2501519 19.16989326 6 23 C5.62230469 21.97519531 5.24460937 20.95039062 4.85546875 19.89453125 C1.17069144 10.36165562 1.17069144 10.36165562 -6.9375 4.5625 C-8.60790799 3.98921058 -10.291701 3.4479265 -12 3 C-8.96474514 0.97649676 -7.80573798 0.67875982 -4.3125 0.375 C-3.50425781 0.30023437 -2.69601562 0.22546875 -1.86328125 0.1484375 C-0.94095703 0.07496094 -0.94095703 0.07496094 0 0 Z " fill="#515151" transform="translate(260,17)"/>
<path d="M0 0 C0.94875 0.04125 1.8975 0.0825 2.875 0.125 C3.535 1.445 4.195 2.765 4.875 4.125 C3.885 3.465 2.895 2.805 1.875 2.125 C-1.43586259 2.40774138 -1.43586259 2.40774138 -4.125 4.125 C-4.25069503 6.2471998 -4.30076773 8.37411345 -4.3125 10.5 C-4.32667969 11.66273437 -4.34085938 12.82546875 -4.35546875 14.0234375 C-4.36799973 17.29297789 -4.36799973 17.29297789 -2.125 20.125 C1.48492379 19.46914811 1.48492379 19.46914811 4.875 18.125 C3 22 3 22 1.875 23.125 C0.20882885 23.16563832 -1.45888095 23.167721 -3.125 23.125 C-6.83924615 17.66970097 -7.96508598 13.7097916 -7.125 7.125 C-5.82132018 2.74836061 -4.89945313 0.19597813 0 0 Z " fill="#31506C" transform="translate(149.125,110.875)"/>
<path d="M0 0 C1.65 0 3.3 0 5 0 C5 5.28 5 10.56 5 16 C4.67 16 4.34 16 4 16 C4 13.69 4 11.38 4 9 C2.35 9 0.7 9 -1 9 C-0.67 6.03 -0.34 3.06 0 0 Z " fill="#29887E" transform="translate(277,110)"/>
<path d="M0 0 C3.78903708 0.25260247 5.54186593 2.27849443 8 5 C7.67 5.99 7.34 6.98 7 8 C6.01 7.34 5.02 6.68 4 6 C1.93089407 5.97250522 1.93089407 5.97250522 -0.1875 6.375 C-2.0746875 6.684375 -2.0746875 6.684375 -4 7 C-2.92598892 4.08482708 -2.22189824 2.22189824 0 0 Z " fill="#161616" transform="translate(36,92)"/>
<path d="M0 0 C0.33 0 0.66 0 1 0 C1 2.97 1 5.94 1 9 C1.96421875 9.04898438 2.9284375 9.09796875 3.921875 9.1484375 C5.18515625 9.22320312 6.4484375 9.29796875 7.75 9.375 C9.00296875 9.44460937 10.2559375 9.51421875 11.546875 9.5859375 C14.60998121 9.95323304 16.41974266 10.39711286 19 12 C16.4374282 12.02710123 13.87514635 12.04688771 11.3125 12.0625 C10.2306543 12.07506836 10.2306543 12.07506836 9.12695312 12.08789062 C5.28444618 12.10543632 1.73360474 11.93524221 -2 11 C-1.34 10.67 -0.68 10.34 0 10 C0 6.7 0 3.4 0 0 Z " fill="#2D565D" transform="translate(182,124)"/>
<path d="M0 0 C1 1 1 1 1.09765625 3.28515625 C1.08605469 4.20167969 1.07445312 5.11820312 1.0625 6.0625 C1.05347656 6.98160156 1.04445313 7.90070313 1.03515625 8.84765625 C1.02355469 9.55792969 1.01195312 10.26820312 1 11 C-1.97 11 -4.94 11 -8 11 C-8 10.67 -8 10.34 -8 10 C-5.69 10 -3.38 10 -1 10 C-1 7.36 -1 4.72 -1 2 C-2.43836751 2.11458693 -3.87570966 2.24209116 -5.3125 2.375 C-6.51326172 2.47941406 -6.51326172 2.47941406 -7.73828125 2.5859375 C-10.27224441 2.89564426 -10.27224441 2.89564426 -13 5 C-11.54545455 1.24242424 -11.54545455 1.24242424 -9.3125 0.25 C-6.18416494 -0.08819839 -3.14304886 -0.11860562 0 0 Z " fill="#049FBB" transform="translate(272,110)"/>
<path d="M0 0 C2.41346327 4.1373656 4.5081809 9.45467653 3.55078125 14.25 C3.36902344 14.8275 3.18726563 15.405 3 16 C3 15.01 3 14.02 3 13 C2.34 13 1.68 13 1 13 C0.67 13.99 0.34 14.98 0 16 C-0.66 12.04 -1.32 8.08 -2 4 C-1.34 4 -0.68 4 0 4 C0 2.68 0 1.36 0 0 Z " fill="#56C7DB" transform="translate(204,46)"/>
<path d="M0 0 C3.25696479 0.41755959 4.63443291 0.63443291 7 3 C8.33195232 6.59627125 8.20676409 10.20932507 8 14 C7.01 15.485 7.01 15.485 6 17 C5.67 12.71 5.34 8.42 5 4 C1.24020355 2.63716826 1.24020355 2.63716826 -1.25 3.9375 C-1.8275 4.288125 -2.405 4.63875 -3 5 C-1.125 1.125 -1.125 1.125 0 0 Z " fill="#4E82A4" transform="translate(147,112)"/>
<path d="M0 0 C3.77275246 0.26321529 5.68665262 0.75223695 8.6875 3.125 C11.29609529 6.36811846 12.55494922 9.12117949 14 13 C9.79236776 11.4972742 8.1972242 8.76667005 6 5 C6 4.34 6 3.68 6 3 C4.02 2.34 2.04 1.68 0 1 C0 0.67 0 0.34 0 0 Z " fill="#B6F2FD" transform="translate(148,92)"/>
<path d="M0 0 C5.28 0 10.56 0 16 0 C16.33 0.99 16.66 1.98 17 3 C12.71 3 8.42 3 4 3 C4 2.34 4 1.68 4 1 C2.68 0.67 1.36 0.34 0 0 Z " fill="#D4D4D4" transform="translate(62,60)"/>
<path d="M0 0 C0.144375 0.763125 0.28875 1.52625 0.4375 2.3125 C0.9632594 5.08172908 0.9632594 5.08172908 2 8 C0.68 8.99 -0.64 9.98 -2 11 C-4.15502531 7.76746204 -4.46856135 6.74849077 -4 3 C-1.62068966 0 -1.62068966 0 0 0 Z " fill="#789DBC" transform="translate(150,116)"/>
<path d="M0 0 C1.32 1.32 2.64 2.64 4 4 C3.67 4.99 3.34 5.98 3 7 C2.34 7 1.68 7 1 7 C0.38125 6.2575 0.38125 6.2575 -0.25 5.5 C-2.78617242 3.32613792 -4.75327769 3.79707986 -8 4 C-8.99 4 -9.98 4 -11 4 C-9.4375 2.4375 -9.4375 2.4375 -7 1 C-3.25 1.3125 -3.25 1.3125 0 2 C0 1.34 0 0.68 0 0 Z " fill="#282D2E" transform="translate(154,102)"/>
<path d="M0 0 C0 0.99 0 1.98 0 3 C-1.89575251 3.02721176 -3.79161979 3.04649136 -5.6875 3.0625 C-7.27111328 3.07990234 -7.27111328 3.07990234 -8.88671875 3.09765625 C-11.72410262 3.00865425 -14.2438919 2.64939838 -17 2 C-17 1.67 -17 1.34 -17 1 C-5.47835991 -0.14806378 -5.47835991 -0.14806378 0 0 Z " fill="#055480" transform="translate(263,131)"/>
<path d="M0 0 C3.53571429 0.53571429 3.53571429 0.53571429 5 2 C5.07226502 3.85287502 5.0838122 5.70833878 5.0625 7.5625 C5.05347656 8.57441406 5.04445313 9.58632812 5.03515625 10.62890625 C5.02355469 11.41136719 5.01195312 12.19382812 5 13 C4.67 13 4.34 13 4 13 C3.67 9.7 3.34 6.4 3 3 C1.68 3 0.36 3 -1 3 C-1 6.3 -1 9.6 -1 13 C-1.33 13 -1.66 13 -2 13 C-2.05391993 11.20866022 -2.09275571 9.41686101 -2.125 7.625 C-2.14820313 6.62726563 -2.17140625 5.62953125 -2.1953125 4.6015625 C-2 2 -2 2 0 0 Z " fill="#4A7692" transform="translate(37,102)"/>
<path d="M0 0 C0.33 0 0.66 0 1 0 C1.12375 1.0725 1.2475 2.145 1.375 3.25 C1.90748507 6.44491044 2.51842728 8.23439759 4 11 C4 11.99 4 12.98 4 14 C4.99 14.33 5.98 14.66 7 15 C4.625 14.6875 4.625 14.6875 2 14 C-0.28062828 10.57905758 -0.21925007 9.31812778 -0.125 5.3125 C-0.10695312 4.31863281 -0.08890625 3.32476562 -0.0703125 2.30078125 C-0.04710937 1.54152344 -0.02390625 0.78226562 0 0 Z " fill="#5F94B4" transform="translate(144,117)"/>
<path d="M0 0 C1.32 0.33 2.64 0.66 4 1 C3.34 4.3 2.68 7.6 2 11 C0 9 0 9 -0.1953125 6.8359375 C-0.17210937 6.02382812 -0.14890625 5.21171875 -0.125 4.375 C-0.10695312 3.55773437 -0.08890625 2.74046875 -0.0703125 1.8984375 C-0.04710937 1.27195312 -0.02390625 0.64546875 0 0 Z " fill="#5CE5FE" transform="translate(222,121)"/>
<path d="M0 0 C0.66 0.33 1.32 0.66 2 1 C-1.08290155 5.22797927 -1.08290155 5.22797927 -3 7 C-5.8125 7.375 -5.8125 7.375 -8 7 C-5.42215154 4.35247996 -3.08351902 2.05567935 0 0 Z " fill="#272727" transform="translate(159,134)"/>
<path d="M0 0 C0.33 0.66 0.66 1.32 1 2 C0.030625 2.12375 -0.93875 2.2475 -1.9375 2.375 C-2.948125 2.58125 -3.95875 2.7875 -5 3 C-5.33 3.66 -5.66 4.32 -6 5 C-7.98 4.34 -9.96 3.68 -12 3 C-8.96474514 0.97649676 -7.80573798 0.67875982 -4.3125 0.375 C-3.50425781 0.30023437 -2.69601562 0.22546875 -1.86328125 0.1484375 C-0.94095703 0.07496094 -0.94095703 0.07496094 0 0 Z " fill="#1B4047" transform="translate(260,17)"/>
<path d="M0 0 C0 3 0 3 -2 6 C-0.35 6 1.3 6 3 6 C3 6.33 3 6.66 3 7 C0.36 7.33 -2.28 7.66 -5 8 C-4.45773019 4.20411134 -2.79872437 2.52788007 0 0 Z " fill="#12ADC8" transform="translate(258,115)"/>
<path d="M0 0 C0.99 0.33 1.98 0.66 3 1 C3 3.64 3 6.28 3 9 C2.34 9 1.68 9 1 9 C-0.4783226 6.04335481 -0.06032783 3.25770263 0 0 Z " fill="#60D8ED" transform="translate(201,41)"/>
<path d="M0 0 C3.63 0 7.26 0 11 0 C11 0.66 11 1.32 11 2 C9.02 2.33 7.04 2.66 5 3 C5 2.34 5 1.68 5 1 C3.35 1 1.7 1 0 1 C0 0.67 0 0.34 0 0 Z " fill="#004B75" transform="translate(267,130)"/>
<path d="M0 0 C0.33 0 0.66 0 1 0 C1.33 2.97 1.66 5.94 2 9 C1.01 9.66 0.02 10.32 -1 11 C-1.33 8.69 -1.66 6.38 -2 4 C-1.34 4 -0.68 4 0 4 C0 2.68 0 1.36 0 0 Z " fill="#59C5D7" transform="translate(201,33)"/>
<path d="M0 0 C0.33 0 0.66 0 1 0 C1.33 2.97 1.66 5.94 2 9 C1.34 9 0.68 9 0 9 C-0.33 9.66 -0.66 10.32 -1 11 C-2.23076923 4.6 -2.23076923 4.6 -1.0625 1.5625 C-0.711875 1.046875 -0.36125 0.53125 0 0 Z " fill="#61CDE0" transform="translate(198,20)"/>
<path d="M0 0 C0.99 0.33 1.98 0.66 3 1 C3 2.98 3 4.96 3 7 C2.01 7 1.02 7 0 7 C0 4.69 0 2.38 0 0 Z " fill="#789DBC" transform="translate(37,106)"/>
<path d="M0 0 C2.475 0.495 2.475 0.495 5 1 C4.67 2.32 4.34 3.64 4 5 C2.68 4.67 1.36 4.34 0 4 C0 2.68 0 1.36 0 0 Z " fill="#598CAC" transform="translate(36,112)"/>
<path d="M0 0 C0.99 0.33 1.98 0.66 3 1 C2.2884375 1.6496875 2.2884375 1.6496875 1.5625 2.3125 C-0.23686957 4.02309613 -0.23686957 4.02309613 -1 7 C-1.99 7 -2.98 7 -4 7 C-2.92598892 4.08482708 -2.22189824 2.22189824 0 0 Z " fill="#2F2F2F" transform="translate(36,92)"/>
<path d="M0 0 C0.99 0 1.98 0 3 0 C3 1.98 3 3.96 3 6 C2.01 6 1.02 6 0 6 C0 4.02 0 2.04 0 0 Z " fill="#CADD4D" transform="translate(278,111)"/>
</svg>
