<?xml version="1.0" encoding="UTF-8"?>
<svg version="1.1" xmlns="http://www.w3.org/2000/svg" width="512" height="512">
<path d="M0 0 C1.0209375 0.01546875 1.0209375 0.01546875 2.0625 0.03125 C2.743125 0.0209375 3.42375 0.010625 4.125 0 C6.9698882 0.78004999 7.59413745 1.99323806 9.0625 4.53125 C9.40307617 7.83105469 9.40307617 7.83105469 9.35546875 11.703125 C9.34797607 12.9519043 9.3404834 14.20068359 9.33276367 15.48730469 C9.30545166 17.06930664 9.27813965 18.65130859 9.25 20.28125 C9.188125 25.31375 9.12625 30.34625 9.0625 35.53125 C24.2425 35.53125 39.4225 35.53125 55.0625 35.53125 C55.0625 51.37125 55.0625 67.21125 55.0625 83.53125 C66.2825 83.53125 77.5025 83.53125 89.0625 83.53125 C89.0625 96.40125 89.0625 109.27125 89.0625 122.53125 C95.98808014 122.37390558 95.98808014 122.37390558 102.91235352 122.17089844 C109.21430301 122.09901529 112.96284766 122.74895126 118.0625 126.53125 C122.25660392 131.93943663 123.18653025 135.71493244 123.22071838 142.45976257 C123.22565636 143.16878041 123.23059434 143.87779824 123.23568195 144.60830146 C123.25106924 146.98976044 123.25942089 149.37119243 123.26782227 151.75268555 C123.27739982 153.4575423 123.28740983 155.16239667 123.29782104 156.86724854 C123.32488943 161.50120541 123.34588853 166.13517248 123.36582303 170.7691648 C123.38767065 175.60986685 123.41506533 180.45053737 123.44187927 185.29121399 C123.49182272 194.46029078 123.53675543 203.62938505 123.57990164 212.79849607 C123.62925989 223.23611457 123.68418326 233.67370146 123.73958123 244.11128938 C123.85342664 265.58458013 123.96026011 287.05790107 124.0625 308.53125 C124.46227051 307.44440918 124.86204102 306.35756836 125.27392578 305.23779297 C125.81006166 303.79128195 126.34636619 302.34483343 126.8828125 300.8984375 C127.14489502 300.18453857 127.40697754 299.47063965 127.67700195 298.73510742 C135.40174063 277.96520142 150.93807964 260.32238839 170.95605469 250.61279297 C179.04208912 246.94577429 187.38269015 244.3738912 196.0625 242.53125 C193.23690212 240.64751808 190.51285413 239.32870062 187.4375 237.90625 C173.33832152 230.87368875 166.32769527 220.02626964 161.0625 205.53125 C157.54414005 193.12423627 159.73198668 178.75279384 165.640625 167.53515625 C174.15492788 153.40218052 186.14021757 145.76182061 202.0625 141.78125 C218.16849407 140.43908383 232.64540371 144.11091697 245.3125 154.53125 C255.92971166 164.70394072 261.02286592 177.98716232 261.4375 192.53125 C261.02459505 208.17002505 255.42376517 220.21520637 244.1484375 231.01171875 C239.20364112 235.04892592 233.83561697 237.81495491 228.0625 240.53125 C226.72785434 241.19528553 225.39390286 241.86073627 224.0625 242.53125 C225.07828125 242.76199219 226.0940625 242.99273437 227.140625 243.23046875 C251.96977958 249.03484408 272.3488677 262.04365654 286.25 283.84375 C295.50519783 299.45055419 299.19018583 315.35719389 299.23950195 333.35009766 C299.24607315 334.4047673 299.25264435 335.45943695 299.25941467 336.54606628 C299.27901862 340.01248254 299.29077627 343.47885591 299.30078125 346.9453125 C299.30485678 348.13303631 299.3089323 349.32076012 299.31313133 350.54447556 C299.33392872 356.82131523 299.34826235 363.0981334 299.35766602 369.375 C299.36876688 375.85597129 299.40322735 382.33660272 299.44283772 388.81745338 C299.46895428 393.80686082 299.47735305 398.7961862 299.48094749 403.78565598 C299.48581977 406.17547294 299.49745188 408.5652861 299.51598549 410.95503616 C299.54028892 414.29403257 299.53942857 417.63213394 299.5324707 420.97119141 C299.55168579 422.44882713 299.55168579 422.44882713 299.57128906 423.95631409 C299.5279982 429.65353602 298.97544489 433.07757334 295.0625 437.53125 C291.57791247 440.86702399 288.90789377 440.90473479 284.16718674 440.90039349 C283.47033815 440.90385502 282.77348956 440.90731655 282.05552435 440.91088298 C279.70890082 440.91885504 277.36288868 440.90533961 275.01629639 440.89201355 C273.32167454 440.89332121 271.62705329 440.8959469 269.93243527 440.89978105 C265.26675014 440.90650577 260.60127065 440.89446609 255.93561172 440.87944686 C250.90768683 440.86651935 245.87977399 440.87087363 240.85183716 440.87315369 C232.13761384 440.8747285 223.4234578 440.86529753 214.7092514 440.84844017 C202.10990468 440.82408296 189.51059056 440.81624826 176.91122285 440.8124762 C156.4707447 440.80590656 136.03030242 440.78593151 115.58984375 440.75756836 C95.73112162 440.73004104 75.87240923 440.70880096 56.01367188 440.69604492 C54.17824594 440.69486267 54.17824594 440.69486267 52.30574068 440.69365653 C46.16735407 440.68974148 40.02896738 440.68595034 33.89058065 440.68222082 C-17.05213769 440.65110897 -67.9948171 440.59825923 -118.9375 440.53125 C-119.0290562 401.81225008 -119.09953906 363.09326647 -119.14176132 324.3741802 C-119.14676414 319.80300147 -119.15194143 315.23182295 -119.15722656 310.66064453 C-119.1582758 309.75060551 -119.15932505 308.84056649 -119.16040608 307.90295053 C-119.17781114 293.16787484 -119.20934939 278.43286158 -119.24611118 263.69782293 C-119.2835178 248.57822227 -119.30573526 233.45865431 -119.31385398 218.33900928 C-119.31934233 209.00942003 -119.33667659 199.68000722 -119.36916587 190.35047227 C-119.39031029 183.95278681 -119.39670021 177.55519256 -119.39150551 171.1574747 C-119.38894361 167.4663269 -119.39286973 163.77548743 -119.4143219 160.08439445 C-119.4374238 156.08015013 -119.42944618 152.0765615 -119.41851807 148.07226562 C-119.43016943 146.90882913 -119.4418208 145.74539263 -119.45382524 144.54670048 C-119.40353488 137.73730927 -118.59942143 133.32221565 -114.9375 127.53125 C-110.72376851 123.52306638 -107.56343135 122.40046427 -101.83203125 122.43359375 C-100.50328979 122.43734009 -100.50328979 122.43734009 -99.14770508 122.44116211 C-97.46584106 122.45481812 -97.46584106 122.45481812 -95.75 122.46875 C-92.181875 122.489375 -88.61375 122.51 -84.9375 122.53125 C-84.9375 109.66125 -84.9375 96.79125 -84.9375 83.53125 C-73.7175 83.53125 -62.4975 83.53125 -50.9375 83.53125 C-50.9375 67.69125 -50.9375 51.85125 -50.9375 35.53125 C-35.7575 35.53125 -20.5775 35.53125 -4.9375 35.53125 C-5.05603567 25.50903206 -5.05603567 25.50903206 -5.20776367 15.48730469 C-5.21525635 14.23852539 -5.22274902 12.98974609 -5.23046875 11.703125 C-5.2461792 10.4253418 -5.26188965 9.14755859 -5.27807617 7.83105469 C-4.87719792 3.94698987 -4.01298699 1.10033514 0 0 Z " fill="#ADA0AC" transform="translate(165.9375,35.46875)"/>
<path d="M0 0 C10.61721166 10.17269072 15.71036592 23.45591232 16.125 38 C15.71209505 53.63877505 10.11126517 65.68395637 -1.1640625 76.48046875 C-6.10885888 80.51767592 -11.47688303 83.28370491 -17.25 86 C-18.58464566 86.66403553 -19.91859714 87.32948627 -21.25 88 C-20.23421875 88.23074219 -19.2184375 88.46148437 -18.171875 88.69921875 C6.65727958 94.50359408 27.0363677 107.51240654 40.9375 129.3125 C50.19269783 144.91930419 53.87768583 160.82594389 53.92700195 178.81884766 C53.93357315 179.8735173 53.94014435 180.92818695 53.94691467 182.01481628 C53.96651862 185.48123254 53.97827627 188.94760591 53.98828125 192.4140625 C53.99235678 193.60178631 53.9964323 194.78951012 54.00063133 196.01322556 C54.02142872 202.29006523 54.03576235 208.5668834 54.04516602 214.84375 C54.05626688 221.32472129 54.09072735 227.80535272 54.13033772 234.28620338 C54.15645428 239.27561082 54.16485305 244.2649362 54.16844749 249.25440598 C54.17331977 251.64422294 54.18495188 254.0340361 54.20348549 256.42378616 C54.22778892 259.76278257 54.22692857 263.10088394 54.2199707 266.43994141 C54.23918579 267.91757713 54.23918579 267.91757713 54.25878906 269.42506409 C54.2154982 275.12228602 53.66294489 278.54632334 49.75 283 C46.40198605 286.12801742 44.06289123 286.37204209 39.53643799 286.36076355 C38.26040207 286.36488754 36.98436615 286.36901154 35.66966248 286.3732605 C34.25796297 286.36264371 32.8462656 286.3517393 31.43457031 286.34057617 C29.94631467 286.33972985 28.45805777 286.34020515 26.96980286 286.34190369 C22.93080266 286.34276486 18.89206942 286.32511937 14.85313129 286.30418181 C10.63173588 286.28543541 6.41033443 286.28366618 2.18890381 286.28010559 C-5.80440586 286.27077913 -13.79759253 286.24615723 -21.79084802 286.21605712 C-30.89111304 286.1825318 -39.99138391 286.16603181 -49.09169531 286.15097082 C-67.81119996 286.11960819 -86.53059009 286.06683602 -105.25 286 C-104.03290092 284.77747025 -104.03290092 284.77747025 -102.79121399 283.53024292 C-99.70338918 279.79918349 -99.53808231 276.22189872 -99.59057617 271.51611328 C-99.57485062 270.2712188 -99.57485062 270.2712188 -99.55880737 269.00117493 C-99.53013936 266.27383662 -99.536339 263.54777399 -99.54296875 260.8203125 C-99.52984868 258.92315079 -99.51454351 257.02600304 -99.49714661 255.12887573 C-99.45731982 250.14758933 -99.44710764 245.16666854 -99.44311523 240.1852417 C-99.43377945 235.09734014 -99.39636308 230.00965301 -99.36132812 224.921875 C-99.29677555 214.94787613 -99.26611289 204.97419488 -99.25 195 C-106.84 195 -114.43 195 -122.25 195 C-122.3663592 190.18272926 -122.46538108 185.37054881 -122.5246582 180.55297852 C-122.54942619 178.92292552 -122.58325131 177.29297881 -122.62719727 175.66333008 C-123.21211206 153.37463567 -116.39926892 133.67235521 -101.25 117 C-100.43917969 116.09636719 -99.62835938 115.19273437 -98.79296875 114.26171875 C-85.17936657 99.85083386 -68.56286831 92.09993852 -49.25 88 C-52.07559788 86.11626808 -54.79964587 84.79745062 -57.875 83.375 C-71.97417848 76.34243875 -78.98480473 65.49501964 -84.25 51 C-87.76835995 38.59298627 -85.58051332 24.22154384 -79.671875 13.00390625 C-71.15757212 -1.12906948 -59.17228243 -8.76942939 -43.25 -12.75 C-27.14400593 -14.09216617 -12.66709629 -10.42033303 0 0 Z " fill="#88C7FD" transform="translate(411.25,190)"/>
<path d="M0 0 C0.8240181 -0.00570007 1.64803619 -0.01140015 2.49702454 -0.01727295 C4.24466669 -0.02672954 5.99232673 -0.03325954 7.73999023 -0.03710938 C10.39794699 -0.04677379 13.0551168 -0.07777304 15.71289062 -0.109375 C17.41275584 -0.11590936 19.11262657 -0.12115813 20.8125 -0.125 C21.99570076 -0.1435202 21.99570076 -0.1435202 23.20280457 -0.16241455 C29.13619631 -0.13879212 33.81804241 0.8357545 38.56298828 4.68237305 C42.45437238 9.42713085 45.09200135 14.43707884 47.61328125 20.015625 C48.2165625 21.30243164 48.2165625 21.30243164 48.83203125 22.61523438 C51.73828125 28.89728157 51.73828125 28.89728157 51.73828125 31.203125 C60.97828125 31.203125 70.21828125 31.203125 79.73828125 31.203125 C79.82865668 42.19938164 79.90204016 53.19539153 79.94552994 64.19193554 C79.96640304 69.29810066 79.99471581 74.40399848 80.04003906 79.51000977 C80.08350642 84.4377893 80.10742044 89.36531175 80.11779022 94.2932682 C80.12517998 96.1731604 80.13961048 98.05303855 80.16120148 99.93282127 C80.19024745 102.56644448 80.19423678 105.19900601 80.19238281 107.83276367 C80.20676392 108.60960007 80.22114502 109.38643646 80.23596191 110.18681335 C80.20761334 113.90951092 79.86828134 116.00091409 77.8348999 119.16377258 C74.72388516 122.18981426 73.01634391 122.33193263 68.78593445 122.36375427 C67.73864166 122.3737999 66.69134888 122.38384552 65.61231995 122.39419556 C63.88162514 122.40294205 63.88162514 122.40294205 62.1159668 122.41186523 C60.90450989 122.42164902 59.69305298 122.4314328 58.44488525 122.44151306 C54.4216 122.47151564 50.39835027 122.49316511 46.375 122.51171875 C45.34840535 122.51666473 45.34840535 122.51666473 44.30107141 122.52171063 C37.84711682 122.55249062 31.39315759 122.5791993 24.93915081 122.59612942 C16.68270612 122.61804138 8.42691132 122.66002281 0.17072648 122.72956699 C-5.63401127 122.77680251 -11.43857363 122.80106223 -17.24349755 122.8083263 C-20.71088174 122.81328328 -24.17753356 122.82836559 -27.64470863 122.8680706 C-31.51373938 122.9117937 -35.38193396 122.90804096 -39.2512207 122.90014648 C-40.97280647 122.9301474 -40.97280647 122.9301474 -42.72917175 122.96075439 C-50.09758292 122.89310303 -50.09758292 122.89310303 -53.09108829 121.11886597 C-56.2067407 117.90597211 -56.84248901 114.41264018 -56.88381958 110.06239319 C-56.8658432 109.28915207 -56.84786682 108.51591095 -56.8293457 107.71923828 C-56.83007584 106.88930862 -56.83080597 106.05937897 -56.83155823 105.20429993 C-56.82809058 102.47666764 -56.7892701 99.75076931 -56.75 97.0234375 C-56.74066891 95.1263014 -56.73355419 93.22915321 -56.7285614 91.33200073 C-56.70951492 86.35044813 -56.66043434 81.36963006 -56.6050415 76.3883667 C-56.55379831 71.30067887 -56.53103653 66.21287178 -56.50585938 61.125 C-56.45231308 51.15066782 -56.36439639 41.17707254 -56.26171875 31.203125 C-47.02171875 31.203125 -37.78171875 31.203125 -28.26171875 31.203125 C-27.60171875 29.223125 -26.94171875 27.243125 -26.26171875 25.203125 C-20.98721059 11.73600015 -15.95621175 0.08487935 0 0 Z " fill="#EFB06E" transform="translate(232.26171875,353.796875)"/>
<path d="M0 0 C1.0209375 0.01546875 1.0209375 0.01546875 2.0625 0.03125 C2.743125 0.0209375 3.42375 0.010625 4.125 0 C6.9698882 0.78004999 7.59413745 1.99323806 9.0625 4.53125 C9.40307617 7.83105469 9.40307617 7.83105469 9.35546875 11.703125 C9.34422974 13.57629395 9.34422974 13.57629395 9.33276367 15.48730469 C9.30545166 17.06930664 9.27813965 18.65130859 9.25 20.28125 C9.1571875 27.83 9.1571875 27.83 9.0625 35.53125 C24.2425 35.53125 39.4225 35.53125 55.0625 35.53125 C55.0625 51.37125 55.0625 67.21125 55.0625 83.53125 C66.2825 83.53125 77.5025 83.53125 89.0625 83.53125 C89.0625 96.40125 89.0625 109.27125 89.0625 122.53125 C31.6425 122.53125 -25.7775 122.53125 -84.9375 122.53125 C-84.9375 109.66125 -84.9375 96.79125 -84.9375 83.53125 C-73.7175 83.53125 -62.4975 83.53125 -50.9375 83.53125 C-50.9375 67.69125 -50.9375 51.85125 -50.9375 35.53125 C-35.7575 35.53125 -20.5775 35.53125 -4.9375 35.53125 C-5.05603567 25.50903206 -5.05603567 25.50903206 -5.20776367 15.48730469 C-5.21525635 14.23852539 -5.22274902 12.98974609 -5.23046875 11.703125 C-5.2461792 10.4253418 -5.26188965 9.14755859 -5.27807617 7.83105469 C-4.87719792 3.94698987 -4.01298699 1.10033514 0 0 Z " fill="#FFE075" transform="translate(165.9375,35.46875)"/>
<path d="M0 0 C10.61721166 10.17269072 15.71036592 23.45591232 16.125 38 C15.71242745 53.62618542 10.12289638 65.71683641 -1.1796875 76.48046875 C-14.18304906 87.15116621 -28.00933651 89.37196735 -44.25 88 C-52.70151504 86.47439318 -59.52215829 83.27388771 -66.25 78 C-66.87519531 77.53722656 -67.50039063 77.07445312 -68.14453125 76.59765625 C-77.22094863 69.45912319 -82.8085847 58.15850308 -85.25 47 C-86.29615492 30.00427015 -83.64006936 16.49397641 -72.59375 2.97265625 C-53.21017068 -17.91955071 -21.27652606 -17.50270798 0 0 Z " fill="#FBD3A8" transform="translate(411.25,190)"/>
<path d="M0 0 C1.0209375 0.01546875 1.0209375 0.01546875 2.0625 0.03125 C2.743125 0.0209375 3.42375 0.010625 4.125 0 C6.9698882 0.78004999 7.59413745 1.99323806 9.0625 4.53125 C9.40307617 7.83105469 9.40307617 7.83105469 9.35546875 11.703125 C9.34422974 13.57629395 9.34422974 13.57629395 9.33276367 15.48730469 C9.30545166 17.06930664 9.27813965 18.65130859 9.25 20.28125 C9.1571875 27.83 9.1571875 27.83 9.0625 35.53125 C24.2425 35.53125 39.4225 35.53125 55.0625 35.53125 C55.0625 51.70125 55.0625 67.87125 55.0625 84.53125 C20.0825 84.53125 -14.8975 84.53125 -50.9375 84.53125 C-50.9375 68.36125 -50.9375 52.19125 -50.9375 35.53125 C-35.7575 35.53125 -20.5775 35.53125 -4.9375 35.53125 C-5.05603567 25.50903206 -5.05603567 25.50903206 -5.20776367 15.48730469 C-5.21525635 14.23852539 -5.22274902 12.98974609 -5.23046875 11.703125 C-5.2461792 10.4253418 -5.26188965 9.14755859 -5.27807617 7.83105469 C-4.87719792 3.94698987 -4.01298699 1.10033514 0 0 Z " fill="#AD9FAD" transform="translate(165.9375,35.46875)"/>
<path d="M0 0 C0.33 0 0.66 0 1 0 C1.3671875 1.77473958 1.734375 3.54947917 2.1015625 5.32421875 C2.46096924 7.06131104 2.46096924 7.06131104 2.82763672 8.83349609 C3.3683697 11.44709401 3.90906553 14.06069957 4.44970703 16.67431641 C5.78315505 23.12032995 7.11710247 29.56623818 8.453125 36.01171875 C11.63855282 51.38434525 14.80570031 66.76064993 17.95068359 82.14160156 C19.47184204 89.57716545 20.99808338 97.01144384 22.55628967 104.43934631 C23.21665396 107.58733099 23.87372889 110.735999 24.53079224 113.88467407 C24.84072847 115.36452636 25.15244235 116.84400759 25.46603394 118.3230896 C25.89844957 120.36293094 26.32483048 122.40395053 26.75 124.4453125 C26.99234375 125.59531738 27.2346875 126.74532227 27.484375 127.93017578 C27.95270137 130.71840298 28.21220603 133.18373184 28 136 C26.6015625 137.703125 26.6015625 137.703125 24.625 139.25 C23.89539063 139.84296875 23.16578125 140.4359375 22.4140625 141.046875 C21.61742187 141.69140625 20.82078125 142.3359375 20 143 C18.32468929 144.49033949 16.65821642 145.99066369 15 147.5 C14.16210938 148.25023437 13.32421875 149.00046875 12.4609375 149.7734375 C10.86492359 151.21745008 9.28551302 152.68011304 7.7265625 154.1640625 C7.03304687 154.81117188 6.33953125 155.45828125 5.625 156.125 C5.01914062 156.70507812 4.41328125 157.28515625 3.7890625 157.8828125 C2 159 2 159 0.08642578 158.73828125 C-2.23137075 157.91812952 -3.40766427 157.000959 -5.171875 155.3046875 C-5.75026123 154.75659424 -6.32864746 154.20850098 -6.92456055 153.64379883 C-7.52695557 153.06009521 -8.12935059 152.4763916 -8.75 151.875 C-10.00056539 150.68802543 -11.25186304 149.50182188 -12.50390625 148.31640625 C-13.10477051 147.74422363 -13.70563477 147.17204102 -14.32470703 146.58251953 C-18.35151404 142.77870679 -22.38847031 139.07435313 -27 136 C-27.56806825 130.3768434 -26.3414828 125.30296456 -25.0625 119.875 C-22.57046628 108.87974941 -20.34243606 97.84054554 -18.15103149 86.78216553 C-14.82877485 70.01842197 -11.40957372 53.28515898 -7.77539062 36.5859375 C-6.20257099 29.3121419 -4.66663575 22.03045632 -3.125 14.75 C-2.81106512 13.26854834 -2.49710114 11.78710284 -2.18310547 10.30566406 C-1.45507374 6.87051255 -0.72741795 3.43528155 0 0 Z " fill="#FDE078" transform="translate(376,279)"/>
<path d="M0 0 C44.55 0 89.1 0 135 0 C135 12 135 12 132.01953125 15.12109375 C130.64269441 15.93784426 129.23742131 16.70786972 127.8125 17.4375 C126.25877938 18.33144891 124.70541048 19.22600931 123.15234375 20.12109375 C121.90493408 20.80921143 121.90493408 20.80921143 120.63232422 21.51123047 C115.93932209 24.16546224 111.42779416 27.11418805 106.875 30 C91.73496268 39.55046985 91.73496268 39.55046985 81.5625 39.1875 C80.83095703 39.17396484 80.09941406 39.16042969 79.34570312 39.14648438 C77.56347578 39.11153874 75.78163427 39.05774805 74 39 C73.95101562 38.08476562 73.90203125 37.16953125 73.8515625 36.2265625 C73.73941406 34.44378906 73.73941406 34.44378906 73.625 32.625 C73.52058594 30.84996094 73.52058594 30.84996094 73.4140625 29.0390625 C73.29782654 25.89437681 73.29782654 25.89437681 71 24 C68 23.66666667 68 23.66666667 65 24 C62.22957891 26.77042109 62.60203894 28.76533805 62.375 32.625 C62.30023438 33.81351562 62.22546875 35.00203125 62.1484375 36.2265625 C62.09945312 37.14179688 62.05046875 38.05703125 62 39 C59.70945587 39.10994612 57.41730061 39.18645107 55.125 39.25 C53.84882813 39.29640625 52.57265625 39.3428125 51.2578125 39.390625 C41.48551358 38.9715984 33.13693654 32.87840247 25.1875 27.75 C17.03736757 22.41848655 17.03736757 22.41848655 8.55078125 17.66015625 C7.93501221 17.3362793 7.31924316 17.01240234 6.68481445 16.67871094 C5.13972571 15.88433695 3.57071854 15.13694119 2 14.39453125 C0 12 0 12 0 0 Z " fill="#FEE076" transform="translate(176,386)"/>
<path d="M0 0 C4.29 0 8.58 0 13 0 C16.0096449 6.13236894 17.18410605 12.23872151 18.375 18.9375 C20.46092776 30.4174475 22.81623575 41.82930134 25.21313477 53.24777222 C27.58300536 64.54868362 29.93604632 75.85309822 32.27739716 87.15995121 C33.13651899 91.30786237 33.99838253 95.45516824 34.8659668 99.60131836 C35.72072083 103.68666483 36.56868731 107.77336662 37.41196251 111.86109734 C37.730497 113.39929014 38.05142364 114.93698975 38.37488747 116.47415352 C38.82387661 118.60982072 39.26411514 120.74712241 39.70239258 122.88500977 C39.95378494 124.09391373 40.20517731 125.30281769 40.46418762 126.5483551 C41.0171549 130.11051002 41.19105016 133.4013264 41 137 C39.6015625 138.8984375 39.6015625 138.8984375 37.625 140.375 C36.89539063 140.94992187 36.16578125 141.52484375 35.4140625 142.1171875 C34.61742187 142.73851562 33.82078125 143.35984375 33 144 C31.32206332 145.48738236 29.6556624 146.98786251 28 148.5 C23.70315292 152.37636051 19.36471669 156.20043587 15 160 C13.49968066 161.31213495 11.99967399 162.62462751 10.5 163.9375 C9.33333333 164.95833333 8.16666667 165.97916667 7 167 C3.535 164.525 3.535 164.525 0 162 C1.30016516 159.10368126 2.63510423 157.14805694 4.9765625 155.01171875 C5.85380981 154.20395996 5.85380981 154.20395996 6.7487793 153.37988281 C7.36793213 152.82139648 7.98708496 152.26291016 8.625 151.6875 C9.25510986 151.11225586 9.88521973 150.53701172 10.53442383 149.94433594 C12.35089251 148.29015621 14.17483951 146.64457556 16 145 C16.85722656 144.21753906 17.71445312 143.43507813 18.59765625 142.62890625 C23.5967098 138.13443007 23.5967098 138.13443007 27 137 C24.56434047 123.88830532 22.01782931 110.81788687 19.0625 97.8125 C16.56333908 86.79660959 14.36572894 75.74096455 12.25463867 64.64477539 C10.56796621 55.82213855 8.77119523 47.02994761 6.875 38.25 C6.5025415 36.52414673 6.5025415 36.52414673 6.12255859 34.76342773 C5.20417291 30.52163767 4.28161773 26.28081096 3.34960938 22.04199219 C2.76993517 19.4040145 2.19704379 16.76464055 1.625 14.125 C1.45726074 13.37637695 1.28952148 12.62775391 1.11669922 11.85644531 C0.21960216 7.69708915 0 4.34498144 0 0 Z " fill="#61B7FC" transform="translate(377,278)"/>
<path d="M0 0 C57.42 0 114.84 0 174 0 C174 4.29 174 8.58 174 13 C116.58 13 59.16 13 0 13 C0 8.71 0 4.42 0 0 Z " fill="#FFBF31" transform="translate(81,145)"/>
<path d="M0 0 C0.8240181 -0.00570007 1.64803619 -0.01140015 2.49702454 -0.01727295 C4.24466669 -0.02672954 5.99232673 -0.03325954 7.73999023 -0.03710938 C10.39794699 -0.04677379 13.0551168 -0.07777304 15.71289062 -0.109375 C17.41275584 -0.11590936 19.11262657 -0.12115813 20.8125 -0.125 C21.99570076 -0.1435202 21.99570076 -0.1435202 23.20280457 -0.16241455 C29.13619631 -0.13879212 33.81804241 0.8357545 38.56298828 4.68237305 C42.45437238 9.42713085 45.09200135 14.43707884 47.61328125 20.015625 C48.2165625 21.30243164 48.2165625 21.30243164 48.83203125 22.61523438 C51.73828125 28.89728157 51.73828125 28.89728157 51.73828125 31.203125 C60.97828125 31.203125 70.21828125 31.203125 79.73828125 31.203125 C79.73828125 35.493125 79.73828125 39.783125 79.73828125 44.203125 C79.40828125 44.203125 79.07828125 44.203125 78.73828125 44.203125 C78.73828125 40.243125 78.73828125 36.283125 78.73828125 32.203125 C34.18828125 32.203125 -10.36171875 32.203125 -56.26171875 32.203125 C-56.26171875 31.873125 -56.26171875 31.543125 -56.26171875 31.203125 C-47.02171875 31.203125 -37.78171875 31.203125 -28.26171875 31.203125 C-27.60171875 29.223125 -26.94171875 27.243125 -26.26171875 25.203125 C-20.98721059 11.73600015 -15.95621175 0.08487935 0 0 Z " fill="#FBDC76" transform="translate(232.26171875,353.796875)"/>
<path d="M0 0 C3.71757928 1.36970045 6.90723628 3.06852466 10.24609375 5.1953125 C11.2422168 5.82550293 12.23833984 6.45569336 13.26464844 7.10498047 C14.31168945 7.77158691 15.35873047 8.43819336 16.4375 9.125 C34.32659986 21.31293088 34.32659986 21.31293088 54.75 26.5625 C55.44738281 26.60568359 56.14476562 26.64886719 56.86328125 26.69335938 C58.57531922 26.79889596 60.28763561 26.8998991 62 27 C61.94779297 25.64455078 61.94779297 25.64455078 61.89453125 24.26171875 C61.86746094 23.08222656 61.84039062 21.90273438 61.8125 20.6875 C61.77769531 19.51574219 61.74289063 18.34398437 61.70703125 17.13671875 C62 14 62 14 63.32421875 12.10546875 C65.94082981 10.37935936 67.95307606 10.61913451 71 11 C72.67578125 12.10546875 72.67578125 12.10546875 74 14 C74.29296875 17.13671875 74.29296875 17.13671875 74.1875 20.6875 C74.14689453 22.45673828 74.14689453 22.45673828 74.10546875 24.26171875 C74.07066406 25.16535156 74.03585938 26.06898438 74 27 C85.62524944 27.10568409 93.94582541 25.21333191 104 19 C104.86560547 18.4652002 105.73121094 17.93040039 106.62304688 17.37939453 C111.41031633 14.39837981 116.16681659 11.37321393 120.8984375 8.3046875 C122.59890325 7.20303997 124.29942136 6.10147326 126 5 C126.7827832 4.49114258 127.56556641 3.98228516 128.37207031 3.45800781 C129.08717773 3.00006836 129.80228516 2.54212891 130.5390625 2.0703125 C131.16248535 1.66828613 131.7859082 1.26625977 132.42822266 0.85205078 C134 0 134 0 136 0 C137.16578367 5.37214931 138.11614086 10.76182334 136 16 C131.48247934 20.87960203 125.1910863 23.76127299 119.34619141 26.76171875 C116.36057354 28.33747877 113.65684923 30.15221726 110.875 32.0625 C102.64998703 37.65493961 94.67558916 38.42711229 84.9375 38.1875 C83.88111328 38.17396484 82.82472656 38.16042969 81.73632812 38.14648438 C79.15700191 38.1114709 76.57878506 38.06236675 74 38 C73.5359375 38.9590625 73.5359375 38.9590625 73.0625 39.9375 C72 42 72 42 71 43 C65.6360424 43.4664311 65.6360424 43.4664311 63.125 41.625 C62 40 62 40 62 38 C61.3201001 38.02094727 60.6402002 38.04189453 59.93969727 38.06347656 C56.81411953 38.14739895 53.68877984 38.1988991 50.5625 38.25 C49.49322266 38.28351563 48.42394531 38.31703125 47.32226562 38.3515625 C40.20253438 38.43865401 35.18066763 37.52668522 29 34 C28.20021729 33.55205078 27.40043457 33.10410156 26.57641602 32.64257812 C24.02629649 31.17447008 21.5111371 29.65872527 19 28.125 C18.16210938 27.62097656 17.32421875 27.11695313 16.4609375 26.59765625 C14.78939603 25.58593378 13.12569358 24.56113594 11.47045898 23.52294922 C9.80394532 22.49560341 8.10896159 21.51325141 6.39086914 20.57470703 C0.39587061 17.1090421 0.39587061 17.1090421 -0.70361328 14.02880859 C-0.88641753 11.82344596 -0.79516767 9.8244055 -0.5625 7.625 C-0.52189453 6.88894531 -0.48128906 6.15289062 -0.43945312 5.39453125 C-0.33419633 3.59347059 -0.17275926 1.79584318 0 0 Z " fill="#CF8C48" transform="translate(176,398)"/>
<path d="M0 0 C14.22062397 0.31518984 27.51902962 5.78544304 37.80078125 15.63671875 C47.59769645 26.91552028 51.79866279 40.0006468 51.40625 54.86328125 C50.24646706 69.0867303 44.47869957 79.99993393 34.1953125 89.79296875 C23.84021206 98.29047483 13.27820759 101.70016006 0.125 101.4375 C-1.18017578 101.42396484 -1.18017578 101.42396484 -2.51171875 101.41015625 C-4.6329342 101.38684619 -6.75400562 101.35098579 -8.875 101.3125 C-8.875 100.9825 -8.875 100.6525 -8.875 100.3125 C-7.62396484 99.96638672 -7.62396484 99.96638672 -6.34765625 99.61328125 C8.20228149 95.39663263 18.63315839 89.36031701 26.5859375 76.16015625 C33.54429734 63.28542446 35.13884191 50.35182577 31.08984375 36.15234375 C26.52148351 22.70619842 17.86876399 12.71836537 5.125 6.3125 C1.17658109 4.76886059 -2.79449363 3.45902971 -6.875 2.3125 C-4.3613679 -0.2011321 -3.48108633 0.01513516 0 0 Z " fill="#F0B16E" transform="translate(375.875,176.6875)"/>
<path d="M0 0 C1.2219104 0.00607269 1.2219104 0.00607269 2.46850586 0.01226807 C3.30438232 0.01035461 4.14025879 0.00844116 5.00146484 0.00646973 C6.77010397 0.00510771 8.53875309 0.0088053 10.30737305 0.01715088 C13.02016579 0.02785031 15.7322963 0.01725631 18.44506836 0.00445557 C20.16121566 0.00577716 21.87736255 0.00833955 23.59350586 0.01226807 C24.40811279 0.0082196 25.22271973 0.00417114 26.06201172 0 C31.80108658 0.04797379 31.80108658 0.04797379 34.03100586 2.27789307 C34.23082611 5.05124734 34.31079786 7.7225895 34.29663086 10.49664307 C34.29950104 11.7171637 34.29950104 11.7171637 34.3024292 12.96234131 C34.30379113 14.68390207 34.30009413 16.40547309 34.29174805 18.12701416 C34.28104844 20.76738476 34.29164286 23.40707496 34.30444336 26.04742432 C34.30312177 27.71799874 34.30055938 29.38857274 34.29663086 31.05914307 C34.30067932 31.85187622 34.30472778 32.64460938 34.30889893 33.46136475 C34.26092613 39.04797279 34.26092613 39.04797279 32.03100586 41.27789307 C29.18577278 41.49004095 26.44033354 41.58185944 23.59350586 41.57867432 C22.33969116 41.58510201 22.33969116 41.58510201 21.06054688 41.59165955 C19.29192003 41.5974068 17.52326955 41.5979002 15.75463867 41.59356689 C13.04166576 41.59040549 10.32978144 41.61386526 7.61694336 41.63922119 C5.90079891 41.64149393 4.18465151 41.6421978 2.46850586 41.64117432 C1.65389893 41.65038406 0.83929199 41.65959381 0 41.66908264 C-2.28540039 41.65020752 -2.28540039 41.65020752 -5.96899414 41.27789307 C-8.47721456 37.51556243 -8.25765198 34.5365094 -8.23461914 30.18023682 C-8.23653259 29.39016739 -8.23844604 28.60009796 -8.24041748 27.78608704 C-8.24177747 26.11758098 -8.23809403 24.44906429 -8.22973633 22.78057861 C-8.21901972 20.22150026 -8.22964496 17.66312165 -8.24243164 15.10406494 C-8.24111029 13.48362068 -8.23854841 11.86317685 -8.23461914 10.24273682 C-8.2386676 9.4750145 -8.24271606 8.70729218 -8.24688721 7.91630554 C-8.18578244 1.02576655 -6.8210065 0.05701781 0 0 Z " fill="#FDDF77" transform="translate(200.968994140625,205.72210693359375)"/>
<path d="M0 0 C1.2219104 0.00607269 1.2219104 0.00607269 2.46850586 0.01226807 C3.30438232 0.01035461 4.14025879 0.00844116 5.00146484 0.00646973 C6.77010397 0.00510771 8.53875309 0.0088053 10.30737305 0.01715088 C13.02016579 0.02785031 15.7322963 0.01725631 18.44506836 0.00445557 C20.16121566 0.00577716 21.87736255 0.00833955 23.59350586 0.01226807 C24.40811279 0.0082196 25.22271973 0.00417114 26.06201172 0 C31.80108658 0.04797379 31.80108658 0.04797379 34.03100586 2.27789307 C34.24303004 4.96749046 34.334982 7.55153029 34.33178711 10.24273682 C34.33607224 11.03184952 34.34035736 11.82096222 34.34477234 12.63398743 C34.35051948 14.30426066 34.35101307 15.97455893 34.34667969 17.64483643 C34.3435224 20.20199278 34.36696337 22.75798946 34.39233398 25.31500244 C34.3946072 26.93674577 34.39531037 28.55849222 34.39428711 30.18023682 C34.40349686 30.94593491 34.4127066 31.711633 34.42219543 32.50053406 C34.3974277 35.33989325 34.32350227 37.69945079 33.02807617 40.2612915 C29.73943116 41.93536459 26.31973988 41.68333229 22.71459961 41.64117432 C21.4962014 41.64192207 21.4962014 41.64192207 20.25318909 41.64268494 C18.53758292 41.6403459 16.82197322 41.63062734 15.10644531 41.61407471 C12.4748685 41.59045019 9.84430259 41.59351868 7.21264648 41.60015869 C5.5466248 41.59458296 3.88060739 41.58747374 2.21459961 41.57867432 C1.42500351 41.57958572 0.63540741 41.58049713 -0.17811584 41.58143616 C-5.73795622 41.50893099 -5.73795622 41.50893099 -7.96899414 39.27789307 C-8.16881439 36.50453879 -8.24878614 33.83319664 -8.23461914 31.05914307 C-8.23653259 30.24546265 -8.23844604 29.43178223 -8.24041748 28.59344482 C-8.24177941 26.87188406 -8.23808242 25.15031304 -8.22973633 23.42877197 C-8.21903672 20.78840137 -8.22963114 18.14871117 -8.24243164 15.50836182 C-8.24111005 13.83778739 -8.23854766 12.16721339 -8.23461914 10.49664307 C-8.2386676 9.70390991 -8.24271606 8.91117676 -8.24688721 8.09442139 C-8.18698689 1.11880913 -6.94398022 0.05804577 0 0 Z " fill="#FDDF77" transform="translate(108.968994140625,386.72210693359375)"/>
<path d="M0 0 C1.2219104 0.00607269 1.2219104 0.00607269 2.46850586 0.01226807 C3.30438232 0.01035461 4.14025879 0.00844116 5.00146484 0.00646973 C6.77010397 0.00510771 8.53875309 0.0088053 10.30737305 0.01715088 C13.02016579 0.02785031 15.7322963 0.01725631 18.44506836 0.00445557 C20.16121566 0.00577716 21.87736255 0.00833955 23.59350586 0.01226807 C24.40811279 0.0082196 25.22271973 0.00417114 26.06201172 0 C31.80108658 0.04797379 31.80108658 0.04797379 34.03100586 2.27789307 C34.24303004 4.96749046 34.334982 7.55153029 34.33178711 10.24273682 C34.33607224 11.03184952 34.34035736 11.82096222 34.34477234 12.63398743 C34.35051948 14.30426066 34.35101307 15.97455893 34.34667969 17.64483643 C34.3435224 20.20199278 34.36696337 22.75798946 34.39233398 25.31500244 C34.3946072 26.93674577 34.39531037 28.55849222 34.39428711 30.18023682 C34.40349686 30.94593491 34.4127066 31.711633 34.42219543 32.50053406 C34.3974277 35.33989325 34.32350227 37.69945079 33.02807617 40.2612915 C29.73943116 41.93536459 26.31973988 41.68333229 22.71459961 41.64117432 C21.4962014 41.64192207 21.4962014 41.64192207 20.25318909 41.64268494 C18.53758292 41.6403459 16.82197322 41.63062734 15.10644531 41.61407471 C12.4748685 41.59045019 9.84430259 41.59351868 7.21264648 41.60015869 C5.5466248 41.59458296 3.88060739 41.58747374 2.21459961 41.57867432 C1.42500351 41.57958572 0.63540741 41.58049713 -0.17811584 41.58143616 C-5.73795622 41.50893099 -5.73795622 41.50893099 -7.96899414 39.27789307 C-8.16881439 36.50453879 -8.24878614 33.83319664 -8.23461914 31.05914307 C-8.23653259 30.24546265 -8.23844604 29.43178223 -8.24041748 28.59344482 C-8.24177941 26.87188406 -8.23808242 25.15031304 -8.22973633 23.42877197 C-8.21903672 20.78840137 -8.22963114 18.14871117 -8.24243164 15.50836182 C-8.24111005 13.83778739 -8.23854766 12.16721339 -8.23461914 10.49664307 C-8.2386676 9.70390991 -8.24271606 8.91117676 -8.24688721 8.09442139 C-8.18698689 1.11880913 -6.94398022 0.05804577 0 0 Z " fill="#FDDF77" transform="translate(108.968994140625,205.72210693359375)"/>
<path d="M0 0 C34.98 0 69.96 0 106 0 C106 5.28 106 10.56 106 16 C71.02 16 36.04 16 0 16 C0 10.72 0 5.44 0 0 Z " fill="#877A83" transform="translate(115,104)"/>
<path d="M0 0 C0.85948746 -0.0033284 1.71897491 -0.0066568 2.60450745 -0.01008606 C4.42619286 -0.01515895 6.24788761 -0.01749427 8.06958008 -0.01733398 C10.86359915 -0.01951928 13.65722282 -0.03766769 16.45117188 -0.05664062 C18.21744656 -0.05957465 19.98372313 -0.06155939 21.75 -0.0625 C23.00942665 -0.07327827 23.00942665 -0.07327827 24.29429626 -0.08427429 C30.21258444 -0.06085306 30.21258444 -0.06085306 32.44140625 2.16796875 C32.64114358 4.86932198 32.72122198 7.46594086 32.70703125 10.16796875 C32.70990143 11.35519531 32.70990143 11.35519531 32.71282959 12.56640625 C32.71419143 14.24088865 32.71049507 15.9153816 32.70214844 17.58984375 C32.69144865 20.15779256 32.7020435 22.72504178 32.71484375 25.29296875 C32.71352215 26.9179703 32.71095976 28.54297141 32.70703125 30.16796875 C32.71107971 30.93882812 32.71512817 31.7096875 32.71929932 32.50390625 C32.67132757 37.93804743 32.67132757 37.93804743 30.44140625 40.16796875 C27.59600483 40.36787102 24.85002841 40.44773851 22.00390625 40.43359375 C21.16802979 40.4355072 20.33215332 40.43742065 19.47094727 40.43939209 C17.70230814 40.44075411 15.93365902 40.43705651 14.16503906 40.42871094 C11.45224631 40.4180115 8.74011581 40.42860551 6.02734375 40.44140625 C4.31119645 40.44008466 2.59504956 40.43752227 0.87890625 40.43359375 C0.06429932 40.43764221 -0.75030762 40.44169067 -1.58959961 40.44586182 C-7.32867447 40.39788803 -7.32867447 40.39788803 -9.55859375 38.16796875 C-9.74612686 35.38286651 -9.81420607 32.69897229 -9.7890625 29.9140625 C-9.78860428 29.09801041 -9.78814606 28.28195831 -9.78767395 27.44117737 C-9.78465119 25.7154088 -9.77676417 23.98964297 -9.7644043 22.26391602 C-9.74614353 19.61269542 -9.74389461 16.96182379 -9.74414062 14.31054688 C-9.73922569 12.63671571 -9.73339748 10.96288693 -9.7265625 9.2890625 C-9.72544968 8.49116806 -9.72433685 7.69327362 -9.72319031 6.87120056 C-9.65323289 -1.17997664 -7.25246138 0.00958924 0 0 Z " fill="#FEE077" transform="translate(110.55859375,296.83203125)"/>
<path d="M0 0 C1.63984529 0.00031732 3.27971127 0.01165397 4.91943359 0.03173828 C6.21365738 0.03598312 6.21365738 0.03598312 7.5340271 0.04031372 C10.29544829 0.05152746 13.05654759 0.07663394 15.81787109 0.10205078 C17.68765808 0.11207905 19.55745015 0.12120517 21.42724609 0.12939453 C26.01591218 0.15147066 30.60433702 0.18600844 35.19287109 0.22705078 C36.76954256 3.38039372 36.35584151 6.76467319 36.36083984 10.22705078 C36.36583244 11.41427734 36.36583244 11.41427734 36.3709259 12.62548828 C36.3759915 14.29996153 36.37833434 15.97444488 36.37817383 17.64892578 C36.38036236 20.21680214 36.39852719 22.78425037 36.41748047 25.35205078 C36.420414 26.97704931 36.42239907 28.60204988 36.42333984 30.22705078 C36.43052536 30.99791016 36.43771088 31.76876953 36.44511414 32.56298828 C36.42169829 37.99822358 36.42169829 37.99822358 34.19287109 40.22705078 C31.34746967 40.42695306 28.60149326 40.50682054 25.75537109 40.49267578 C24.91949463 40.49458923 24.08361816 40.49650269 23.22241211 40.49847412 C21.45377298 40.49983614 19.68512387 40.49613854 17.91650391 40.48779297 C15.20371116 40.47709354 12.49158066 40.48768754 9.77880859 40.50048828 C8.06266129 40.49916669 6.34651441 40.4966043 4.63037109 40.49267578 C3.81576416 40.49672424 3.00115723 40.50077271 2.16186523 40.50494385 C-3.57720963 40.45697006 -3.57720963 40.45697006 -5.80712891 38.22705078 C-6.00686624 35.52569755 -6.08694464 32.92907867 -6.07275391 30.22705078 C-6.07466736 29.43556641 -6.07658081 28.64408203 -6.07855225 27.82861328 C-6.07991408 26.15413088 -6.07621772 24.47963793 -6.06787109 22.80517578 C-6.05717131 20.23722697 -6.06776616 17.66997775 -6.08056641 15.10205078 C-6.07924481 13.47704923 -6.07668242 11.85204812 -6.07275391 10.22705078 C-6.07680237 9.45619141 -6.08085083 8.68533203 -6.08502197 7.89111328 C-6.01852909 0.35893498 -6.01852909 0.35893498 0 0 Z " fill="#FEE077" transform="translate(198.80712890625,296.77294921875)"/>
<path d="M0 0 C1.16578367 5.37214931 2.11614086 10.76182334 0 16 C-4.51752066 20.87960203 -10.8089137 23.76127299 -16.65380859 26.76171875 C-19.63942646 28.33747877 -22.34315077 30.15221726 -25.125 32.0625 C-33.35001297 37.65493961 -41.32441084 38.42711229 -51.0625 38.1875 C-52.64708008 38.16719727 -52.64708008 38.16719727 -54.26367188 38.14648438 C-56.84267254 38.11147532 -59.42140681 38.05768187 -62 38 C-62 34.37 -62 30.74 -62 27 C-61.00742188 27.00902344 -60.01484375 27.01804687 -58.9921875 27.02734375 C-48.51662012 26.89864169 -40.99633543 24.55960287 -32 19 C-31.13439453 18.4652002 -30.26878906 17.93040039 -29.37695312 17.37939453 C-24.58968367 14.39837981 -19.83318341 11.37321393 -15.1015625 8.3046875 C-13.40109675 7.20303997 -11.70057864 6.10147326 -10 5 C-8.8258252 4.23671387 -8.8258252 4.23671387 -7.62792969 3.45800781 C-6.91282227 3.00006836 -6.19771484 2.54212891 -5.4609375 2.0703125 C-4.83751465 1.66828613 -4.2140918 1.26625977 -3.57177734 0.85205078 C-2 0 -2 0 0 0 Z " fill="#CF8D49" transform="translate(312,398)"/>
<path d="M0 0 C2.2484557 0.00097199 4.49349268 -0.040637 6.74145508 -0.08496094 C8.1730886 -0.09016859 9.60473396 -0.09285612 11.03637695 -0.09277344 C12.33696045 -0.09986328 13.63754395 -0.10695313 14.97753906 -0.11425781 C18.3215332 0.50097656 18.3215332 0.50097656 20.67041016 2.84790039 C22.46742571 5.73540121 24.07003534 8.63618923 25.5715332 11.68847656 C26.35270508 13.25662109 26.35270508 13.25662109 27.1496582 14.85644531 C28.3215332 17.50097656 28.3215332 17.50097656 28.3215332 19.50097656 C11.1615332 19.50097656 -5.9984668 19.50097656 -23.6784668 19.50097656 C-22.33680508 15.47599142 -21.0993923 12.04769603 -19.2409668 8.31347656 C-18.82975586 7.47429687 -18.41854492 6.63511719 -17.99487305 5.77050781 C-13.82633981 -1.41619192 -7.53885579 -0.02305712 0 0 Z " fill="#AEA1AB" transform="translate(241.678466796875,365.4990234375)"/>
<path d="M0 0 C5.33691662 -0.35579444 5.33691662 -0.35579444 7.85229492 0.99389648 C9.68286517 4.19359777 9.40640995 7.51193744 9.36328125 11.09765625 C9.36402901 12.28276039 9.36402901 12.28276039 9.36479187 13.49180603 C9.36245308 15.16033445 9.35273594 16.82886651 9.33618164 18.49731445 C9.31255565 21.05647164 9.31562592 23.61458937 9.32226562 26.17382812 C9.31668992 27.79427707 9.30958071 29.41472161 9.30078125 31.03515625 C9.30214836 32.18673973 9.30214836 32.18673973 9.30354309 33.36158752 C9.23104034 38.76895966 9.23104034 38.76895966 7 41 C4.15459858 41.19990227 1.40862216 41.27976976 -1.4375 41.265625 C-2.27337646 41.26753845 -3.10925293 41.2694519 -3.97045898 41.27142334 C-5.73909811 41.27278536 -7.50774723 41.26908776 -9.27636719 41.26074219 C-11.98915994 41.25004275 -14.70129044 41.26063676 -17.4140625 41.2734375 C-19.1302098 41.27211591 -20.84635669 41.26955352 -22.5625 41.265625 C-23.37710693 41.26967346 -24.19171387 41.27372192 -25.03100586 41.27789307 C-30.77008072 41.22991928 -30.77008072 41.22991928 -33 39 C-33.26991906 36.31160615 -33.08737357 33.70858064 -33 31 C-32.06615479 30.97494385 -31.13230957 30.9498877 -30.17016602 30.92407227 C-26.71674811 30.82913072 -23.2635104 30.72988742 -19.81030273 30.62768555 C-18.31360731 30.58428187 -16.81686061 30.54261087 -15.32006836 30.50268555 C-13.17285688 30.44511384 -11.02590479 30.38138284 -8.87890625 30.31640625 C-7.5854126 30.27974854 -6.29191895 30.24309082 -4.95922852 30.20532227 C-2.11444992 30.3332722 -2.11444992 30.3332722 -1 29 C-0.84141158 26.85613343 -0.74870702 24.70733162 -0.68359375 22.55859375 C-0.62075195 20.60083008 -0.62075195 20.60083008 -0.55664062 18.60351562 C-0.51682392 17.2148467 -0.47711175 15.82617478 -0.4375 14.4375 C-0.39432011 13.04490817 -0.350706 11.65232972 -0.30664062 10.25976562 C-0.20014124 6.83995199 -0.09813077 3.42006237 0 0 Z " fill="#867984" transform="translate(235,306)"/>
<path d="M0 0 C5.34689304 -0.35645954 5.34689304 -0.35645954 7.85009766 1.00976562 C9.65494019 4.13356102 9.42720864 7.33452944 9.3984375 10.84375 C9.40130768 11.60925171 9.40417786 12.37475342 9.40713501 13.16345215 C9.409175 14.78068787 9.40364963 16.3979483 9.39111328 18.01513672 C9.37505758 20.49112091 9.39096297 22.96547285 9.41015625 25.44140625 C9.40817381 27.01302444 9.4043301 28.58464161 9.3984375 30.15625 C9.40754654 31.26728088 9.40754654 31.26728088 9.4168396 32.40075684 C9.3787903 35.18034153 9.2723888 37.46680074 7.99487305 39.9675293 C4.71295275 41.66612689 1.29178573 41.40547491 -2.31640625 41.36328125 C-3.53480446 41.36402901 -3.53480446 41.36402901 -4.77781677 41.36479187 C-6.49342294 41.36245283 -8.20903264 41.35273428 -9.92456055 41.33618164 C-12.55613735 41.31255712 -15.18670326 41.31562562 -17.81835938 41.32226562 C-19.48438106 41.3166899 -21.15039847 41.30958068 -22.81640625 41.30078125 C-23.60600235 41.30169266 -24.39559845 41.30260406 -25.2091217 41.30354309 C-30.76896208 41.23103792 -30.76896208 41.23103792 -33 39 C-33.26991906 36.31160615 -33.08737357 33.70858064 -33 31 C-32.06615479 30.97494385 -31.13230957 30.9498877 -30.17016602 30.92407227 C-26.71674811 30.82913072 -23.2635104 30.72988742 -19.81030273 30.62768555 C-18.31360731 30.58428187 -16.81686061 30.54261087 -15.32006836 30.50268555 C-13.17285688 30.44511384 -11.02590479 30.38138284 -8.87890625 30.31640625 C-7.5854126 30.27974854 -6.29191895 30.24309082 -4.95922852 30.20532227 C-2.11444992 30.3332722 -2.11444992 30.3332722 -1 29 C-0.84141158 26.85613343 -0.74870702 24.70733162 -0.68359375 22.55859375 C-0.62075195 20.60083008 -0.62075195 20.60083008 -0.55664062 18.60351562 C-0.51682392 17.2148467 -0.47711175 15.82617478 -0.4375 14.4375 C-0.39432011 13.04490817 -0.350706 11.65232972 -0.30664062 10.25976562 C-0.20014124 6.83995199 -0.09813077 3.42006237 0 0 Z " fill="#867884" transform="translate(143,306)"/>
<path d="M0 0 C2.31 0 4.62 0 7 0 C9.54565412 2.54565412 9.2472401 4.19175714 9.27789307 7.6640625 C9.2738446 8.43492187 9.26979614 9.20578125 9.265625 10 C9.26849518 11.18722656 9.26849518 11.18722656 9.27142334 12.3984375 C9.27278518 14.0729199 9.26908882 15.74741285 9.26074219 17.421875 C9.2500424 19.98982381 9.26063725 22.55707303 9.2734375 25.125 C9.2721159 26.75000155 9.26955351 28.37500266 9.265625 30 C9.26967346 30.77085937 9.27372192 31.54171875 9.27789307 32.3359375 C9.22992132 37.77007868 9.22992132 37.77007868 7 40 C4.0707697 40.18768653 1.23771603 40.25553641 -1.69140625 40.23046875 C-2.55185043 40.23001053 -3.41229462 40.22955231 -4.29881287 40.2290802 C-6.11873757 40.22605705 -7.93865967 40.21816888 -9.75854492 40.20581055 C-12.55461724 40.18755148 -15.35035866 40.18530085 -18.14648438 40.18554688 C-19.91146122 40.1806319 -21.6764358 40.17480367 -23.44140625 40.16796875 C-24.28304825 40.16685593 -25.12469025 40.1657431 -25.99183655 40.16459656 C-31.88395295 40.11604705 -31.88395295 40.11604705 -33 39 C-33 36.36 -33 33.72 -33 31 C-22.44 30.67 -11.88 30.34 -1 30 C-0.67 20.1 -0.34 10.2 0 0 Z " fill="#847784" transform="translate(143,397)"/>
<path d="M0 0 C2.31 0 4.62 0 7 0 C9.54565412 2.54565412 9.2472401 4.19175714 9.27789307 7.6640625 C9.2738446 8.43492187 9.26979614 9.20578125 9.265625 10 C9.26849518 11.18722656 9.26849518 11.18722656 9.27142334 12.3984375 C9.27278518 14.0729199 9.26908882 15.74741285 9.26074219 17.421875 C9.2500424 19.98982381 9.26063725 22.55707303 9.2734375 25.125 C9.2721159 26.75000155 9.26955351 28.37500266 9.265625 30 C9.26967346 30.77085937 9.27372192 31.54171875 9.27789307 32.3359375 C9.22992132 37.77007868 9.22992132 37.77007868 7 40 C4.0707697 40.18768653 1.23771603 40.25553641 -1.69140625 40.23046875 C-2.55185043 40.23001053 -3.41229462 40.22955231 -4.29881287 40.2290802 C-6.11873757 40.22605705 -7.93865967 40.21816888 -9.75854492 40.20581055 C-12.55461724 40.18755148 -15.35035866 40.18530085 -18.14648438 40.18554688 C-19.91146122 40.1806319 -21.6764358 40.17480367 -23.44140625 40.16796875 C-24.28304825 40.16685593 -25.12469025 40.1657431 -25.99183655 40.16459656 C-31.88395295 40.11604705 -31.88395295 40.11604705 -33 39 C-33 36.36 -33 33.72 -33 31 C-22.44 30.67 -11.88 30.34 -1 30 C-0.67 20.1 -0.34 10.2 0 0 Z " fill="#847784" transform="translate(143,216)"/>
<path d="M0 0 C3.375 -0.125 3.375 -0.125 7 0 C9.54565412 2.54565412 9.2472401 4.19175714 9.27789307 7.6640625 C9.2738446 8.43492187 9.26979614 9.20578125 9.265625 10 C9.26849518 11.18722656 9.26849518 11.18722656 9.27142334 12.3984375 C9.27278518 14.0729199 9.26908882 15.74741285 9.26074219 17.421875 C9.2500424 19.98982381 9.26063725 22.55707303 9.2734375 25.125 C9.2721159 26.75000155 9.26955351 28.37500266 9.265625 30 C9.26967346 30.77085937 9.27372192 31.54171875 9.27789307 32.3359375 C9.22992132 37.77007868 9.22992132 37.77007868 7 40 C4.05903263 40.17539436 1.21346651 40.23132375 -1.7265625 40.1953125 C-2.58937836 40.1924826 -3.45219421 40.18965271 -4.34115601 40.18673706 C-7.1025772 40.17552333 -9.8636765 40.15041684 -12.625 40.125 C-14.49478699 40.11497173 -16.36457905 40.10584562 -18.234375 40.09765625 C-22.82304109 40.07558012 -27.41146593 40.04104234 -32 40 C-33.4783226 37.04335481 -33.06032783 34.25770263 -33 31 C-32.06615479 30.97494385 -31.13230957 30.9498877 -30.17016602 30.92407227 C-26.71674811 30.82913072 -23.2635104 30.72988742 -19.81030273 30.62768555 C-18.31360731 30.58428187 -16.81686061 30.54261087 -15.32006836 30.50268555 C-13.17285688 30.44511384 -11.02590479 30.38138284 -8.87890625 30.31640625 C-7.5854126 30.27974854 -6.29191895 30.24309082 -4.95922852 30.20532227 C-2.11444992 30.3332722 -2.11444992 30.3332722 -1 29 C-0.84141158 26.85613343 -0.74870702 24.70733162 -0.68359375 22.55859375 C-0.62075195 20.60083008 -0.62075195 20.60083008 -0.55664062 18.60351562 C-0.51682392 17.2148467 -0.47711175 15.82617478 -0.4375 14.4375 C-0.39432011 13.04490817 -0.350706 11.65232972 -0.30664062 10.25976562 C-0.20014124 6.83995199 -0.09813077 3.42006237 0 0 Z " fill="#857884" transform="translate(235,216)"/>
<path d="M0 0 C1.66259766 1.15625 1.66259766 1.15625 3 3 C3.38818359 5.6796875 3.38818359 5.6796875 3.3984375 8.875 C3.40230469 10.02484375 3.40617188 11.1746875 3.41015625 12.359375 C3.39855469 13.56078125 3.38695312 14.7621875 3.375 16 C3.38660156 17.20140625 3.39820313 18.4028125 3.41015625 19.640625 C3.40628906 20.79046875 3.40242187 21.9403125 3.3984375 23.125 C3.39505371 24.17945313 3.39166992 25.23390625 3.38818359 26.3203125 C3 29 3 29 1.66259766 30.84375 C-0.93168324 32.64793713 -2.9345097 32.38318629 -6 32 C-7.66259766 30.84375 -7.66259766 30.84375 -9 29 C-9.38818359 26.3203125 -9.38818359 26.3203125 -9.3984375 23.125 C-9.40230469 21.97515625 -9.40617188 20.8253125 -9.41015625 19.640625 C-9.39855469 18.43921875 -9.38695312 17.2378125 -9.375 16 C-9.38660156 14.79859375 -9.39820313 13.5971875 -9.41015625 12.359375 C-9.40628906 11.20953125 -9.40242187 10.0596875 -9.3984375 8.875 C-9.39505371 7.82054687 -9.39166992 6.76609375 -9.38818359 5.6796875 C-9 3 -9 3 -7.66259766 1.15625 C-5.06831676 -0.64793713 -3.0654903 -0.38318629 0 0 Z " fill="#A37767" transform="translate(247,409)"/>
</svg>
