<?xml version="1.0" encoding="UTF-8"?>
<svg version="1.1" xmlns="http://www.w3.org/2000/svg" width="512" height="512">
<path d="M0 0 C2.57976631 2.19474915 5.12277126 4.42891729 7.6652832 6.66674805 C8.82157227 7.6393457 8.82157227 7.6393457 10.0012207 8.6315918 C14.00441885 12.01360402 17.51251598 15.58678185 20.89575195 19.58862305 C22.07853783 20.97767843 23.29013598 22.34268942 24.52856445 23.68237305 C45.34844966 46.21291014 59.17869367 74.80855591 67.4777832 104.10424805 C67.67267334 104.7885791 67.86756348 105.47291016 68.06835938 106.17797852 C69.21101893 110.40113543 70.02503743 114.62607926 70.73046875 118.94433594 C70.90668259 120.01800919 71.08289642 121.09168243 71.26445007 122.19789124 C71.46286247 123.41997536 71.46286247 123.41997536 71.6652832 124.66674805 C72.38302917 124.6578656 73.10077515 124.64898315 73.840271 124.63983154 C80.60835914 124.55964315 87.37637617 124.49876212 94.14481735 124.45949936 C97.6245019 124.43863497 101.10379354 124.41033984 104.58325195 124.36499023 C108.58459214 124.31316577 112.58552039 124.29379351 116.5871582 124.27612305 C117.83519226 124.25547791 119.08322632 124.23483276 120.36907959 124.21356201 C121.52998108 124.21325989 122.69088257 124.21295776 123.88696289 124.21264648 C125.41918488 124.19932281 125.41918488 124.19932281 126.98236084 124.18572998 C130.37571352 124.79412028 131.54752112 126.00497369 133.6652832 128.66674805 C134.37410623 131.57459686 134.00500109 133.60928705 133.6652832 136.66674805 C131.85365053 139.34106294 130.78767243 139.62595164 127.6652832 140.66674805 C125.90120193 140.75474276 124.13394554 140.78439062 122.36767578 140.78027344 C121.28678177 140.78019791 120.20588776 140.78012238 119.09223938 140.78004456 C117.92653915 140.77488327 116.76083893 140.76972198 115.55981445 140.7644043 C114.36547287 140.76298935 113.17113129 140.7615744 111.94059753 140.76011658 C108.11963413 140.75451154 104.29872895 140.74195815 100.4777832 140.72924805 C97.88989342 140.7242337 95.30200273 140.71967068 92.71411133 140.71557617 C86.36447946 140.70454047 80.01489121 140.68727242 73.6652832 140.66674805 C73.6652832 145.28674805 73.6652832 149.90674805 73.6652832 154.66674805 C74.80676315 154.6578656 75.9482431 154.64898315 77.12431335 154.63983154 C87.88020207 154.5587547 98.63602881 154.49878687 109.39215374 154.45949936 C114.92204712 154.43862221 120.45169388 154.41030185 125.98144531 154.36499023 C131.31770567 154.32153762 136.65372875 154.2976119 141.99015236 154.28723907 C144.02634224 154.2798467 146.06251911 154.26541117 148.09860802 154.24382782 C150.95013901 154.21480189 153.80068886 154.21079174 156.65234375 154.21264648 C157.49463531 154.19826538 158.33692688 154.18388428 159.20474243 154.16906738 C163.23422989 154.19743802 165.1936979 154.36970481 168.68708801 156.57012939 C170.80809973 158.81811419 171.34962274 159.62856387 171.2902832 162.66674805 C171.30317383 163.32674805 171.31606445 163.98674805 171.3293457 164.66674805 C170.2609639 167.88446265 168.50999529 168.87491427 165.6652832 170.66674805 C162.65652979 171.23023033 159.70561809 171.17298055 156.65234375 171.12084961 C155.75428513 171.12143372 154.8562265 171.12201782 153.93095398 171.12261963 C150.97090627 171.11983917 148.01187314 171.08874885 145.05200195 171.05737305 C142.99649099 171.04991053 140.9409729 171.04421765 138.88545227 171.04022217 C133.48151934 171.02496679 128.07801804 170.98568549 122.67425537 170.94140625 C117.15765217 170.90045166 111.64097906 170.88221073 106.12426758 170.86206055 C95.30441672 170.81919141 84.48488589 170.75094098 73.6652832 170.66674805 C73.60469727 171.50979492 73.54411133 172.3528418 73.48168945 173.22143555 C73.39790039 174.31713867 73.31411133 175.4128418 73.2277832 176.54174805 C73.14657227 177.63229492 73.06536133 178.7228418 72.98168945 179.84643555 C72.6652832 182.66674805 72.6652832 182.66674805 71.6652832 184.66674805 C72.70098701 184.65675529 72.70098701 184.65675529 73.75761414 184.64656067 C80.94383081 184.58019159 88.12996041 184.53494067 95.31640625 184.50195312 C97.99847874 184.48856102 100.68033812 184.46768728 103.36230469 184.44042969 C107.21726571 184.40404194 111.07190053 184.38702005 114.92700195 184.3737793 C116.12612717 184.35829544 117.32525238 184.34281158 118.56071472 184.32685852 C119.68149918 184.32663193 120.80228363 184.32640533 121.95703125 184.32617188 C122.94076218 184.31951004 123.9244931 184.31284821 124.93803406 184.3059845 C128.16735585 184.73316278 130.04523404 185.76179984 132.6652832 187.66674805 C134.21115196 190.75848556 133.95887842 193.26104357 133.6652832 196.66674805 C131.55546006 199.49263523 130.37687421 200.54436303 126.86846924 201.14776611 C125.79369324 201.13888367 124.71891724 201.13000122 123.61157227 201.12084961 C122.39060852 201.12054749 121.16964478 201.12024536 119.91168213 201.11993408 C118.59802673 201.09928894 117.28437134 201.0786438 115.9309082 201.05737305 C114.56899853 201.04990891 113.20707808 201.04421679 111.84515381 201.04022217 C108.26757952 201.02497896 104.69065899 200.98570986 101.11334229 200.94140625 C97.46017296 200.90042437 93.80689759 200.88220501 90.15356445 200.86206055 C82.9905066 200.81921315 75.82798664 200.75097919 68.6652832 200.66674805 C68.53041504 201.87903076 68.39554687 203.09131348 68.2565918 204.34033203 C64.82962287 231.6118255 48.50901031 260.37342849 31.06762695 281.24121094 C28.25380855 284.50103006 28.25380855 284.50103006 27.6652832 288.66674805 C29.01241808 290.45151604 29.01241808 290.45151604 30.87817383 292.22021484 C31.57890015 292.92071457 32.27962646 293.62121429 33.00158691 294.34294128 C33.76716919 295.0930397 34.53275146 295.84313812 35.3215332 296.6159668 C36.09839478 297.38858353 36.87525635 298.16120026 37.67565918 298.95722961 C40.16526847 301.4300092 42.66509279 303.89217175 45.1652832 306.35424805 C46.85216286 308.0260865 48.53836978 309.69860403 50.22387695 311.37182617 C54.36323034 315.4780533 58.51102427 319.57560446 62.6652832 323.66674805 C63.81154643 322.68808467 64.95728108 321.70880217 66.1027832 320.72924805 C66.74086914 320.18397461 67.37895508 319.63870117 68.03637695 319.0769043 C68.93519469 318.2987911 69.82464848 317.50738277 70.6652832 316.66674805 C74.5456923 316.29679902 76.86106212 316.14490215 80.18205929 318.29984283 C80.95728719 319.07113274 81.73251509 319.84242264 82.53123474 320.63708496 C83.43275772 321.51742401 84.3342807 322.39776306 85.26312256 323.30477905 C86.23924958 324.29292043 87.21500635 325.28142767 88.19042969 326.27026367 C89.2343499 327.30305668 90.27974351 328.33436223 91.32649231 329.36428833 C94.16079607 332.16243291 96.97246869 334.9823318 99.77952456 337.80777931 C102.12612677 340.16555632 104.48369339 342.51220972 106.84139591 344.85887861 C112.40382574 350.39545006 117.94832715 355.94952654 123.48144531 361.51538086 C129.18769297 367.25487407 134.92060512 372.96666654 140.66784996 378.66508341 C145.60406887 383.56097943 150.52455648 388.47228836 155.4324823 393.39654684 C158.36271676 396.33638211 161.2982511 399.27034985 164.24847221 402.19013977 C167.02216719 404.93679108 169.77561663 407.70226075 172.51478386 410.48333359 C173.52210911 411.49962474 174.53627563 412.50918801 175.5576973 413.51131058 C184.22312547 422.02660445 184.22312547 422.02660445 184.47084045 427.06262207 C183.64425144 430.76084577 183.0236017 432.31717021 180.39575195 434.97143555 C179.68080566 435.71159912 178.96585937 436.4517627 178.22924805 437.21435547 C177.44501465 437.98239502 176.66078125 438.75043457 175.8527832 439.54174805 C175.05050293 440.35168213 174.24822266 441.16161621 173.42163086 441.99609375 C171.72312278 443.70003627 170.01450757 445.39395547 168.29663086 447.07836914 C165.67384414 449.6583269 163.09645367 452.27815796 160.52075195 454.9050293 C158.86315464 456.55733999 157.2030773 458.20716722 155.5402832 459.85424805 C154.77224365 460.63848145 154.0042041 461.42271484 153.21289062 462.23071289 C152.47272705 462.94565918 151.73256348 463.66060547 150.9699707 464.3972168 C150.0106665 465.34697388 150.0106665 465.34697388 149.03198242 466.31591797 C146.3287792 467.8588129 144.0805981 468.52245023 140.94960022 468.36844063 C135.58287273 466.71989849 131.86285791 461.95748914 128.02661133 458.04736328 C126.98276523 457.01272619 125.93721706 455.97980391 124.8901062 454.94847107 C122.0578027 452.1483187 119.25126388 449.32360073 116.4496479 446.49278522 C113.51243657 443.5315672 110.55532121 440.59033811 107.60119629 437.64601135 C102.64438972 432.69917852 97.70432965 427.7360808 92.77368164 422.76318359 C87.07473195 417.01584286 81.34940871 411.295844 75.60936785 405.58956379 C70.0851312 400.09645339 64.58082229 394.58377611 59.08506775 389.06218147 C56.74709971 386.7140045 54.40224426 384.37304013 52.05152893 382.03762627 C49.28403679 379.28647236 46.53437648 376.51864618 43.79748917 373.73705482 C42.7909004 372.71962117 41.77832331 371.70807187 40.75941086 370.70298004 C39.36861478 369.32909401 38.00145604 367.93140213 36.63562012 366.53269958 C35.86433022 365.75747169 35.09304031 364.98224379 34.29837799 364.18352413 C32.12961756 360.84122923 32.26224 358.57505826 32.6652832 354.66674805 C34.1965332 352.4519043 34.1965332 352.4519043 36.1652832 350.72924805 C36.8149707 350.14272461 37.4646582 349.55620117 38.1340332 348.9519043 C38.6393457 348.52780273 39.1446582 348.10370117 39.6652832 347.66674805 C35.48750555 342.6808193 31.13401044 337.9997052 26.5168457 333.4206543 C25.85945404 332.76467758 25.20206238 332.10870087 24.52474976 331.43284607 C22.44895458 329.36259537 20.36968894 327.29587154 18.2902832 325.22924805 C16.8720824 323.81606943 15.45411144 322.40266011 14.03637695 320.98901367 C10.58199544 317.5455874 7.12449951 314.10531705 3.6652832 310.66674805 C2.407272 311.60921841 1.14940693 312.55188385 -0.10839844 313.49462891 C-0.80888809 314.01955429 -1.50937775 314.54447968 -2.23109436 315.08531189 C-4.14450581 316.5237535 -6.05086101 317.97104116 -7.95581055 319.4206543 C-29.52754677 335.47727724 -62.43376308 354.66674805 -90.3347168 354.66674805 C-90.32583435 355.35721725 -90.3169519 356.04768646 -90.30780029 356.75907898 C-90.21930864 363.94525881 -90.15897449 371.13128387 -90.11499023 378.31787109 C-90.09713355 381.00002628 -90.06930244 383.68180265 -90.03295898 386.36376953 C-89.98444138 390.21877871 -89.96174686 394.07320803 -89.9440918 397.9284668 C-89.91312408 399.72715462 -89.91312408 399.72715462 -89.88153076 401.56217957 C-89.87928811 409.88172033 -89.87928811 409.88172033 -92.21069336 413.90039062 C-94.75636639 416.01739572 -96.0140729 416.66674805 -99.3347168 416.66674805 C-104.97327101 414.38963961 -104.97327101 414.38963961 -106.3347168 411.66674805 C-106.42543967 409.91005575 -106.45225824 408.14989795 -106.44824219 406.39086914 C-106.44816666 405.28987885 -106.44809113 404.18888855 -106.44801331 403.05453491 C-106.44285202 401.86179962 -106.43769073 400.66906433 -106.43237305 399.44018555 C-106.43025063 397.61325668 -106.43025063 397.61325668 -106.42808533 395.74942017 C-106.42247318 391.84683815 -106.40991859 387.94431282 -106.3972168 384.04174805 C-106.39220336 381.40112387 -106.38764019 378.7604988 -106.38354492 376.11987305 C-106.3724998 369.6354786 -106.35574981 363.15111737 -106.3347168 356.66674805 C-106.88643555 356.83045898 -107.4381543 356.99416992 -108.0065918 357.1628418 C-110.60085687 357.72435219 -112.9330709 357.76413812 -115.5847168 357.72924805 C-116.47674805 357.72022461 -117.3687793 357.71120117 -118.2878418 357.7019043 C-119.30104492 357.68450195 -119.30104492 357.68450195 -120.3347168 357.66674805 C-120.32472404 359.30379951 -120.32472404 359.30379951 -120.31452942 360.97392273 C-120.25371492 371.2589186 -120.20874249 381.54387799 -120.17928028 391.82901287 C-120.16362427 397.11671632 -120.142387 402.40427462 -120.10839844 407.69189453 C-120.07580295 412.79472595 -120.0578633 417.89741774 -120.05008507 423.00034523 C-120.04454192 424.9472047 -120.03371754 426.89405652 -120.01752663 428.84085655 C-119.99574993 431.56773774 -119.99274998 434.29404195 -119.99414062 437.02099609 C-119.9833548 437.8258847 -119.97256897 438.63077332 -119.9614563 439.46005249 C-119.98676283 444.04591155 -120.44218889 447.04783663 -123.3347168 450.66674805 C-126.3347168 452.66674805 -126.3347168 452.66674805 -129.8347168 452.47924805 C-133.34892473 451.66344978 -134.22655732 451.39563084 -136.3347168 448.66674805 C-136.61544504 445.69773486 -136.71340071 442.94095058 -136.67529297 439.97265625 C-136.67573105 439.08464325 -136.67616913 438.19663025 -136.67662048 437.28170776 C-136.67452869 434.34342543 -136.6511792 431.40571208 -136.62768555 428.4675293 C-136.62209098 426.43157768 -136.61782023 424.39562202 -136.61482239 422.35966492 C-136.60336265 416.99853382 -136.57388566 411.63764617 -136.54071045 406.27661133 C-136.51003394 400.80708103 -136.49632222 395.33751143 -136.48120117 389.86791992 C-136.44901713 379.13408894 -136.39780706 368.40043873 -136.3347168 357.66674805 C-137.5722168 357.67706055 -138.8097168 357.68737305 -140.0847168 357.69799805 C-142.88251064 357.69799805 -145.56888779 357.62771955 -148.3347168 357.16674805 C-149.3247168 357.00174805 -150.3147168 356.83674805 -151.3347168 356.66674805 C-151.32583435 357.34690979 -151.3169519 358.02707153 -151.30780029 358.72784424 C-151.21937762 365.80032964 -151.15900329 372.8726583 -151.11499023 379.94555664 C-151.09486204 382.58592099 -151.06755692 385.22624069 -151.03295898 387.86645508 C-150.9844963 391.65937306 -150.9617596 395.45170221 -150.9440918 399.24487305 C-150.92344666 400.42728577 -150.90280151 401.60969849 -150.88153076 402.82794189 C-150.88122864 403.92878113 -150.88092651 405.02962036 -150.88061523 406.16381836 C-150.87173279 407.132005 -150.86285034 408.10019165 -150.85369873 409.09771729 C-151.47294651 412.40500804 -152.76701251 413.56769641 -155.3347168 415.66674805 C-157.97528753 416.85926386 -159.07866005 416.7354462 -161.8972168 415.97924805 C-164.68582604 414.47768922 -165.70820088 413.36787221 -167.3347168 410.66674805 C-167.69548035 408.02178955 -167.69548035 408.02178955 -167.67529297 404.98022461 C-167.67506638 403.83934387 -167.67483978 402.69846313 -167.67460632 401.52301025 C-167.65912247 400.29684998 -167.64363861 399.0706897 -167.62768555 397.80737305 C-167.6234407 396.54785828 -167.61919586 395.28834351 -167.61482239 393.99066162 C-167.60087801 390.64986267 -167.57394605 387.30968221 -167.54071045 383.96905518 C-167.50996518 380.55714247 -167.49630758 377.14516575 -167.48120117 373.7331543 C-167.44811494 367.04418156 -167.39790204 360.3555005 -167.3347168 353.66674805 C-169.17151001 353.45634888 -169.17151001 353.45634888 -171.04541016 353.24169922 C-174.10605534 352.85776692 -177.00059701 352.34706584 -179.96362305 351.4675293 C-180.7626001 351.23146973 -181.56157715 350.99541016 -182.38476562 350.75219727 C-183.62842896 350.3695874 -183.62842896 350.3695874 -184.8972168 349.97924805 C-185.77853271 349.70870605 -186.65984863 349.43816406 -187.56787109 349.15942383 C-215.59600124 340.39951972 -240.358599 326.00936412 -262.3347168 306.66674805 C-263.10557617 306.01834961 -263.87643555 305.36995117 -264.6706543 304.7019043 C-268.67758258 301.31674075 -272.18891208 297.74082464 -275.57299805 293.7331543 C-276.72646545 292.38019585 -277.91090259 291.05290305 -279.12768555 289.7565918 C-301.86550347 265.42478251 -316.64866659 233.78027248 -324.3347168 201.66674805 C-324.67140381 200.26658447 -324.67140381 200.26658447 -325.01489258 198.83813477 C-331.26812278 171.3152835 -331.09017698 139.05875099 -324.3347168 111.66674805 C-324.12041016 110.77729492 -323.90610352 109.8878418 -323.68530273 108.97143555 C-311.08420751 58.05347288 -279.38033736 13.46236399 -234.8972168 -14.52075195 C-232.7208461 -15.81055201 -230.53265323 -17.08055524 -228.3347168 -18.33325195 C-227.71580566 -18.68983887 -227.09689453 -19.04642578 -226.45922852 -19.41381836 C-209.57674438 -29.05677228 -191.29823078 -36.04270941 -172.3347168 -40.33325195 C-171.48683594 -40.52935059 -170.63895508 -40.72544922 -169.76538086 -40.92749023 C-110.99412636 -53.90640758 -46.22371303 -38.52740909 0 0 Z " fill="#EFF0F0" transform="translate(328.334716796875,44.333251953125)"/>
<path d="M0 0 C2.57976631 2.19474915 5.12277126 4.42891729 7.6652832 6.66674805 C8.82157227 7.6393457 8.82157227 7.6393457 10.0012207 8.6315918 C14.00441885 12.01360402 17.51251598 15.58678185 20.89575195 19.58862305 C22.07853783 20.97767843 23.29013598 22.34268942 24.52856445 23.68237305 C45.34844966 46.21291014 59.17869367 74.80855591 67.4777832 104.10424805 C67.67267334 104.7885791 67.86756348 105.47291016 68.06835938 106.17797852 C69.21101893 110.40113543 70.02503743 114.62607926 70.73046875 118.94433594 C70.90668259 120.01800919 71.08289642 121.09168243 71.26445007 122.19789124 C71.46286247 123.41997536 71.46286247 123.41997536 71.6652832 124.66674805 C72.38302917 124.6578656 73.10077515 124.64898315 73.840271 124.63983154 C80.60835914 124.55964315 87.37637617 124.49876212 94.14481735 124.45949936 C97.6245019 124.43863497 101.10379354 124.41033984 104.58325195 124.36499023 C108.58459214 124.31316577 112.58552039 124.29379351 116.5871582 124.27612305 C117.83519226 124.25547791 119.08322632 124.23483276 120.36907959 124.21356201 C121.52998108 124.21325989 122.69088257 124.21295776 123.88696289 124.21264648 C125.41918488 124.19932281 125.41918488 124.19932281 126.98236084 124.18572998 C130.37571352 124.79412028 131.54752112 126.00497369 133.6652832 128.66674805 C134.37410623 131.57459686 134.00500109 133.60928705 133.6652832 136.66674805 C131.85365053 139.34106294 130.78767243 139.62595164 127.6652832 140.66674805 C125.90120193 140.75474276 124.13394554 140.78439062 122.36767578 140.78027344 C121.28678177 140.78019791 120.20588776 140.78012238 119.09223938 140.78004456 C117.92653915 140.77488327 116.76083893 140.76972198 115.55981445 140.7644043 C114.36547287 140.76298935 113.17113129 140.7615744 111.94059753 140.76011658 C108.11963413 140.75451154 104.29872895 140.74195815 100.4777832 140.72924805 C97.88989342 140.7242337 95.30200273 140.71967068 92.71411133 140.71557617 C86.36447946 140.70454047 80.01489121 140.68727242 73.6652832 140.66674805 C73.6652832 145.28674805 73.6652832 149.90674805 73.6652832 154.66674805 C74.80676315 154.6578656 75.9482431 154.64898315 77.12431335 154.63983154 C87.88020207 154.5587547 98.63602881 154.49878687 109.39215374 154.45949936 C114.92204712 154.43862221 120.45169388 154.41030185 125.98144531 154.36499023 C131.31770567 154.32153762 136.65372875 154.2976119 141.99015236 154.28723907 C144.02634224 154.2798467 146.06251911 154.26541117 148.09860802 154.24382782 C150.95013901 154.21480189 153.80068886 154.21079174 156.65234375 154.21264648 C157.49463531 154.19826538 158.33692688 154.18388428 159.20474243 154.16906738 C163.23422989 154.19743802 165.1936979 154.36970481 168.68708801 156.57012939 C170.80809973 158.81811419 171.34962274 159.62856387 171.2902832 162.66674805 C171.30317383 163.32674805 171.31606445 163.98674805 171.3293457 164.66674805 C170.2609639 167.88446265 168.50999529 168.87491427 165.6652832 170.66674805 C162.65652979 171.23023033 159.70561809 171.17298055 156.65234375 171.12084961 C155.75428513 171.12143372 154.8562265 171.12201782 153.93095398 171.12261963 C150.97090627 171.11983917 148.01187314 171.08874885 145.05200195 171.05737305 C142.99649099 171.04991053 140.9409729 171.04421765 138.88545227 171.04022217 C133.48151934 171.02496679 128.07801804 170.98568549 122.67425537 170.94140625 C117.15765217 170.90045166 111.64097906 170.88221073 106.12426758 170.86206055 C95.30441672 170.81919141 84.48488589 170.75094098 73.6652832 170.66674805 C73.60469727 171.50979492 73.54411133 172.3528418 73.48168945 173.22143555 C73.39790039 174.31713867 73.31411133 175.4128418 73.2277832 176.54174805 C73.14657227 177.63229492 73.06536133 178.7228418 72.98168945 179.84643555 C72.6652832 182.66674805 72.6652832 182.66674805 71.6652832 184.66674805 C72.70098701 184.65675529 72.70098701 184.65675529 73.75761414 184.64656067 C80.94383081 184.58019159 88.12996041 184.53494067 95.31640625 184.50195312 C97.99847874 184.48856102 100.68033812 184.46768728 103.36230469 184.44042969 C107.21726571 184.40404194 111.07190053 184.38702005 114.92700195 184.3737793 C116.12612717 184.35829544 117.32525238 184.34281158 118.56071472 184.32685852 C119.68149918 184.32663193 120.80228363 184.32640533 121.95703125 184.32617188 C122.94076218 184.31951004 123.9244931 184.31284821 124.93803406 184.3059845 C128.16735585 184.73316278 130.04523404 185.76179984 132.6652832 187.66674805 C134.21115196 190.75848556 133.95887842 193.26104357 133.6652832 196.66674805 C131.55546006 199.49263523 130.37687421 200.54436303 126.86846924 201.14776611 C125.79369324 201.13888367 124.71891724 201.13000122 123.61157227 201.12084961 C122.39060852 201.12054749 121.16964478 201.12024536 119.91168213 201.11993408 C118.59802673 201.09928894 117.28437134 201.0786438 115.9309082 201.05737305 C114.56899853 201.04990891 113.20707808 201.04421679 111.84515381 201.04022217 C108.26757952 201.02497896 104.69065899 200.98570986 101.11334229 200.94140625 C97.46017296 200.90042437 93.80689759 200.88220501 90.15356445 200.86206055 C82.9905066 200.81921315 75.82798664 200.75097919 68.6652832 200.66674805 C68.53041504 201.87903076 68.39554687 203.09131348 68.2565918 204.34033203 C64.82962287 231.6118255 48.50901031 260.37342849 31.06762695 281.24121094 C28.25380855 284.50103006 28.25380855 284.50103006 27.6652832 288.66674805 C29.01241808 290.45151604 29.01241808 290.45151604 30.87817383 292.22021484 C31.57890015 292.92071457 32.27962646 293.62121429 33.00158691 294.34294128 C33.76716919 295.0930397 34.53275146 295.84313812 35.3215332 296.6159668 C36.09839478 297.38858353 36.87525635 298.16120026 37.67565918 298.95722961 C40.16526847 301.4300092 42.66509279 303.89217175 45.1652832 306.35424805 C46.85216286 308.0260865 48.53836978 309.69860403 50.22387695 311.37182617 C54.36323034 315.4780533 58.51102427 319.57560446 62.6652832 323.66674805 C63.81154643 322.68808467 64.95728108 321.70880217 66.1027832 320.72924805 C66.74086914 320.18397461 67.37895508 319.63870117 68.03637695 319.0769043 C68.93519469 318.2987911 69.82464848 317.50738277 70.6652832 316.66674805 C74.5456923 316.29679902 76.86106212 316.14490215 80.18205929 318.29984283 C80.95728719 319.07113274 81.73251509 319.84242264 82.53123474 320.63708496 C83.43275772 321.51742401 84.3342807 322.39776306 85.26312256 323.30477905 C86.23924958 324.29292043 87.21500635 325.28142767 88.19042969 326.27026367 C89.2343499 327.30305668 90.27974351 328.33436223 91.32649231 329.36428833 C94.16079607 332.16243291 96.97246869 334.9823318 99.77952456 337.80777931 C102.12612677 340.16555632 104.48369339 342.51220972 106.84139591 344.85887861 C112.40382574 350.39545006 117.94832715 355.94952654 123.48144531 361.51538086 C129.18769297 367.25487407 134.92060512 372.96666654 140.66784996 378.66508341 C145.60406887 383.56097943 150.52455648 388.47228836 155.4324823 393.39654684 C158.36271676 396.33638211 161.2982511 399.27034985 164.24847221 402.19013977 C167.02216719 404.93679108 169.77561663 407.70226075 172.51478386 410.48333359 C173.52210911 411.49962474 174.53627563 412.50918801 175.5576973 413.51131058 C184.22312547 422.02660445 184.22312547 422.02660445 184.47084045 427.06262207 C183.64425144 430.76084577 183.0236017 432.31717021 180.39575195 434.97143555 C179.68080566 435.71159912 178.96585937 436.4517627 178.22924805 437.21435547 C177.44501465 437.98239502 176.66078125 438.75043457 175.8527832 439.54174805 C175.05050293 440.35168213 174.24822266 441.16161621 173.42163086 441.99609375 C171.72312278 443.70003627 170.01450757 445.39395547 168.29663086 447.07836914 C165.67384414 449.6583269 163.09645367 452.27815796 160.52075195 454.9050293 C158.86315464 456.55733999 157.2030773 458.20716722 155.5402832 459.85424805 C154.77224365 460.63848145 154.0042041 461.42271484 153.21289062 462.23071289 C152.47272705 462.94565918 151.73256348 463.66060547 150.9699707 464.3972168 C150.0106665 465.34697388 150.0106665 465.34697388 149.03198242 466.31591797 C146.3287792 467.8588129 144.0805981 468.52245023 140.94960022 468.36844063 C135.58287273 466.71989849 131.86285791 461.95748914 128.02661133 458.04736328 C126.98276523 457.01272619 125.93721706 455.97980391 124.8901062 454.94847107 C122.0578027 452.1483187 119.25126388 449.32360073 116.4496479 446.49278522 C113.51243657 443.5315672 110.55532121 440.59033811 107.60119629 437.64601135 C102.64438972 432.69917852 97.70432965 427.7360808 92.77368164 422.76318359 C87.07473195 417.01584286 81.34940871 411.295844 75.60936785 405.58956379 C70.0851312 400.09645339 64.58082229 394.58377611 59.08506775 389.06218147 C56.74709971 386.7140045 54.40224426 384.37304013 52.05152893 382.03762627 C49.28403679 379.28647236 46.53437648 376.51864618 43.79748917 373.73705482 C42.7909004 372.71962117 41.77832331 371.70807187 40.75941086 370.70298004 C39.36861478 369.32909401 38.00145604 367.93140213 36.63562012 366.53269958 C35.86433022 365.75747169 35.09304031 364.98224379 34.29837799 364.18352413 C32.12961756 360.84122923 32.26224 358.57505826 32.6652832 354.66674805 C34.1965332 352.4519043 34.1965332 352.4519043 36.1652832 350.72924805 C36.8149707 350.14272461 37.4646582 349.55620117 38.1340332 348.9519043 C38.6393457 348.52780273 39.1446582 348.10370117 39.6652832 347.66674805 C35.48750555 342.6808193 31.13401044 337.9997052 26.5168457 333.4206543 C25.85945404 332.76467758 25.20206238 332.10870087 24.52474976 331.43284607 C22.44895458 329.36259537 20.36968894 327.29587154 18.2902832 325.22924805 C16.8720824 323.81606943 15.45411144 322.40266011 14.03637695 320.98901367 C10.58199544 317.5455874 7.12449951 314.10531705 3.6652832 310.66674805 C2.407272 311.60921841 1.14940693 312.55188385 -0.10839844 313.49462891 C-0.80888809 314.01955429 -1.50937775 314.54447968 -2.23109436 315.08531189 C-4.14450581 316.5237535 -6.05086101 317.97104116 -7.95581055 319.4206543 C-29.52754677 335.47727724 -62.43376308 354.66674805 -90.3347168 354.66674805 C-90.32583435 355.35721725 -90.3169519 356.04768646 -90.30780029 356.75907898 C-90.21930864 363.94525881 -90.15897449 371.13128387 -90.11499023 378.31787109 C-90.09713355 381.00002628 -90.06930244 383.68180265 -90.03295898 386.36376953 C-89.98444138 390.21877871 -89.96174686 394.07320803 -89.9440918 397.9284668 C-89.91312408 399.72715462 -89.91312408 399.72715462 -89.88153076 401.56217957 C-89.87928811 409.88172033 -89.87928811 409.88172033 -92.21069336 413.90039062 C-94.75636639 416.01739572 -96.0140729 416.66674805 -99.3347168 416.66674805 C-104.97327101 414.38963961 -104.97327101 414.38963961 -106.3347168 411.66674805 C-106.42543967 409.91005575 -106.45225824 408.14989795 -106.44824219 406.39086914 C-106.44816666 405.28987885 -106.44809113 404.18888855 -106.44801331 403.05453491 C-106.44285202 401.86179962 -106.43769073 400.66906433 -106.43237305 399.44018555 C-106.43025063 397.61325668 -106.43025063 397.61325668 -106.42808533 395.74942017 C-106.42247318 391.84683815 -106.40991859 387.94431282 -106.3972168 384.04174805 C-106.39220336 381.40112387 -106.38764019 378.7604988 -106.38354492 376.11987305 C-106.3724998 369.6354786 -106.35574981 363.15111737 -106.3347168 356.66674805 C-106.88643555 356.83045898 -107.4381543 356.99416992 -108.0065918 357.1628418 C-110.60085687 357.72435219 -112.9330709 357.76413812 -115.5847168 357.72924805 C-116.47674805 357.72022461 -117.3687793 357.71120117 -118.2878418 357.7019043 C-119.30104492 357.68450195 -119.30104492 357.68450195 -120.3347168 357.66674805 C-120.32472404 359.30379951 -120.32472404 359.30379951 -120.31452942 360.97392273 C-120.25371492 371.2589186 -120.20874249 381.54387799 -120.17928028 391.82901287 C-120.16362427 397.11671632 -120.142387 402.40427462 -120.10839844 407.69189453 C-120.07580295 412.79472595 -120.0578633 417.89741774 -120.05008507 423.00034523 C-120.04454192 424.9472047 -120.03371754 426.89405652 -120.01752663 428.84085655 C-119.99574993 431.56773774 -119.99274998 434.29404195 -119.99414062 437.02099609 C-119.9833548 437.8258847 -119.97256897 438.63077332 -119.9614563 439.46005249 C-119.98676283 444.04591155 -120.44218889 447.04783663 -123.3347168 450.66674805 C-126.3347168 452.66674805 -126.3347168 452.66674805 -129.8347168 452.47924805 C-133.34892473 451.66344978 -134.22655732 451.39563084 -136.3347168 448.66674805 C-136.61544504 445.69773486 -136.71340071 442.94095058 -136.67529297 439.97265625 C-136.67573105 439.08464325 -136.67616913 438.19663025 -136.67662048 437.28170776 C-136.67452869 434.34342543 -136.6511792 431.40571208 -136.62768555 428.4675293 C-136.62209098 426.43157768 -136.61782023 424.39562202 -136.61482239 422.35966492 C-136.60336265 416.99853382 -136.57388566 411.63764617 -136.54071045 406.27661133 C-136.51003394 400.80708103 -136.49632222 395.33751143 -136.48120117 389.86791992 C-136.44901713 379.13408894 -136.39780706 368.40043873 -136.3347168 357.66674805 C-137.5722168 357.67706055 -138.8097168 357.68737305 -140.0847168 357.69799805 C-142.88251064 357.69799805 -145.56888779 357.62771955 -148.3347168 357.16674805 C-149.3247168 357.00174805 -150.3147168 356.83674805 -151.3347168 356.66674805 C-151.32583435 357.34690979 -151.3169519 358.02707153 -151.30780029 358.72784424 C-151.21937762 365.80032964 -151.15900329 372.8726583 -151.11499023 379.94555664 C-151.09486204 382.58592099 -151.06755692 385.22624069 -151.03295898 387.86645508 C-150.9844963 391.65937306 -150.9617596 395.45170221 -150.9440918 399.24487305 C-150.92344666 400.42728577 -150.90280151 401.60969849 -150.88153076 402.82794189 C-150.88122864 403.92878113 -150.88092651 405.02962036 -150.88061523 406.16381836 C-150.87173279 407.132005 -150.86285034 408.10019165 -150.85369873 409.09771729 C-151.47294651 412.40500804 -152.76701251 413.56769641 -155.3347168 415.66674805 C-157.97528753 416.85926386 -159.07866005 416.7354462 -161.8972168 415.97924805 C-164.68582604 414.47768922 -165.70820088 413.36787221 -167.3347168 410.66674805 C-167.69548035 408.02178955 -167.69548035 408.02178955 -167.67529297 404.98022461 C-167.67506638 403.83934387 -167.67483978 402.69846313 -167.67460632 401.52301025 C-167.65912247 400.29684998 -167.64363861 399.0706897 -167.62768555 397.80737305 C-167.6234407 396.54785828 -167.61919586 395.28834351 -167.61482239 393.99066162 C-167.60087801 390.64986267 -167.57394605 387.30968221 -167.54071045 383.96905518 C-167.50996518 380.55714247 -167.49630758 377.14516575 -167.48120117 373.7331543 C-167.44811494 367.04418156 -167.39790204 360.3555005 -167.3347168 353.66674805 C-169.17151001 353.45634888 -169.17151001 353.45634888 -171.04541016 353.24169922 C-174.10605534 352.85776692 -177.00059701 352.34706584 -179.96362305 351.4675293 C-180.7626001 351.23146973 -181.56157715 350.99541016 -182.38476562 350.75219727 C-183.62842896 350.3695874 -183.62842896 350.3695874 -184.8972168 349.97924805 C-185.77853271 349.70870605 -186.65984863 349.43816406 -187.56787109 349.15942383 C-215.59600124 340.39951972 -240.358599 326.00936412 -262.3347168 306.66674805 C-263.10557617 306.01834961 -263.87643555 305.36995117 -264.6706543 304.7019043 C-268.67758258 301.31674075 -272.18891208 297.74082464 -275.57299805 293.7331543 C-276.72646545 292.38019585 -277.91090259 291.05290305 -279.12768555 289.7565918 C-301.86550347 265.42478251 -316.64866659 233.78027248 -324.3347168 201.66674805 C-324.67140381 200.26658447 -324.67140381 200.26658447 -325.01489258 198.83813477 C-331.26812278 171.3152835 -331.09017698 139.05875099 -324.3347168 111.66674805 C-324.12041016 110.77729492 -323.90610352 109.8878418 -323.68530273 108.97143555 C-311.08420751 58.05347288 -279.38033736 13.46236399 -234.8972168 -14.52075195 C-232.7208461 -15.81055201 -230.53265323 -17.08055524 -228.3347168 -18.33325195 C-227.71580566 -18.68983887 -227.09689453 -19.04642578 -226.45922852 -19.41381836 C-209.57674438 -29.05677228 -191.29823078 -36.04270941 -172.3347168 -40.33325195 C-171.48683594 -40.52935059 -170.63895508 -40.72544922 -169.76538086 -40.92749023 C-110.99412636 -53.90640758 -46.22371303 -38.52740909 0 0 Z M-202.3347168 3.66674805 C-203.58394031 4.29070093 -204.83396042 4.91306111 -206.0847168 5.53393555 C-246.89602467 26.13557156 -276.29438545 63.33701536 -290.59594727 106.34692383 C-304.46839312 149.90805419 -297.69612044 197.33568864 -277.43286133 237.61083984 C-257.03487481 276.77435986 -219.81921288 305.84639617 -178.1628418 319.39331055 C-133.80091673 333.11523897 -87.08446393 327.85956219 -46.0925293 306.4753418 C-6.19969698 285.0991755 22.69355584 247.9154059 36.203125 205.0246582 C46.24299137 171.22514589 45.80260003 133.83970783 33.6652832 100.66674805 C33.23602539 99.4653418 32.80676758 98.26393555 32.36450195 97.02612305 C16.05897109 53.85091455 -16.56193364 19.7995733 -58.37426758 0.54858398 C-103.17094468 -19.60155271 -158.61186972 -19.28774667 -202.3347168 3.66674805 Z " fill="#3A7190" transform="translate(328.334716796875,44.333251953125)"/>
<path d="M0 0 C1.23302856 0.13535156 1.23302856 0.13535156 2.4909668 0.2734375 C42.99687542 4.75021427 81.78706588 22.28963566 111.73828125 49.92578125 C113.78324667 51.80121586 115.87619475 53.59032533 118 55.375 C140.81627885 75.35069795 160.84728167 106.7595242 169 136 C169.10546875 138.8203125 169.10546875 138.8203125 169 141 C167.27091867 138.406378 166.03107385 136.02682527 164.75 133.203125 C155.43311972 112.98260199 144.17831213 96.3458746 129 80 C128.46117187 79.40703125 127.92234375 78.8140625 127.3671875 78.203125 C101.71488569 51.13285676 59.77986322 32.21107356 22.64282227 30.87963867 C-8.48168019 30.1987839 -37.98033977 33.28967838 -66 48 C-67.24922351 48.62395288 -68.49924363 49.24631306 -69.75 49.8671875 C-110.17987245 70.27627409 -139.09891223 107.08902253 -153.26123047 149.68017578 C-167.13367632 193.24130614 -160.36140364 240.66894059 -140.09814453 280.9440918 C-119.87239668 319.77691876 -83.11898005 348.29851624 -41.828125 361.7265625 C2.53380007 375.44849092 49.25025287 370.19281414 90.2421875 348.80859375 C98.73484772 344.25788861 106.5134159 339.08895809 114 333 C114.55397461 332.55285645 115.10794922 332.10571289 115.67871094 331.64501953 C140.79506137 311.2423623 157.08850871 285.85986917 169 256 C169.33 256 169.66 256 170 256 C170.4512653 260.81349651 168.72705156 264.61545217 167 269 C166.74984131 269.64952637 166.49968262 270.29905273 166.24194336 270.96826172 C152.16926573 307.27036272 128.24031349 340.63978258 96 363 C95.43958008 363.39944824 94.87916016 363.79889648 94.30175781 364.21044922 C68.33045461 382.69252067 38.4481636 394.25464386 7 399 C6.31035156 399.10973145 5.62070313 399.21946289 4.91015625 399.33251953 C-1.98656833 400.42602194 -8.02892489 401.09062092 -15 400 C-14.99111755 400.68016174 -14.98223511 401.36032349 -14.9730835 402.06109619 C-14.88466082 409.13358159 -14.82428649 416.20591025 -14.78027344 423.27880859 C-14.76014525 425.91917294 -14.73284013 428.55949265 -14.69824219 431.19970703 C-14.6497795 434.99262501 -14.6270428 438.78495416 -14.609375 442.578125 C-14.58872986 443.76053772 -14.56808472 444.94295044 -14.54681396 446.16119385 C-14.54651184 447.26203308 -14.54620972 448.36287231 -14.54589844 449.49707031 C-14.53701599 450.46525696 -14.52813354 451.4334436 -14.51898193 452.43096924 C-15.13822972 455.73825999 -16.43229572 456.90094837 -19 459 C-21.64057073 460.19251581 -22.74394325 460.06869815 -25.5625 459.3125 C-28.35110924 457.81094118 -29.37348408 456.70112416 -31 454 C-31.36076355 451.3550415 -31.36076355 451.3550415 -31.34057617 448.31347656 C-31.34034958 447.17259583 -31.34012299 446.03171509 -31.33988953 444.85626221 C-31.32440567 443.63010193 -31.30892181 442.40394165 -31.29296875 441.140625 C-31.28872391 439.88111023 -31.28447906 438.62159546 -31.28010559 437.32391357 C-31.26616121 433.98311462 -31.23922925 430.64293416 -31.20599365 427.30230713 C-31.17524839 423.89039442 -31.16159079 420.4784177 -31.14648438 417.06640625 C-31.11339814 410.37743351 -31.06318524 403.68875246 -31 397 C-32.83679321 396.78960083 -32.83679321 396.78960083 -34.71069336 396.57495117 C-37.77133854 396.19101887 -40.66588021 395.68031779 -43.62890625 394.80078125 C-44.4278833 394.56472168 -45.22686035 394.32866211 -46.05004883 394.08544922 C-47.29371216 393.70283936 -47.29371216 393.70283936 -48.5625 393.3125 C-49.44381592 393.04195801 -50.32513184 392.77141602 -51.2331543 392.49267578 C-79.26128444 383.73277167 -104.0238822 369.34261608 -126 350 C-126.77085938 349.35160156 -127.54171875 348.70320313 -128.3359375 348.03515625 C-132.34286578 344.6499927 -135.85419529 341.07407659 -139.23828125 337.06640625 C-140.39174866 335.7134478 -141.5761858 334.386155 -142.79296875 333.08984375 C-165.53078668 308.75803446 -180.3139498 277.11352444 -188 245 C-188.33668701 243.59983643 -188.33668701 243.59983643 -188.68017578 242.17138672 C-194.93340598 214.64853545 -194.75546019 182.39200294 -188 155 C-187.78569336 154.11054688 -187.57138672 153.22109375 -187.35058594 152.3046875 C-174.74949071 101.38672483 -143.04562056 56.79561594 -98.5625 28.8125 C-96.3861293 27.52269994 -94.19793643 26.25269672 -92 25 C-91.38108887 24.64341309 -90.76217773 24.28682617 -90.12451172 23.91943359 C-69.24679583 11.99447926 -46.70264392 4.6312136 -23.0625 0.625 C-22.0322168 0.44485352 -21.00193359 0.26470703 -19.94042969 0.07910156 C-13.05322801 -1.00624862 -6.89499579 -0.91907747 0 0 Z " fill="#43809F" transform="translate(192,1)"/>
<path d="M0 0 C0.33 0 0.66 0 1 0 C1 40.92 1 81.84 1 124 C21.46 124 41.92 124 63 124 C62.9603921 108.57725314 62.9603921 108.57725314 62.90991211 93.15454102 C62.90699309 91.22932999 62.9044445 89.30411835 62.90234375 87.37890625 C62.89722778 86.36920776 62.89211182 85.35950928 62.88684082 84.31921387 C62.88665955 82.88805237 62.88665955 82.88805237 62.88647461 81.42797852 C62.884254 80.59524918 62.88203339 79.76251984 62.87974548 78.90455627 C63 77 63 77 64 76 C65.7996366 75.89577064 67.603366 75.86145898 69.40600586 75.85473633 C71.13801491 75.84516655 71.13801491 75.84516655 72.90501404 75.83540344 C74.16225784 75.83429062 75.41950165 75.8331778 76.71484375 75.83203125 C77.99605606 75.82870285 79.27726837 75.82537445 80.5973053 75.82194519 C83.3134953 75.81594808 86.02965345 75.81410587 88.74584961 75.81469727 C92.23090592 75.8147989 95.71575855 75.80114784 99.20076656 75.78392506 C102.51796233 75.77014934 105.8351197 75.77071676 109.15234375 75.76953125 C111.03517311 75.75875298 111.03517311 75.75875298 112.95603943 75.74775696 C114.11386429 75.75083359 115.27168915 75.75391022 116.46459961 75.75708008 C117.48750595 75.75565506 118.51041229 75.75423004 119.5643158 75.75276184 C122 76 122 76 124 78 C124.24050903 79.98684692 124.24050903 79.98684692 124.22705078 82.44970703 C124.22682419 83.83091232 124.22682419 83.83091232 124.22659302 85.24002075 C124.21627045 86.23589203 124.20594788 87.23176331 124.1953125 88.2578125 C124.1924826 89.27600067 124.18965271 90.29418884 124.18673706 91.3432312 C124.1755177 94.603939 124.15040996 97.86437484 124.125 101.125 C124.11497247 103.33202729 124.10584623 105.53905888 124.09765625 107.74609375 C124.07557268 113.16415572 124.04207795 118.58205843 124 124 C124.60996826 123.97381592 125.21993652 123.94763184 125.84838867 123.9206543 C128.62782758 123.81634281 131.40685439 123.75157018 134.1875 123.6875 C135.14720703 123.64560547 136.10691406 123.60371094 137.09570312 123.56054688 C144.22156191 123.43726212 144.22156191 123.43726212 148.171875 126.29296875 C150 129 150 129 150.0625 132.625 C148.85436367 136.46260953 148.48661139 137.16795951 145 139 C141.97901879 139.44504561 138.98388782 139.41312084 135.93482971 139.39440918 C134.54454533 139.40354584 134.54454533 139.40354584 133.12617439 139.41286707 C130.01311039 139.42954747 126.90045316 139.42471404 123.78735352 139.41992188 C121.55844699 139.42725924 119.32954428 139.43584449 117.10064697 139.44558716 C111.04079051 139.46784611 104.98106984 139.47073166 98.9211781 139.46883965 C93.86627868 139.46872015 88.81140825 139.47727554 83.75651687 139.48561716 C71.15154632 139.50596811 58.54666031 139.5069955 45.94168561 139.49981004 C34.99415897 139.49423387 24.04686629 139.51506283 13.09939433 139.54817051 C1.85899464 139.5819003 -9.38129612 139.59660202 -20.62175804 139.59245348 C-26.93264247 139.5903825 -33.24329389 139.59591927 -39.55413628 139.62034607 C-45.4877554 139.64255326 -51.42088641 139.64078529 -57.35450745 139.62041855 C-59.5342045 139.61699791 -61.71393402 139.62214265 -63.89358711 139.63640213 C-66.86558119 139.65450599 -69.83590374 139.64191114 -72.80784607 139.62145996 C-74.10677493 139.64023673 -74.10677493 139.64023673 -75.43194479 139.65939283 C-79.75919758 139.59539452 -81.50518607 139.37261332 -85.07060337 136.68772125 C-87 134 -87 134 -87.0625 130.375 C-85.88234729 126.62627962 -85.29720124 125.92002095 -82 124 C-79.61816406 123.65942383 -79.61816406 123.65942383 -77.015625 123.70703125 C-76.08105469 123.71669922 -75.14648438 123.72636719 -74.18359375 123.73632812 C-73.21550781 123.76146484 -72.24742188 123.78660156 -71.25 123.8125 C-69.77466797 123.83280273 -69.77466797 123.83280273 -68.26953125 123.85351562 C-65.84579585 123.88881274 -63.42317855 123.93811946 -61 124 C-61.00222061 122.92480606 -61.00444122 121.84961212 -61.00672913 120.74183655 C-61.0269599 110.63215799 -61.04197183 100.52248352 -61.05181217 90.41278934 C-61.05704116 85.21471885 -61.0641391 80.01666464 -61.07543945 74.81860352 C-61.08626776 69.80657732 -61.09227671 64.79456682 -61.09487724 59.78252983 C-61.09673159 57.86587718 -61.1003524 55.94922543 -61.10573006 54.03257942 C-61.11293975 51.35771928 -61.11399097 48.68292486 -61.11352539 46.00805664 C-61.11712067 45.2074884 -61.12071594 44.40692017 -61.12442017 43.58209229 C-61.11405216 38.11405216 -61.11405216 38.11405216 -60 37 C-58.15881971 36.90618698 -56.31402359 36.88256046 -54.47045898 36.88647461 C-53.28931015 36.88655014 -52.10816132 36.88662567 -50.89122009 36.88670349 C-49.6058284 36.89186478 -48.32043671 36.89702606 -46.99609375 36.90234375 C-45.68794205 36.9037587 -44.37979034 36.90517365 -43.03199768 36.90663147 C-39.54837141 36.9104559 -36.06478661 36.92028554 -32.58117676 36.93133545 C-29.02873302 36.94155118 -25.47628241 36.94618414 -21.92382812 36.95117188 C-14.94918209 36.96137768 -7.97465003 36.98094936 -1 37 C-0.67 24.79 -0.34 12.58 0 0 Z " fill="#47829F" transform="translate(172,73)"/>
<path d="M0 0 C4.34018444 0.44019272 5.49644905 1.3103449 8.54507351 4.34348297 C9.89735798 5.66399155 9.89735798 5.66399155 11.27696133 7.01117706 C12.25308835 7.99931844 13.22884511 8.98782568 14.20426846 9.97666168 C15.24818867 11.00945469 16.29358228 12.04076024 17.34033108 13.07068634 C20.17463483 15.86883092 22.98630745 18.68872981 25.79336333 21.51417732 C28.13996554 23.87195433 30.49753216 26.21860773 32.85523468 28.56527662 C38.41766451 34.10184807 43.96216592 39.65592455 49.49528408 45.22177887 C55.20153174 50.96127208 60.93444389 56.67306455 66.68168873 62.37148142 C71.61790764 67.26737744 76.53839524 72.17868637 81.44632107 77.10294485 C84.37655553 80.04278012 87.31208987 82.97674786 90.26231098 85.89653778 C93.03600596 88.64318909 95.7894554 91.40865876 98.52862263 94.1897316 C99.53594787 95.20602275 100.5501144 96.21558602 101.57153606 97.21770859 C110.23696424 105.73300246 110.23696424 105.73300246 110.48467922 110.76902008 C109.65809021 114.46724378 109.03744047 116.02356822 106.40959072 118.67783356 C105.69464443 119.41799713 104.97969814 120.15816071 104.24308681 120.92075348 C103.45885342 121.68879303 102.67462002 122.45683258 101.86662197 123.24814606 C100.66320156 124.46304718 100.66320156 124.46304718 99.43546963 125.70249176 C97.73696155 127.40643428 96.02834634 129.10035348 94.31046963 130.78476715 C91.68768291 133.36472491 89.11029244 135.98455597 86.53459072 138.61142731 C84.87699341 140.263738 83.21691607 141.91356523 81.55412197 143.56064606 C80.40206264 144.73699615 80.40206264 144.73699615 79.22672939 145.9371109 C78.48656582 146.65205719 77.74640224 147.36700348 76.98380947 148.10361481 C76.02450527 149.05337189 76.02450527 149.05337189 75.04582119 150.02231598 C72.34261797 151.56521091 70.09443687 152.22884824 66.96343899 152.07483864 C61.59671149 150.4262965 57.87669668 145.66388715 54.0404501 141.75376129 C52.996604 140.7191242 51.95105583 139.68620192 50.90394497 138.65486908 C48.07164147 135.85471671 45.26510265 133.02999874 42.46348667 130.19918323 C39.52627534 127.23796521 36.56915998 124.29673612 33.61503506 121.35240936 C28.65822848 116.40557653 23.71816842 111.44247881 18.78752041 106.4695816 C13.08857072 100.72224087 7.36324748 95.00224201 1.62320662 89.2959618 C-3.90103003 83.8028514 -9.40533894 78.29017412 -14.90109348 72.76857948 C-17.23906152 70.42040251 -19.58391697 68.07943814 -21.9346323 65.74402428 C-24.70212444 62.99287037 -27.45178475 60.22504419 -30.18867207 57.44345284 C-31.19526083 56.42601918 -32.20783792 55.41446988 -33.22675037 54.40937805 C-34.61754646 53.03549202 -35.98470519 51.63780014 -37.35054111 50.2390976 C-38.12183102 49.4638697 -38.89312092 48.6886418 -39.68778324 47.88992214 C-41.85570117 44.54892563 -41.719394 42.27995784 -41.32087803 38.37314606 C-39.85212803 36.18564606 -39.85212803 36.18564606 -37.82087803 34.37314606 C-37.08224522 33.69638824 -36.3436124 33.01963043 -35.58259678 32.32236481 C-34.83622959 31.67912262 -34.0898624 31.03588043 -33.32087803 30.37314606 C-32.70857334 29.84334137 -32.09626865 29.31353668 -31.46540928 28.76767731 C-30.19649034 27.67191575 -28.92691449 26.57691463 -27.65681553 25.48252106 C-20.2025973 18.75128721 -13.07641502 11.52969232 -6.59040928 3.86142731 C-3.64600405 0.40967841 -3.64600405 0.40967841 0 0 Z " fill="#F78D35" transform="translate(402.32087802886963,360.6268539428711)"/>
<path d="M0 0 C1.13134872 -0.00953201 2.26269745 -0.01906403 3.42832947 -0.02888489 C4.65540115 -0.02797348 5.88247284 -0.02706207 7.14672852 -0.02612305 C8.40195816 -0.03040817 9.65718781 -0.0346933 10.95045471 -0.03910828 C13.60952683 -0.04486078 16.26821194 -0.04627639 18.92724609 -0.04101562 C22.33495313 -0.03522228 25.74211642 -0.05214571 29.14973354 -0.0753603 C32.39872799 -0.09363528 35.6476919 -0.08991239 38.89672852 -0.08862305 C40.7342997 -0.10243767 40.7342997 -0.10243767 42.60899353 -0.11653137 C43.74349442 -0.11030258 44.8779953 -0.10407379 46.046875 -0.09765625 C47.04677963 -0.09828568 48.04668427 -0.0989151 49.07688904 -0.0995636 C52.08409491 0.34856539 52.7698531 0.88678466 54.58813477 3.2746582 C54.95727825 5.58035564 54.95727825 5.58035564 54.94889832 8.34294128 C54.95302231 9.39042038 54.9571463 10.43789948 54.96139526 11.51712036 C54.95060944 12.66582611 54.93982361 13.81453186 54.92871094 14.99804688 C54.92936806 16.81286812 54.92936806 16.81286812 54.93003845 18.66435242 C54.92830523 21.98246987 54.91324964 25.30002889 54.89231658 28.61804748 C54.87357571 32.08538023 54.87180139 35.55272024 54.86824036 39.02009583 C54.85891224 45.58618812 54.8342882 52.15213075 54.80419189 58.71815711 C54.76738406 66.92641521 54.75095165 75.13469757 54.73461914 83.34301758 C54.70539108 97.98701441 54.64529644 112.6306846 54.58813477 127.2746582 C34.12813477 127.2746582 13.66813477 127.2746582 -7.41186523 127.2746582 C-7.49219257 96.11657679 -7.49219257 96.11657679 -7.51237297 80.77029419 C-7.52347298 72.45727262 -7.5375839 64.14429101 -7.56274414 55.83129883 C-7.58264916 49.25151714 -7.59557479 42.67176555 -7.60004222 36.09195459 C-7.60265452 32.60646807 -7.60881402 29.12106766 -7.62332535 25.63560867 C-7.63937561 21.74916188 -7.63984678 17.86280011 -7.63891602 13.97631836 C-7.64610657 12.8146666 -7.65329712 11.65301483 -7.66070557 10.4561615 C-7.65795624 9.40164291 -7.65520691 8.34712433 -7.65237427 7.26065063 C-7.65421785 6.34070124 -7.65606144 5.42075184 -7.65796089 4.47292519 C-7.12230214 -0.31188478 -4.04177451 0.01863864 0 0 Z " fill="#F7711D" transform="translate(180.411865234375,69.725341796875)"/>
<path d="M0 0 C1.17792114 -0.00315216 2.35584229 -0.00630432 3.56945801 -0.009552 C4.85171265 -0.00752777 6.13396729 -0.00550354 7.45507812 -0.00341797 C8.76085815 -0.00437469 10.06663818 -0.00533142 11.4119873 -0.00631714 C14.17945535 -0.0077938 16.94689116 -0.00564058 19.71435547 -0.00097656 C23.26895462 0.00472073 26.82347827 0.00144155 30.37807465 -0.00454903 C33.75791526 -0.00902294 37.13773536 -0.00589433 40.51757812 -0.00341797 C41.79983276 -0.0054422 43.0820874 -0.00746643 44.40319824 -0.009552 C46.17007996 -0.00482376 46.17007996 -0.00482376 47.97265625 0 C49.0155481 0.00079559 50.05843994 0.00159119 51.13293457 0.00241089 C53.48632812 0.12939453 53.48632812 0.12939453 54.48632812 1.12939453 C54.58145756 3.80727427 54.61188091 6.45928322 54.59985352 9.13745117 C54.59999954 9.97640427 54.60014557 10.81535736 54.60029602 11.67973328 C54.59959662 14.46636497 54.59180298 17.25293069 54.58398438 20.03955078 C54.58212029 21.96626245 54.58069634 23.89297458 54.57969666 25.81968689 C54.57587071 30.9012685 54.56603978 35.98282173 54.55499268 41.06439209 C54.54298598 47.1558295 54.53837668 53.24727638 54.53253937 59.33872223 C54.52282807 68.60229943 54.50367204 77.8658143 54.48632812 87.12939453 C34.35632813 87.12939453 14.22632813 87.12939453 -6.51367188 87.12939453 C-6.55378068 65.70683381 -6.55378068 65.70683381 -6.5625 56.60791016 C-6.56848861 50.38793083 -6.57558939 44.16796615 -6.58911133 37.94799805 C-6.59993964 32.93597185 -6.60594859 27.92396135 -6.60854912 22.91192436 C-6.61040347 20.99527171 -6.61402427 19.07861996 -6.61940193 17.16197395 C-6.62661162 14.48711381 -6.62766285 11.8123194 -6.62719727 9.13745117 C-6.63079254 8.33688293 -6.63438782 7.5363147 -6.63809204 6.71148682 C-6.62583033 0.24471334 -6.37357851 0.00486223 0 0 Z " fill="#29CDF5" transform="translate(117.513671875,109.87060546875)"/>
<path d="M0 0 C3.46701313 2.84797833 4.98024417 5.70840155 6.62109375 9.83984375 C7.31235352 11.55977539 7.31235352 11.55977539 8.01757812 13.31445312 C8.48615234 14.51005859 8.95472656 15.70566406 9.4375 16.9375 C9.90220703 18.09830078 10.36691406 19.25910156 10.84570312 20.45507812 C12.24583411 23.96419303 13.62417392 27.48129437 15 31 C15.48227051 32.21187988 15.96454102 33.42375977 16.46142578 34.67236328 C17.14760986 36.41428955 17.14760986 36.41428955 17.84765625 38.19140625 C18.26152588 39.23627197 18.67539551 40.2811377 19.10180664 41.35766602 C20 44 20 44 20 47 C21.78615723 46.9685791 21.78615723 46.9685791 23.60839844 46.93652344 C28.02884889 46.86409038 32.44924696 46.81818828 36.87011719 46.78027344 C38.78296735 46.76016548 40.69575611 46.73287493 42.60839844 46.69824219 C45.35887811 46.64968751 48.10854477 46.62702342 50.859375 46.609375 C51.71368103 46.58872986 52.56798706 46.56808472 53.44818115 46.54681396 C59.36034679 46.54458268 59.36034679 46.54458268 62.53613281 48.80566406 C64.70523955 52.05715362 64.6127406 54.18739183 64 58 C61.84858 60.48966732 60.08739699 61.81272775 56.80395508 62.37820435 C54.06990602 62.54697567 51.36425921 62.58048973 48.625 62.56640625 C47.12187256 62.57570412 47.12187256 62.57570412 45.58837891 62.58518982 C43.47364268 62.59228107 41.35885055 62.58912616 39.24414062 62.57641602 C36.01067343 62.56254578 32.7800981 62.59663799 29.546875 62.63476562 C27.48958263 62.63571681 25.43228663 62.63385801 23.375 62.62890625 C22.41029785 62.64216446 21.4455957 62.65542267 20.45166016 62.66908264 C15.98221118 62.60714797 13.70629871 62.51496007 10.01879883 59.82641602 C7.98252244 56.97553058 6.60130059 54.40676446 5.32421875 51.1484375 C4.88916016 50.05015625 4.45410156 48.951875 4.00585938 47.8203125 C3.57080078 46.68335938 3.13574219 45.54640625 2.6875 44.375 C2.0059082 42.65796875 2.0059082 42.65796875 1.31054688 40.90625 C-2 32.44319784 -2 32.44319784 -2 29 C-2.66 29 -3.32 29 -4 29 C-4.25740967 30.28156982 -4.51481934 31.56313965 -4.7800293 32.88354492 C-5.93296819 38.05647103 -7.64695086 42.91279911 -9.51953125 47.86328125 C-9.85997971 48.77651657 -10.20042816 49.68975189 -10.55119324 50.63066101 C-11.26872112 52.55193884 -11.98908726 54.47215885 -12.7121582 56.39135742 C-13.8046923 59.29177243 -14.88846021 62.19534076 -15.97070312 65.09960938 C-17.66192435 69.62723507 -19.37293459 74.14683938 -21.10308838 78.659729 C-21.66513488 80.12625156 -22.22444884 81.59382751 -22.77972412 83.06292725 C-23.42747503 84.76956528 -24.09370021 86.46916157 -24.76171875 88.16796875 C-25.27738403 89.49284302 -25.27738403 89.49284302 -25.8034668 90.84448242 C-27.20691684 93.3727543 -28.50700707 94.55369028 -31 96 C-34.07223562 95.87460263 -36.13428471 95.69610549 -38.56576538 93.74099731 C-40.27720026 91.66351048 -41.00358183 89.81169811 -41.88525391 87.26904297 C-42.2221524 86.31150116 -42.5590509 85.35395935 -42.90615845 84.36740112 C-43.25939178 83.33608063 -43.61262512 82.30476013 -43.9765625 81.2421875 C-44.53263687 79.65399704 -44.53263687 79.65399704 -45.09994507 78.03372192 C-46.28312795 74.65026358 -47.45457653 71.26289106 -48.625 67.875 C-49.80454283 64.48069768 -50.98650744 61.0872659 -52.17147827 57.69485474 C-52.90851306 55.58273011 -53.64201363 53.46936843 -54.37173462 51.35470581 C-54.7023288 50.40346832 -55.03292297 49.45223083 -55.37353516 48.47216797 C-55.6642691 47.63072235 -55.95500305 46.78927673 -56.25454712 45.92233276 C-56.84223203 44.02322931 -56.84223203 44.02322931 -58 43 C-58.60328125 44.12019531 -59.2065625 45.24039063 -59.828125 46.39453125 C-60.63494463 47.86744616 -61.44226251 49.34008823 -62.25 50.8125 C-62.64574219 51.55048828 -63.04148438 52.28847656 -63.44921875 53.04882812 C-63.84238281 53.76103516 -64.23554688 54.47324219 -64.640625 55.20703125 C-65.17478027 56.18893433 -65.17478027 56.18893433 -65.71972656 57.19067383 C-67.70616532 59.99797696 -69.75717156 61.77655074 -73.19371033 62.39440918 C-74.38354271 62.40703796 -74.38354271 62.40703796 -75.59741211 62.41992188 C-76.50192612 62.43583374 -77.40644012 62.45174561 -78.33836365 62.46813965 C-79.30822708 62.46834106 -80.27809052 62.46854248 -81.27734375 62.46875 C-82.78259361 62.48017029 -82.78259361 62.48017029 -84.31825256 62.49182129 C-86.43894972 62.50261894 -88.55970005 62.50547676 -90.68041992 62.50097656 C-93.92261558 62.50000446 -97.16244303 62.54162634 -100.40429688 62.5859375 C-102.4661409 62.59114476 -104.52799315 62.59383269 -106.58984375 62.59375 C-107.55768295 62.61014526 -108.52552216 62.62654053 -109.52268982 62.64343262 C-114.1490326 62.59600322 -116.32602427 62.49487985 -120.14672852 59.68945312 C-122 57 -122 57 -122.0625 53.375 C-121 50 -121 50 -119.46264648 48.27050781 C-115.83896466 46.40100844 -112.47267411 46.96490657 -108.53515625 47.296875 C-90.98642759 49.06524299 -90.98642759 49.06524299 -74.95898438 43.80517578 C-70.48586418 38.38758166 -68.05069707 32.26747233 -65.91259766 25.63134766 C-64.55606343 21.71997101 -62.84125368 17.92062684 -59 16 C-53.72570496 15.42670706 -53.72570496 15.42670706 -50.97265625 17.6015625 C-48.57994893 20.51071555 -47.57026794 23.13326688 -46.3125 26.6875 C-46.07192871 27.35869873 -45.83135742 28.02989746 -45.58349609 28.72143555 C-45.03491567 30.25383514 -44.49096701 31.78789766 -43.95068359 33.32324219 C-42.86037868 36.39311971 -41.73795715 39.45036354 -40.61328125 42.5078125 C-39.78339905 44.77587519 -38.95397154 47.0441043 -38.125 49.3125 C-37.71934814 50.4161792 -37.31369629 51.5198584 -36.89575195 52.65698242 C-36.52023193 53.69443604 -36.14471191 54.73188965 -35.7578125 55.80078125 C-35.4189502 56.73059814 -35.08008789 57.66041504 -34.73095703 58.6184082 C-34 61 -34 61 -34 64 C-33.34 64 -32.68 64 -32 64 C-31.83342392 63.41766098 -31.66684784 62.83532196 -31.495224 62.2353363 C-29.49087657 55.37791922 -27.15544995 48.6770743 -24.69140625 41.97265625 C-24.28341293 40.86192245 -23.87541962 39.75118866 -23.45506287 38.60679626 C-22.59715533 36.27745806 -21.73735048 33.94881785 -20.87573242 31.62084961 C-19.99638552 29.23816118 -19.12273215 26.85336417 -18.25463867 24.46655273 C-16.99583057 21.00560135 -15.7206127 17.55111201 -14.44140625 14.09765625 C-14.05586075 13.02894791 -13.67031525 11.96023956 -13.27308655 10.85914612 C-12.90267746 9.87059128 -12.53226837 8.88203644 -12.15063477 7.86352539 C-11.83103287 6.99433975 -11.51143097 6.12515411 -11.18214417 5.22962952 C-8.62707399 0.41053888 -5.2816744 -0.77024418 0 0 Z " fill="#2BCEF5" transform="translate(233,231)"/>
<path d="M0 0 C1.51223648 0.00666183 1.51223648 0.00666183 3.05502319 0.01345825 C4.19605499 0.01360931 5.33708679 0.01376038 6.51269531 0.01391602 C8.36741959 0.02939987 8.36741959 0.02939987 10.25961304 0.04519653 C12.15313004 0.04944138 12.15313004 0.04944138 14.0848999 0.05377197 C17.44201998 0.06308772 20.79886965 0.08106068 24.15591431 0.10317993 C27.58108176 0.12363353 31.00627713 0.13277264 34.43148804 0.14285278 C41.15291724 0.16494445 47.87421827 0.19844527 54.59555054 0.24050903 C54.59555054 0.57050903 54.59555054 0.90050903 54.59555054 1.24050903 C45.02555054 1.24050903 35.45555054 1.24050903 25.59555054 1.24050903 C25.59555054 42.82050903 25.59555054 84.40050903 25.59555054 127.24050903 C15.69555054 127.24050903 5.79555054 127.24050903 -4.40444946 127.24050903 C-4.44955821 110.97707162 -4.48641637 94.7136874 -4.50807381 78.45020485 C-4.51839602 70.89916371 -4.53247434 63.34816413 -4.55532837 55.79714966 C-4.57523339 49.21736797 -4.58815902 42.63761638 -4.59262645 36.05780542 C-4.59523875 32.5723189 -4.60139824 29.08691849 -4.61590958 25.6014595 C-4.63195983 21.71501271 -4.63243101 17.82865094 -4.63150024 13.94216919 C-4.6386908 12.78051743 -4.64588135 11.61886566 -4.65328979 10.42201233 C-4.65054047 9.36749374 -4.64779114 8.31297516 -4.6449585 7.22650146 C-4.64680208 6.30655207 -4.64864567 5.38660267 -4.65054512 4.43877602 C-4.28512404 1.17462618 -3.22789545 0.32287558 0 0 Z " fill="#F68E37" transform="translate(177.40444946289063,69.75949096679688)"/>
<path d="M0 0 C11.32019821 9.30673238 21.48043938 20.06002622 31.88110352 30.36621094 C34.58761525 33.04585194 37.30472758 35.71402253 40.03149414 38.37304688 C43.33815049 41.59780518 46.62479818 44.84173574 49.89819527 48.1002388 C51.14449038 49.33429758 52.39765659 50.56145799 53.65778923 51.78138351 C55.4173569 53.48751065 57.15005483 55.21717782 58.87866211 56.95458984 C59.66165428 57.69679527 59.66165428 57.69679527 60.46046448 58.45399475 C63.19689982 61.2629513 64.33319869 63.34585042 64.44630432 67.19485474 C63.89085311 71.93057526 62.60277446 73.33371529 59.1875 76.59375 C58.69918701 77.07074341 58.21087402 77.54773682 57.70776367 78.03918457 C56.15637602 79.54608044 54.57949875 81.02265309 53 82.5 C51.93828617 83.52155138 50.87836854 84.54497309 49.8203125 85.5703125 C47.23396687 88.06884883 44.62399125 90.54095985 42 93 C41 91 41 91 41.19140625 88.68359375 C40.92829624 84.99468401 39.45324778 83.72104482 36.9375 81.0625 C36.11636719 80.19367188 35.29523438 79.32484375 34.44921875 78.4296875 C31.96302883 75.96332366 29.43632652 73.63716037 26.703125 71.44921875 C22.5067009 67.87840833 18.84537317 63.76228855 15.16796875 59.671875 C8.14402431 51.94010183 0.72042221 44.61094125 -6.6875 37.25 C-8.08291853 35.85961205 -9.47810227 34.46898843 -10.87304688 33.078125 C-14.24600586 29.71603539 -17.62209641 26.35712141 -21 23 C-19.48623919 19.43235715 -17.39486871 17.16293713 -14.6484375 14.453125 C-13.79765625 13.60878906 -12.946875 12.76445312 -12.0703125 11.89453125 C-11.18085938 11.02183594 -10.29140625 10.14914062 -9.375 9.25 C-8.4778125 8.36183594 -7.580625 7.47367187 -6.65625 6.55859375 C-4.44192996 4.36783031 -2.22307565 2.18187237 0 0 Z " fill="#F76F1B" transform="translate(448,404)"/>
<path d="M0 0 C1.73200905 -0.00956978 1.73200905 -0.00956978 3.49900818 -0.01933289 C4.75625198 -0.02044571 6.01349579 -0.02155853 7.30883789 -0.02270508 C8.5900502 -0.02603348 9.87126251 -0.02936188 11.19129944 -0.03279114 C13.90748944 -0.03878825 16.62364759 -0.04063045 19.33984375 -0.04003906 C22.82490006 -0.03993742 26.30975269 -0.05358849 29.7947607 -0.07081127 C33.11195647 -0.08458699 36.42911384 -0.08401957 39.74633789 -0.08520508 C41.00155746 -0.09239059 42.25677704 -0.09957611 43.55003357 -0.10697937 C45.28677086 -0.10236443 45.28677086 -0.10236443 47.05859375 -0.09765625 C48.59295326 -0.09979378 48.59295326 -0.09979378 50.15830994 -0.10197449 C52.59399414 0.14526367 52.59399414 0.14526367 54.59399414 2.14526367 C54.83450317 4.1321106 54.83450317 4.1321106 54.82104492 6.5949707 C54.82080322 7.52865479 54.82056152 8.46233887 54.8203125 9.42431641 C54.8049646 10.89880249 54.8049646 10.89880249 54.78930664 12.40307617 C54.78729248 13.30533936 54.78527832 14.20760254 54.78320312 15.13720703 C54.77272118 18.51494412 54.74479868 21.89260888 54.71899414 25.27026367 C54.67774414 32.81901367 54.63649414 40.36776367 54.59399414 48.14526367 C34.46399414 48.14526367 14.33399414 48.14526367 -6.40600586 48.14526367 C-6.42663086 40.41088867 -6.44725586 32.67651367 -6.46850586 24.70776367 C-6.47760986 22.26313721 -6.48671387 19.81851074 -6.49609375 17.29980469 C-6.49901277 15.37459366 -6.50156136 13.44938202 -6.50366211 11.52416992 C-6.50877808 10.51447144 -6.51389404 9.50477295 -6.51916504 8.46447754 C-6.51928589 7.51036987 -6.51940674 6.55626221 -6.51953125 5.57324219 C-6.52175186 4.74051285 -6.52397247 3.90778351 -6.52626038 3.04981995 C-6.27235247 -0.97150004 -3.38315509 0.01261693 0 0 Z " fill="#45D987" transform="translate(241.406005859375,148.854736328125)"/>
<path d="M0 0 C9.57 0 19.14 0 29 0 C30.78857062 1.78857062 30.11990579 4.20123134 30.12442017 6.58209229 C30.12082489 7.38266052 30.11722961 8.18322876 30.11352539 9.00805664 C30.11367142 9.84700974 30.11381744 10.68596283 30.1139679 11.55033875 C30.1132685 14.33697044 30.10547485 17.12353616 30.09765625 19.91015625 C30.09579217 21.83686791 30.09436822 23.76358005 30.09336853 25.69029236 C30.08954259 30.77187397 30.07971166 35.8534272 30.06866455 40.93499756 C30.05845206 46.11616634 30.05387126 51.29733969 30.04882812 56.47851562 C30.03808946 66.65235826 30.02049205 76.82617233 30 87 C20.1 87 10.2 87 0 87 C0 58.29 0 29.58 0 0 Z " fill="#22B5ED" transform="translate(142,110)"/>
<path d="M0 0 C4.58435196 0.50994307 5.82661478 1.71309803 8.98217773 5.00585938 C9.43839005 5.47197632 9.89460236 5.93809326 10.36463928 6.41833496 C11.80790108 7.90056276 13.22482905 9.40527298 14.64233398 10.91210938 C15.62050641 11.92541894 16.60030963 12.93715695 17.58178711 13.94726562 C19.97263377 16.42055527 22.34564761 18.90866419 24.70483398 21.41210938 C10.03816732 36.07877604 -4.62849935 50.74544271 -19.29516602 65.41210938 C-24.64581226 62.86477981 -28.34697623 58.84736294 -32.54516602 54.72460938 C-33.38563477 53.93376953 -34.22610352 53.14292969 -35.09204102 52.328125 C-41.09163651 46.43079534 -41.09163651 46.43079534 -42.06079102 41.58007812 C-41.21403052 38.07639056 -40.45708978 36.78736442 -37.79516602 34.41210938 C-37.0565332 33.73535156 -36.31790039 33.05859375 -35.55688477 32.36132812 C-34.81051758 31.71808594 -34.06415039 31.07484375 -33.29516602 30.41210938 C-32.68286133 29.88230469 -32.07055664 29.3525 -31.43969727 28.80664062 C-30.17077833 27.71087907 -28.90120248 26.61587795 -27.63110352 25.52148438 C-20.17688529 18.79025052 -13.050703 11.56865564 -6.56469727 3.90039062 C-3.62423523 0.45326436 -3.62423523 0.45326436 0 0 Z " fill="#F68E36" transform="translate(402.295166015625,360.587890625)"/>
<path d="M0 0 C2.73693563 1.17140775 4.37087957 2.94744239 6.44955444 5.06825256 C7.71605835 6.34925842 7.71605835 6.34925842 9.00814819 7.65614319 C9.88084351 8.55397522 10.75353882 9.45180725 11.65267944 10.37684631 C12.54084351 11.27854553 13.42900757 12.18024475 14.34408569 13.10926819 C16.53716259 15.33771729 18.72293988 17.57286224 20.90267944 19.81434631 C19.43145329 23.21787654 17.53325431 25.4269038 14.91195679 28.03211975 C14.09125702 28.85266846 13.27055725 29.67321716 12.42498779 30.51863098 C11.53848541 31.39481079 10.65198303 32.2709906 9.73861694 33.17372131 C8.831409 34.07809937 7.92420105 34.98247742 6.98950195 35.91426086 C4.58383525 38.31231089 2.17222208 40.7042925 -0.24069214 43.095047 C-2.70434399 45.53819802 -5.16230633 47.98705838 -7.62075806 50.43544006 C-12.44105628 55.2336842 -17.26701899 60.02617364 -22.09732056 64.81434631 C-25.620767 63.15572752 -27.89633933 61.24777323 -30.64419556 58.46278381 C-31.48853149 57.61200256 -32.33286743 56.76122131 -33.20278931 55.88465881 C-34.07548462 54.99520569 -34.94817993 54.10575256 -35.84732056 53.18934631 C-37.17956665 51.84356506 -37.17956665 51.84356506 -38.53872681 50.47059631 C-40.72949025 48.25627627 -42.91544819 46.03742196 -45.09732056 43.81434631 C-38.2061152 35.57382358 -30.62080578 28.04118814 -23.05630493 20.42323303 C-21.32470624 18.6749466 -19.59850847 16.92129523 -17.87759399 15.16249084 C-15.3872209 12.61769112 -12.88110475 10.08942579 -10.37075806 7.56434631 C-9.60089569 6.77181458 -8.83103333 5.97928284 -8.0378418 5.16273499 C-7.31674225 4.44448547 -6.5956427 3.72623596 -5.85269165 2.98622131 C-5.2223703 2.34781311 -4.59204895 1.70940491 -3.94262695 1.051651 C-2.09732056 -0.18565369 -2.09732056 -0.18565369 0 0 Z " fill="#48D785" transform="translate(427.0973205566406,383.18565368652344)"/>
<path d="M0 0 C7.30287665 6.13945123 14.05608048 12.76304217 20.82763672 19.47753906 C22.28492299 20.9181201 23.74757263 22.35329426 25.21533203 23.78320312 C27.34316312 25.85659582 29.45436899 27.94566595 31.5625 30.0390625 C32.22378906 30.67768219 32.88507813 31.31630188 33.56640625 31.97427368 C34.16453125 32.57524872 34.76265625 33.17622375 35.37890625 33.79541016 C35.9107251 34.31914215 36.44254395 34.84287415 36.99047852 35.38247681 C38 37 38 37 37.7759552 39.06190491 C35.88656465 43.7810157 31.22476207 47.28560354 27.6875 50.8125 C26.81931641 51.70904297 25.95113281 52.60558594 25.05664062 53.52929688 C23.7969043 54.79290039 23.7969043 54.79290039 22.51171875 56.08203125 C21.74303467 56.85780518 20.97435059 57.6335791 20.18237305 58.43286133 C18 60 18 60 16.098526 59.81158447 C13.52346094 58.81570316 12.18226392 57.54334418 10.24121094 55.58178711 C9.52076599 54.86111557 8.80032104 54.14044403 8.05804443 53.39793396 C7.29123352 52.61563919 6.52442261 51.83334442 5.734375 51.02734375 C4.94097717 50.22970108 4.14757935 49.43205841 3.33013916 48.61024475 C0.79630602 46.05961153 -1.72690105 43.49874774 -4.25 40.9375 C-5.9654564 39.20699858 -7.68159405 37.4771722 -9.3984375 35.74804688 C-13.60689643 31.50650094 -17.80667651 27.25650702 -22 23 C-19.02285918 20.01995559 -16.04036513 17.04564699 -13.046875 14.08203125 C-11.61453307 12.65890475 -10.18224249 11.23572657 -8.75 9.8125 C-8.0178125 9.08869141 -7.285625 8.36488281 -6.53125 7.61914062 C-5.83515625 6.92626953 -5.1390625 6.23339844 -4.421875 5.51953125 C-3.78862305 4.89151611 -3.15537109 4.26350098 -2.50292969 3.61645508 C-0.91075025 2.05609672 -0.91075025 2.05609672 0 0 Z " fill="#437F9F" transform="translate(353,331)"/>
<path d="M0 0 C11.90888973 -0.09266923 23.81769372 -0.16374957 35.72687054 -0.20724869 C41.25676392 -0.22812584 46.78641067 -0.2564462 52.31616211 -0.30175781 C57.65242246 -0.34521042 62.98844554 -0.36913614 68.32486916 -0.37950897 C70.36105904 -0.38690135 72.3972359 -0.40133688 74.43332481 -0.42292023 C77.28485581 -0.45194616 80.13540566 -0.45595631 82.98706055 -0.45410156 C84.25049789 -0.47567322 84.25049789 -0.47567322 85.53945923 -0.49768066 C89.56894669 -0.46931003 91.5284147 -0.29704323 95.02180481 1.90338135 C97.14281652 4.15136615 97.68433953 4.96181582 97.625 8 C97.64433594 8.99 97.64433594 8.99 97.6640625 10 C96.5956807 13.2177146 94.84471209 14.20816622 92 16 C88.99124659 16.56348229 86.04033489 16.50623251 82.98706055 16.45410156 C82.08900192 16.45468567 81.1909433 16.45526978 80.26567078 16.45587158 C77.30562306 16.45309113 74.34658994 16.4220008 71.38671875 16.390625 C69.33120779 16.38316248 67.2756897 16.3774696 65.22016907 16.37347412 C59.81623614 16.35821875 54.41273484 16.31893744 49.00897217 16.2746582 C43.49236896 16.23370362 37.97569586 16.21546268 32.45898438 16.1953125 C21.63913352 16.15244336 10.81960269 16.08419293 0 16 C0 10.72 0 5.44 0 0 Z " fill="#44D987" transform="translate(402,199)"/>
<path d="M0 0 C5.28 0 10.56 0 16 0 C16.06777602 11.38741425 16.12281634 22.77469453 16.15543652 34.16226482 C16.17109253 39.44996827 16.1923298 44.73752657 16.22631836 50.02514648 C16.25891385 55.1279779 16.2768535 60.23066969 16.28463173 65.33359718 C16.29017488 67.28045665 16.30099925 69.22730847 16.31719017 71.17410851 C16.33896687 73.90098969 16.34196681 76.6272939 16.34057617 79.35424805 C16.351362 80.15913666 16.36214783 80.96402527 16.3732605 81.79330444 C16.34795396 86.3791635 15.8925279 89.38108859 13 93 C10 95 10 95 6.5 94.8125 C2.98579207 93.99670173 2.10815948 93.72888279 0 91 C-0.28072825 88.03098682 -0.37868392 85.27420253 -0.34057617 82.3059082 C-0.34101425 81.4178952 -0.34145233 80.5298822 -0.34190369 79.61495972 C-0.3398119 76.67667739 -0.3164624 73.73896403 -0.29296875 70.80078125 C-0.28737419 68.76482963 -0.28310343 66.72887397 -0.28010559 64.69291687 C-0.26864586 59.33178577 -0.23916887 53.97089813 -0.20599365 48.60986328 C-0.17531714 43.14033298 -0.16160542 37.67076339 -0.14648438 32.20117188 C-0.11430033 21.4673409 -0.06309027 10.73369068 0 0 Z " fill="#45D887" transform="translate(192,402)"/>
<path d="M0 0 C1.20970459 0.00523682 2.41940918 0.01047363 3.66577148 0.01586914 C4.84083252 0.0183667 6.01589355 0.02086426 7.2265625 0.0234375 C8.7314624 0.0325415 10.2363623 0.04164551 11.78686523 0.05102539 C16.55124023 0.07165039 21.31561523 0.09227539 26.22436523 0.11352539 C26.22436523 15.95352539 26.22436523 31.79352539 26.22436523 48.11352539 C16.32436523 48.11352539 6.42436523 48.11352539 -3.77563477 48.11352539 C-3.7985388 41.43827135 -3.8184674 34.76315259 -3.83056641 28.08789062 C-3.83560802 25.81509948 -3.84244114 23.54231159 -3.85107422 21.26953125 C-3.86314737 18.01048988 -3.86886464 14.75149122 -3.87329102 11.49243164 C-3.8784523 10.4695253 -3.88361359 9.44661896 -3.88893127 8.39271545 C-3.88900681 7.45181564 -3.88908234 6.51091583 -3.88916016 5.54150391 C-3.89138077 4.70877457 -3.89360138 3.87604523 -3.89588928 3.01808167 C-3.70058148 -0.07514682 -3.12993932 0.12801669 0 0 Z " fill="#7BE492" transform="translate(238.775634765625,148.886474609375)"/>
<path d="M0 0 C2.72241211 1.92773438 2.72241211 1.92773438 5.27734375 4.59375 C5.73355606 5.05986694 6.18976837 5.52598389 6.6598053 6.00622559 C8.10306709 7.48845339 9.51999507 8.9931636 10.9375 10.5 C11.91567243 11.51330956 12.89547565 12.52504758 13.87695312 13.53515625 C16.26779978 16.0084459 18.64081363 18.49655482 21 21 C20.25435791 21.7420166 19.50871582 22.4840332 18.74047852 23.24853516 C16.51545092 25.48248269 14.32500463 27.73901714 12.15234375 30.0234375 C10.74765195 31.47420636 9.34269844 32.92472186 7.9375 34.375 C7.23044922 35.12394531 6.52339844 35.87289062 5.79492188 36.64453125 C4.7652832 37.69833984 4.7652832 37.69833984 3.71484375 38.7734375 C3.09730225 39.41716309 2.47976074 40.06088867 1.84350586 40.72412109 C0 42 0 42 -2.00439453 41.91992188 C-4.44002308 40.79716088 -5.81156998 39.46554308 -7.64453125 37.5078125 C-8.66063477 36.45013672 -8.66063477 36.45013672 -9.69726562 35.37109375 C-11.09801627 33.8836854 -12.49648848 32.3941278 -13.89257812 30.90234375 C-18.0283426 26.606157 -21.31337174 23.88810925 -27 22 C-25.00371305 19.66340234 -23.0032675 17.33060241 -21 15 C-20.44070801 14.34531738 -19.88141602 13.69063477 -19.30517578 13.01611328 C-17.57814754 11.01252347 -15.82332756 9.036409 -14.0625 7.0625 C-13.48048828 6.37865234 -12.89847656 5.69480469 -12.29882812 4.99023438 C-11.71681641 4.34505859 -11.13480469 3.69988281 -10.53515625 3.03515625 C-10.023479 2.4512915 -9.51180176 1.86742676 -8.98461914 1.26586914 C-5.86486894 -0.7240318 -3.61234083 -0.477263 0 0 Z " fill="#F6701C" transform="translate(406,361)"/>
<path d="M0 0 C7.88364482 -0.07606355 15.767195 -0.12860577 23.65112305 -0.16479492 C26.33319554 -0.17818702 29.01505492 -0.19906077 31.69702148 -0.22631836 C35.55198251 -0.26270611 39.40661733 -0.279728 43.26171875 -0.29296875 C45.06040657 -0.31619453 45.06040657 -0.31619453 46.89543152 -0.33988953 C48.01621597 -0.34011612 49.13700043 -0.34034271 50.29174805 -0.34057617 C51.27547897 -0.34723801 52.2592099 -0.35389984 53.27275085 -0.36076355 C56.50207265 0.06641473 58.37995083 1.0950518 61 3 C62.54586876 6.09173752 62.29359521 8.59429552 62 12 C59.89017686 14.82588718 58.71159101 15.87761498 55.20318604 16.48101807 C54.12841003 16.47213562 53.05363403 16.46325317 51.94628906 16.45410156 C50.72532532 16.45379944 49.50436157 16.45349731 48.24639893 16.45318604 C46.93274353 16.43254089 45.61908813 16.41189575 44.265625 16.390625 C42.90371532 16.38316087 41.54179488 16.37746874 40.17987061 16.37347412 C36.60229632 16.35823092 33.02537578 16.31896181 29.44805908 16.2746582 C25.79488976 16.23367632 22.14161438 16.21545697 18.48828125 16.1953125 C11.3252234 16.1524651 4.16270344 16.08423115 -3 16 C-2.68954268 14.0830014 -2.37655329 12.16641277 -2.0625 10.25 C-1.88847656 9.18265625 -1.71445312 8.1153125 -1.53515625 7.015625 C-1.11295829 4.63652407 -0.62797116 2.33084789 0 0 Z " fill="#44D887" transform="translate(400,229)"/>
<path d="M0 0 C3.56764285 1.51376081 5.83706287 3.60513129 8.546875 6.3515625 C9.39121094 7.20234375 10.23554688 8.053125 11.10546875 8.9296875 C12.41451172 10.26386719 12.41451172 10.26386719 13.75 11.625 C14.63816406 12.5221875 15.52632813 13.419375 16.44140625 14.34375 C18.63216969 16.55807004 20.81812763 18.77692435 23 21 C18.61557474 26.25174926 13.99157907 31.13222473 9.125 35.9375 C8.43664062 36.62134766 7.74828125 37.30519531 7.0390625 38.00976562 C5.36166489 39.67551464 3.68196209 41.3388622 2 43 C-1.56764285 41.48623919 -3.83706287 39.39486871 -6.546875 36.6484375 C-7.39121094 35.79765625 -8.23554688 34.946875 -9.10546875 34.0703125 C-9.97816406 33.18085938 -10.85085938 32.29140625 -11.75 31.375 C-12.63816406 30.4778125 -13.52632813 29.580625 -14.44140625 28.65625 C-16.63216969 26.44192996 -18.81812763 24.22307565 -21 22 C-16.61557474 16.74825074 -11.99157907 11.86777527 -7.125 7.0625 C-6.43664062 6.37865234 -5.74828125 5.69480469 -5.0390625 4.99023438 C-3.36166489 3.32448536 -1.68196209 1.6611378 0 0 Z " fill="#7DE290" transform="translate(403,405)"/>
<path d="M0 0 C7.4931082 -0.09041248 14.986013 -0.16377984 22.47953415 -0.20724869 C25.9592187 -0.22811308 29.43851033 -0.25640821 32.91796875 -0.30175781 C36.91930893 -0.35358227 40.92023719 -0.37295453 44.921875 -0.390625 C46.16990906 -0.41127014 47.41794312 -0.43191528 48.70379639 -0.45318604 C49.86469788 -0.45348816 51.02559937 -0.45379028 52.22167969 -0.45410156 C53.75390167 -0.46742523 53.75390167 -0.46742523 55.31707764 -0.48101807 C58.71043032 0.12737223 59.88223792 1.33822564 62 4 C62.70882303 6.90784881 62.33971789 8.942539 62 12 C60.18836733 14.67431489 59.12238923 14.95920359 56 16 C54.20529613 16.08813433 52.40745761 16.1176372 50.6105957 16.11352539 C49.50968094 16.11344986 48.40876617 16.11337433 47.27449036 16.11329651 C46.08691635 16.10813522 44.89934235 16.10297394 43.67578125 16.09765625 C42.45924362 16.0962413 41.24270599 16.09482635 39.98930359 16.09336853 C36.0970109 16.08776312 32.20477536 16.07520967 28.3125 16.0625 C25.67643312 16.0574857 23.04036534 16.05292267 20.40429688 16.04882812 C13.93617584 16.03779193 7.46809761 16.02052362 1 16 C0.67 10.72 0.34 5.44 0 0 Z " fill="#44D887" transform="translate(400,169)"/>
<path d="M0 0 C5.28 0.66 10.56 1.32 16 2 C16.09879376 9.90198098 16.17143488 17.80360337 16.21972656 25.70605469 C16.237599 28.39504466 16.26544475 31.08365826 16.30175781 33.77246094 C16.35021615 37.63487561 16.37295626 41.49671208 16.390625 45.359375 C16.41127014 46.5636615 16.43191528 47.767948 16.45318604 49.00872803 C16.45348816 50.12958801 16.45379028 51.250448 16.45410156 52.40527344 C16.46298401 53.39122498 16.47186646 54.37717651 16.48101807 55.39300537 C15.86549618 58.72897623 14.59244582 59.88782997 12 62 C9.35942927 63.19251581 8.25605675 63.06869815 5.4375 62.3125 C2.64889076 60.81094118 1.62651592 59.70112416 0 57 C-0.36076355 54.3550415 -0.36076355 54.3550415 -0.34057617 51.31347656 C-0.34034958 50.17259583 -0.34012299 49.03171509 -0.33988953 47.85626221 C-0.32440567 46.63010193 -0.30892181 45.40394165 -0.29296875 44.140625 C-0.28872391 42.88111023 -0.28447906 41.62159546 -0.28010559 40.32391357 C-0.26616121 36.98311462 -0.23922925 33.64293416 -0.20599365 30.30230713 C-0.17524839 26.89039442 -0.16159079 23.4784177 -0.14648438 20.06640625 C-0.11339803 13.37741146 -0.06160562 6.68879048 0 0 Z " fill="#45D887" transform="translate(161,398)"/>
<path d="M0 0 C0.10141744 7.88359592 0.17147331 15.76702362 0.21972656 23.65112305 C0.23758325 26.33327823 0.26541436 29.0150546 0.30175781 31.69702148 C0.35027542 35.55203066 0.37296994 39.40645998 0.390625 43.26171875 C0.41127014 44.46084396 0.43191528 45.65996918 0.45318604 46.89543152 C0.45542869 55.21497228 0.45542869 55.21497228 -1.87597656 59.23364258 C-4.42164959 61.35064768 -5.6793561 62 -9 62 C-14.63855422 59.72289157 -14.63855422 59.72289157 -16 57 C-16.09072287 55.2433077 -16.11754144 53.4831499 -16.11352539 51.72412109 C-16.11344986 50.6231308 -16.11337433 49.5221405 -16.11329651 48.38778687 C-16.10813522 47.19505157 -16.10297394 46.00231628 -16.09765625 44.7734375 C-16.0962413 43.55548492 -16.09482635 42.33753235 -16.09336853 41.08267212 C-16.08775639 37.1800901 -16.07520179 33.27756477 -16.0625 29.375 C-16.05748657 26.73437583 -16.05292339 24.09375076 -16.04882812 21.453125 C-16.03778301 14.96873055 -16.02103302 8.48436932 -16 2 C-14.45998293 1.65912666 -12.91787594 1.32769047 -11.375 1 C-10.08722656 0.7215625 -10.08722656 0.7215625 -8.7734375 0.4375 C-5.80730995 -0.03039618 -2.99792667 -0.07033259 0 0 Z " fill="#44D887" transform="translate(238,399)"/>
<path d="M0 0 C0.33 0 0.66 0 1 0 C1.45889165 4.89484426 -0.16810218 8.57500481 -2 13 C-2.25136719 13.67160156 -2.50273437 14.34320313 -2.76171875 15.03515625 C-3.4185128 16.72753034 -4.20148507 18.36969868 -5 20 C-5.99 20.33 -6.98 20.66 -8 21 C-6.48728707 16.28562282 -4.73227046 11.71041415 -2.875 7.125 C-2.59785156 6.43664062 -2.32070313 5.74828125 -2.03515625 5.0390625 C-1.35835767 3.35873499 -0.67940197 1.67927658 0 0 Z " fill="#4C85A2" transform="translate(361,257)"/>
</svg>
